<?xml version="1.0" encoding="UTF-8" standalone="no"?>
<svg
   xmlns:dc="http://purl.org/dc/elements/1.1/"
   xmlns:cc="http://creativecommons.org/ns#"
   xmlns:rdf="http://www.w3.org/1999/02/22-rdf-syntax-ns#"
   xmlns:svg="http://www.w3.org/2000/svg"
   xmlns="http://www.w3.org/2000/svg"
   xmlns:sodipodi="http://sodipodi.sourceforge.net/DTD/sodipodi-0.dtd"
   xmlns:inkscape="http://www.inkscape.org/namespaces/inkscape"
   width="734"
   height="126"
   id="svg2"
   version="1.1"
   inkscape:version="0.91 r13725"
   sodipodi:docname="visibiome.svg">
  <metadata
     id="metadata4499">
    <rdf:RDF>
      <cc:Work
         rdf:about="">
        <dc:format>image/svg+xml</dc:format>
        <dc:type
           rdf:resource="http://purl.org/dc/dcmitype/StillImage" />
        <dc:title />
      </cc:Work>
    </rdf:RDF>
  </metadata>
  <defs
     id="defs4497"> Status
.lua
.1.js-file-packer
.alert
.7bits.mjomatic
.sd.grid
.screen
.pvertenten.cycle
.lx.lockscreen
.lb.spotify
.lb.itunes
.keycodes
.jstevenson.cursor
.hotkey
.grille
.geometry
.fnutils
.cmsj.caffeinate
.cmsj.appfinder
.chdiza.slateops
.bg.grid
._asm.watcher.screen
._asm.watcher.battery
._asm.utf8_53
._asm.undocumented.coredock
._asm.undocumented.cgsdebug
._asm.undocumented.bluetooth
._asm.ui.sound
._asm.ui.notification
._asm.timer
._asm.sys.mouse
._asm.sys.brightness
._asm.sys.battery
._asm.sys.audiodevice
._asm.settings
._asm.pathwatcher
._asm.notify
._asm.modules
._asm.modal_hotkey
._asm.ipc.cli
._asm.ipc
._asm.hydra.undocumented
._asm.hydra.dockicon
._asm.hydra.applescript
._asm.hydra
._asm.eventtap.event
._asm.eventtap
._asm.data.pasteboard
._asm.data.json
._asm.data.base64
._asm.data
._asm.compat_51
._asm.applistener
._asm
.application
.winter
.tiling
.th.hints
.sk.transform
.lua
.conman.uuid
.conman.syslog
.conman.parsers.ip
.conman.parsers.ini
.conman.parsers.email
.conman.iconv
.conman.errno
.conman.env
.conman.cbor
.n
.color
.strict
.prototype
.normalize
</defs>
  <sodipodi:namedview
     pagecolor="#ffffff"
     bordercolor="#666666"
     borderopacity="1"
     objecttolerance="10"
     gridtolerance="10"
     guidetolerance="10"
     inkscape:pageopacity="0"
     inkscape:pageshadow="2"
     inkscape:window-width="1855"
     inkscape:window-height="1176"
     id="namedview4495"
     showgrid="false"
     fit-margin-top="0"
     fit-margin-left="0"
     fit-margin-right="0"
     fit-margin-bottom="0"
     inkscape:zoom="0.47676768"
     inkscape:cx="-75.427559"
     inkscape:cy="-126.26636"
     inkscape:window-x="1431"
     inkscape:window-y="24"
     inkscape:window-maximized="1"
     inkscape:current-layer="layer1" />
  <circle
     cy="354.74231"
     cx="562.242"
     id="circle49"
     style="fill:#31a354"
     r="0" />
  <circle
     cy="354.06952"
     cx="559.2453"
     id="circle53"
     style="fill:#31a354"
     r="0" />
  <circle
     cy="354.77258"
     cx="556.25549"
     id="circle57"
     style="fill:#31a354"
     r="0" />
  <circle
     cy="356.71039"
     cx="553.87262"
     id="circle61"
     style="fill:#31a354"
     r="0" />
  <circle
     cy="359.49402"
     cx="552.57483"
     id="circle65"
     style="fill:#31a354"
     r="0" />
  <circle
     cy="420.76001"
     cx="503.29608"
     id="circle401"
     style="fill:#636363"
     r="0" />
  <circle
     cy="303.64575"
     cx="488.06793"
     id="circle1165"
     style="fill:#9e9ac8"
     r="0" />
  <circle
     cy="407.43823"
     cx="354.02002"
     id="circle1333"
     style="fill:#31a354"
     r="0" />
  <circle
     cy="461.50604"
     cx="387.46396"
     id="circle1377"
     style="fill:#9e9ac8"
     r="0" />
  <circle
     cy="130.40474"
     cx="573.32574"
     id="circle2425"
     style="fill:#31a354"
     r="0" />
  <circle
     cy="163.59685"
     cx="871.74438"
     id="circle3665"
     style="fill:#dadaeb"
     r="0" />
  <circle
     cy="348.34827"
     cx="172.76343"
     id="circle4397"
     style="fill:#3182bd"
     r="0" />
  <g
     inkscape:groupmode="layer"
     id="layer1"
     inkscape:label="Layer 1"
     transform="translate(-54.19672,-157.04723)">
    <path
       inkscape:connector-curvature="0"
       id="path16488"
       style="font-style:normal;font-variant:normal;font-weight:bold;font-stretch:normal;font-size:160px;line-height:125%;font-family:Comfortaa;-inkscape-font-specification:'Comfortaa, Bold';text-align:start;letter-spacing:0px;word-spacing:0px;writing-mode:lr-tb;text-anchor:start;fill:#ffffff;fill-opacity:1;stroke:none;stroke-width:1px;stroke-linecap:butt;stroke-linejoin:miter;stroke-opacity:1"
       d="m 104.66547,283.04633 q -5.46875,0 -7.57813,-5.23438 L 55.13422,170.54633 q -0.9375,-2.42187 -0.9375,-4.21875 0,-1.71875 0.625,-3.20312 0.625,-1.5625 1.71875,-2.65625 1.17187,-1.17188 2.65625,-1.79688 1.48437,-0.625 3.28125,-0.625 5.46875,0 7.65625,4.92188 l 34.53125,88.82812 34.53125,-88.82812 q 1.875,-4.92188 7.65625,-4.92188 1.71875,0 3.20312,0.625 1.5625,0.625 2.65625,1.79688 1.17188,1.09375 1.79688,2.65625 0.625,1.48437 0.625,3.20312 0,2.03125 -0.9375,4.21875 l -41.95313,107.26562 q -2.10937,5.23438 -7.57812,5.23438 z" />
    <path
       inkscape:connector-curvature="0"
       id="path16490"
       style="font-style:normal;font-variant:normal;font-weight:bold;font-stretch:normal;font-size:160px;line-height:125%;font-family:Comfortaa;-inkscape-font-specification:'Comfortaa, Bold';text-align:start;letter-spacing:0px;word-spacing:0px;writing-mode:lr-tb;text-anchor:start;fill:#ffffff;fill-opacity:1;stroke:none;stroke-width:1px;stroke-linecap:butt;stroke-linejoin:miter;stroke-opacity:1"
       d="m 189.04047,179.99946 q 0,3.98437 -2.8125,6.79687 -2.8125,2.8125 -6.79688,2.8125 -3.98437,0 -6.79687,-2.8125 -2.8125,-2.8125 -2.8125,-6.79687 0,-3.98438 2.8125,-6.79688 2.8125,-2.8125 6.79687,-2.8125 3.98438,0 6.79688,2.8125 2.8125,2.8125 2.8125,6.79688 z m -17.73438,94.84374 0,-71.09374 q 0,-3.4375 2.34375,-5.78125 2.42188,-2.42188 5.78125,-2.42188 3.35938,0 5.70313,2.42188 2.42187,2.34375 2.5,5.78125 l 0,71.09374 q -0.0781,3.4375 -2.5,5.85938 -2.34375,2.34375 -5.70313,2.34375 -3.35937,0 -5.78125,-2.34375 -2.34375,-2.42188 -2.34375,-5.85938 z" />
    <path
       inkscape:connector-curvature="0"
       id="path16492"
       style="font-style:normal;font-variant:normal;font-weight:bold;font-stretch:normal;font-size:160px;line-height:125%;font-family:Comfortaa;-inkscape-font-specification:'Comfortaa, Bold';text-align:start;letter-spacing:0px;word-spacing:0px;writing-mode:lr-tb;text-anchor:start;fill:#ffffff;fill-opacity:1;stroke:none;stroke-width:1px;stroke-linecap:butt;stroke-linejoin:miter;stroke-opacity:1"
       d="m 220.36859,241.4057 q -7.34375,-2.8125 -10.3125,-5.78125 l 0.0781,0 q -5.9375,-6.01562 -5.9375,-14.14062 0,-5.9375 3.125,-10.70312 3.20312,-4.84375 8.28125,-8.20313 5.07812,-3.35937 11.40625,-5.15625 6.40625,-1.875 12.8125,-1.875 19.53125,0 33.51562,15.70313 1.64063,2.03125 1.64063,4.92187 0,3.51563 -2.34375,5.85938 -2.26563,2.26562 -5.78125,2.26562 -2.5,0 -4.29688,-1.40625 -1.71875,-1.40625 -3.35937,-3.04687 -7.96875,-7.96875 -19.375,-7.96875 -11.25,0 -17.96875,6.875 -1.25,1.25 -1.25,3.4375 0,2.18749 2.03125,2.96874 l 36.5625,12.03125 q 7.65625,2.96875 10.3125,5.78125 l -0.0781,0 q 5.9375,6.01563 5.9375,14.14063 0,6.01562 -3.20312,10.78125 -3.125,4.76562 -8.20313,8.20312 -5.07812,3.35938 -11.40625,5.15625 -6.32812,1.79688 -12.73437,1.79688 -19.6875,0 -33.51563,-15.54688 -1.71875,-2.26562 -1.71875,-5.07812 0,-3.51563 2.26563,-5.78125 2.34375,-2.34375 5.85937,-2.34375 2.57813,0 4.375,1.5625 1.79688,1.48437 3.28125,2.89062 7.96875,7.96875 19.45313,7.96875 11.17187,0 17.96875,-7.03125 1.17187,-1.32812 1.17187,-3.20312 0,-2.1875 -2.10937,-3.04688 L 220.36859,241.4057 Z" />
    <path
       inkscape:connector-curvature="0"
       id="path16494"
       style="font-style:normal;font-variant:normal;font-weight:bold;font-stretch:normal;font-size:160px;line-height:125%;font-family:Comfortaa;-inkscape-font-specification:'Comfortaa, Bold';text-align:start;letter-spacing:0px;word-spacing:0px;writing-mode:lr-tb;text-anchor:start;fill:#ffffff;fill-opacity:1;stroke:none;stroke-width:1px;stroke-linecap:butt;stroke-linejoin:miter;stroke-opacity:1"
       d="m 309.35293,179.99946 q 0,3.98437 -2.8125,6.79687 -2.8125,2.8125 -6.7968,2.8125 -3.9844,0 -6.7969,-2.8125 -2.8125,-2.8125 -2.8125,-6.79687 0,-3.98438 2.8125,-6.79688 2.8125,-2.8125 6.7969,-2.8125 3.9843,0 6.7968,2.8125 2.8125,2.8125 2.8125,6.79688 z m -17.7343,94.84374 0,-71.09374 q 0,-3.4375 2.3437,-5.78125 2.4219,-2.42188 5.7813,-2.42188 3.3593,0 5.7031,2.42188 2.4219,2.34375 2.5,5.78125 l 0,71.09374 q -0.078,3.4375 -2.5,5.85938 -2.3438,2.34375 -5.7031,2.34375 -3.3594,0 -5.7813,-2.34375 -2.3437,-2.42188 -2.3437,-5.85938 z" />
    <path
       style="font-style:normal;font-variant:normal;font-weight:bold;font-stretch:normal;font-size:160px;line-height:125%;font-family:Comfortaa;-inkscape-font-specification:'Comfortaa, Bold';text-align:start;letter-spacing:0px;word-spacing:0px;writing-mode:lr-tb;text-anchor:start;fill:#31a354;fill-opacity:1;stroke:none;stroke-width:1px;stroke-linecap:butt;stroke-linejoin:miter;stroke-opacity:1"
       d="m 331.75781,158.76953 a 0.95805168,0.95805168 0 0 0 -0.95898,0.95703 0.95805168,0.95805168 0 0 0 0.95898,0.95899 0.95805168,0.95805168 0 0 0 0.95703,-0.95899 0.95805168,0.95805168 0 0 0 -0.95703,-0.95703 z m 2.8086,0.15625 a 0.44531307,0.44531307 0 0 0 -0.41211,0.44531 0.44531307,0.44531307 0 0 0 0.44531,0.44532 0.44531307,0.44531307 0 0 0 0.44531,-0.44532 0.44531307,0.44531307 0 0 0 -0.44531,-0.44531 0.44531307,0.44531307 0 0 0 -0.0332,0 z m -6.11719,0.32422 c -0.51062,0.31901 -0.99271,0.69388 -1.43945,1.14062 -0.28149,0.2815 -0.52879,0.58215 -0.75782,0.89258 a 1.6525514,1.6525514 0 0 0 1.57227,1.14844 1.6525514,1.6525514 0 0 0 1.65234,-1.65234 1.6525514,1.6525514 0 0 0 -1.02734,-1.5293 z m 10.37305,1.31836 a 24.274378,24.274378 0 0 0 -14.07813,6.26953 l 0,35.78906 a 24.274378,24.274378 0 0 0 16.36133,6.37696 24.274378,24.274378 0 0 0 21.54492,-13.10743 c -8.09876,0.99339 -15.29113,4.10576 -21.57812,9.3379 l 0,-39.0625 c 0,-2.25487 -0.75555,-4.11998 -2.25,-5.60352 z M 325.41016,162.75 c -0.2599,0.60492 -0.44486,1.25154 -0.55078,1.94141 a 1.2595357,1.2595357 0 0 0 0.8125,-1.17579 1.2595357,1.2595357 0 0 0 -0.26172,-0.76562 z m 43.08398,32.79688 c -0.34125,0 -0.67728,0.0127 -1.01562,0.0195 a 4.6063542,4.6063542 0 0 0 3.77734,1.97265 4.6063542,4.6063542 0 0 0 3.46875,-1.58203 c -2.02494,-0.27014 -4.10011,-0.41015 -6.23047,-0.41015 z m 8.31641,0.95898 a 1.3632276,1.3632276 0 0 0 -1.36328,1.36328 1.3632276,1.3632276 0 0 0 1.36328,1.36328 1.3632276,1.3632276 0 0 0 1.36328,-1.36328 1.3632276,1.3632276 0 0 0 -1.36328,-1.36328 z m -8.25586,1.93945 a 0.77496904,0.77496904 0 0 0 -0.77344,0.77539 0.77496904,0.77496904 0 0 0 0.77344,0.77344 0.77496904,0.77496904 0 0 0 0.77539,-0.77344 0.77496904,0.77496904 0 0 0 -0.77539,-0.77539 z m 4.23242,0.41797 a 2.5123148,2.5123148 0 0 0 -2.51367,2.51172 2.5123148,2.5123148 0 0 0 2.51367,2.51172 2.5123148,2.5123148 0 0 0 2.51172,-2.51172 2.5123148,2.5123148 0 0 0 -2.51172,-2.51172 z m 6.87891,0.0723 a 0.37635824,0.37635824 0 0 0 -0.37696,0.37695 0.37635824,0.37635824 0 0 0 0.37696,0.37695 0.37635824,0.37635824 0 0 0 0.37695,-0.37695 0.37635824,0.37635824 0 0 0 -0.37695,-0.37695 z m 2.28125,0.76757 a 0.68575734,0.68575734 0 0 0 -0.68555,0.68555 0.68575734,0.68575734 0 0 0 0.68555,0.68555 0.68575734,0.68575734 0 0 0 0.6875,-0.68555 0.68575734,0.68575734 0 0 0 -0.6875,-0.68555 z m 4.81054,0.72266 a 1.2019919,1.2019919 0 0 0 -1.20312,1.20117 1.2019919,1.2019919 0 0 0 1.20312,1.20313 1.2019919,1.2019919 0 0 0 1.20117,-1.20313 1.2019919,1.2019919 0 0 0 -1.20117,-1.20117 z m 2.70313,0.38867 a 5.8586302,5.8586302 0 0 0 3.125,1.90821 c -1.02117,-0.68816 -2.06519,-1.31906 -3.125,-1.90821 z m -10.79883,0.20703 a 2.1789811,2.1789811 0 0 0 -2.17969,2.17969 2.1789811,2.1789811 0 0 0 2.17969,2.17774 2.1789811,2.1789811 0 0 0 2.17773,-2.17774 2.1789811,2.1789811 0 0 0 -2.17773,-2.17969 z m -10.13281,0.4336 a 0.3010866,0.3010866 0 0 0 -0.30078,0.30078 0.3010866,0.3010866 0 0 0 0.30078,0.30273 0.3010866,0.3010866 0 0 0 0.30078,-0.30273 0.3010866,0.3010866 0 0 0 -0.30078,-0.30078 z m 15.20508,0.35547 a 0.41909483,0.41909483 0 0 0 -0.41797,0.41992 0.41909483,0.41909483 0 0 0 0.41797,0.41797 0.41909483,0.41909483 0 0 0 0.41992,-0.41797 0.41909483,0.41909483 0 0 0 -0.41992,-0.41992 z M 369.25977,203.75 a 0.71804577,0.71804577 0 0 0 -0.71875,0.7168 0.71804577,0.71804577 0 0 0 0.71875,0.71875 0.71804577,0.71804577 0 0 0 0.71679,-0.71875 0.71804577,0.71804577 0 0 0 -0.71679,-0.7168 z m 22.09961,0.19727 a 1.1290748,1.1290748 0 0 0 -1.12891,1.1289 1.1290748,1.1290748 0 0 0 1.12891,1.12891 1.1290748,1.1290748 0 0 0 1.1289,-1.12891 1.1290748,1.1290748 0 0 0 -1.1289,-1.1289 z m -6.55079,0.0703 a 4.4645672,4.4645672 0 0 0 -4.46484,4.46484 4.4645672,4.4645672 0 0 0 4.46484,4.46485 4.4645672,4.4645672 0 0 0 4.46289,-4.46485 4.4645672,4.4645672 0 0 0 -4.46289,-4.46484 z m 10.66602,0.83594 a 20.689163,20.689163 0 0 0 -7.92578,16.2539 20.689163,20.689163 0 0 0 20.68945,20.68946 20.689163,20.689163 0 0 0 3.95899,-0.38868 c 0.0291,-0.6983 0.0469,-1.40026 0.0469,-2.11132 0,-6.04167 -1.06762,-11.64063 -3.20312,-16.79688 -2.1354,-5.20833 -5.33858,-9.92188 -9.60938,-14.14062 -1.28111,-1.26567 -2.60273,-2.42774 -3.95703,-3.50586 z m -37.94336,0.19726 a 1.8847996,1.8847996 0 0 0 -1.88477,1.88477 1.8847996,1.8847996 0 0 0 1.88477,1.88476 1.8847996,1.8847996 0 0 0 1.88477,-1.88476 1.8847996,1.8847996 0 0 0 -1.88477,-1.88477 z m 16.0625,0.26367 a 5.5364332,5.5364332 0 0 0 -5.53711,5.53516 5.5364332,5.5364332 0 0 0 5.53711,5.53711 5.5364332,5.5364332 0 0 0 5.53516,-5.53711 5.5364332,5.5364332 0 0 0 -5.53516,-5.53516 z m -11.91992,0.23047 a 0.83480299,0.83480299 0 0 0 -0.83399,0.83399 0.83480299,0.83480299 0 0 0 0.83399,0.83398 0.83480299,0.83480299 0 0 0 0.83398,-0.83398 0.83480299,0.83480299 0 0 0 -0.83398,-0.83399 z m 3.23437,0.14063 a 0.94913942,0.94913942 0 0 0 -0.94922,0.94922 0.94913942,0.94913942 0 0 0 0.94922,0.94921 0.94913942,0.94913942 0 0 0 0.94922,-0.94921 0.94913942,0.94913942 0 0 0 -0.94922,-0.94922 z m -39.11718,0.40234 a 3.2489114,3.2489114 0 0 0 -1.04688,0.17773 l 0,6.14258 a 3.2489114,3.2489114 0 0 0 1.04688,0.17774 3.2489114,3.2489114 0 0 0 3.25,-3.24805 3.2489114,3.2489114 0 0 0 -3.25,-3.25 z m 42.15625,0.16602 a 0.16831253,0.16831253 0 0 0 -0.15625,0.16797 0.16831253,0.16831253 0 0 0 0.16796,0.16796 0.16831253,0.16831253 0 0 0 0.16797,-0.16796 0.16831253,0.16831253 0 0 0 -0.16797,-0.16797 0.16831253,0.16831253 0 0 0 -0.0117,0 z m -0.87305,1.56445 a 0.13037431,0.13037431 0 0 0 -0.1211,0.12891 0.13037431,0.13037431 0 0 0 0.13086,0.13085 0.13037431,0.13037431 0 0 0 0.12891,-0.13085 0.13037431,0.13037431 0 0 0 -0.12891,-0.12891 0.13037431,0.13037431 0 0 0 -0.01,0 z m -4.73828,0.77539 a 0.45162991,0.45162991 0 0 0 -0.45313,0.45117 0.45162991,0.45162991 0 0 0 0.45313,0.45117 0.45162991,0.45162991 0 0 0 0.45117,-0.45117 0.45162991,0.45162991 0 0 0 -0.45117,-0.45117 z m 2.29492,0.4375 a 0.41909483,0.41909483 0 0 0 -0.41797,0.41992 0.41909483,0.41909483 0 0 0 0.41797,0.41797 0.41909483,0.41909483 0 0 0 0.41992,-0.41797 0.41909483,0.41909483 0 0 0 -0.41992,-0.41992 z m -4.64844,0.35547 a 0.57325178,0.57325178 0 0 0 -0.53125,0.57226 0.57325178,0.57325178 0 0 0 0.57227,0.57422 0.57325178,0.57325178 0 0 0 0.57422,-0.57422 0.57325178,0.57325178 0 0 0 -0.57422,-0.57226 0.57325178,0.57325178 0 0 0 -0.041,0 z m -24.72851,0.42969 a 0.96688181,0.96688181 0 0 0 -0.9668,0.96679 0.96688181,0.96688181 0 0 0 0.9668,0.9668 0.96688181,0.96688181 0 0 0 0.96679,-0.9668 0.96688181,0.96688181 0 0 0 -0.96679,-0.96679 z m 21.01367,0.22851 a 0.10645019,0.10645019 0 0 0 -0.0977,0.10742 0.10645019,0.10645019 0 0 0 0.10547,0.10547 0.10645019,0.10645019 0 0 0 0.10742,-0.10547 0.10645019,0.10645019 0 0 0 -0.10742,-0.10742 0.10645019,0.10645019 0 0 0 -0.008,0 z m -1.66992,0.28516 a 0.13037431,0.13037431 0 0 0 -0.1211,0.13086 0.13037431,0.13037431 0 0 0 0.13086,0.13086 0.13037431,0.13037431 0 0 0 0.12891,-0.13086 0.13037431,0.13037431 0 0 0 -0.12891,-0.13086 0.13037431,0.13037431 0 0 0 -0.01,0 z m 11.63086,0.30078 a 0.34493804,0.34493804 0 0 0 -0.32227,0.34375 0.34493804,0.34493804 0 0 0 0.3457,0.3457 0.34493804,0.34493804 0 0 0 0.34571,-0.3457 0.34493804,0.34493804 0 0 0 -0.34571,-0.34375 0.34493804,0.34493804 0 0 0 -0.0234,0 z m -21.24024,0.17969 a 3.0888903,3.0888903 0 0 0 -3.08789,3.08984 3.0888903,3.0888903 0 0 0 3.08789,3.08789 3.0888903,3.0888903 0 0 0 3.08984,-3.08789 3.0888903,3.0888903 0 0 0 -3.08984,-3.08984 z m 12.99805,0.0957 a 0.36875427,0.36875427 0 0 0 -0.3418,0.36914 0.36875427,0.36875427 0 0 0 0.36914,0.36719 0.36875427,0.36875427 0 0 0 0.36719,-0.36719 0.36875427,0.36875427 0 0 0 -0.36719,-0.36914 0.36875427,0.36875427 0 0 0 -0.0273,0 z m 4.86328,0.0195 a 2.2417812,2.2417812 0 0 0 -2.24219,2.24219 2.2417812,2.2417812 0 0 0 2.24219,2.24219 2.2417812,2.2417812 0 0 0 2.24219,-2.24219 2.2417812,2.2417812 0 0 0 -2.24219,-2.24219 z m -30.43164,0.0762 a 0.49929559,0.49929559 0 0 0 -0.5,0.5 0.49929559,0.49929559 0 0 0 0.5,0.5 0.49929559,0.49929559 0 0 0 0.49805,-0.5 0.49929559,0.49929559 0 0 0 -0.49805,-0.5 z m 20.67969,0.2168 a 0.16831253,0.16831253 0 0 0 -0.15625,0.16797 0.16831253,0.16831253 0 0 0 0.16992,0.16797 0.16831253,0.16831253 0 0 0 0.16797,-0.16797 0.16831253,0.16831253 0 0 0 -0.16797,-0.16797 0.16831253,0.16831253 0 0 0 -0.0137,0 z m 2.73046,0.45117 a 0.5531314,0.5531314 0 0 0 -0.55468,0.55469 0.5531314,0.5531314 0 0 0 0.55468,0.55273 0.5531314,0.5531314 0 0 0 0.55274,-0.55273 0.5531314,0.5531314 0 0 0 -0.55274,-0.55469 z m -18.1621,0.0352 a 0.29152584,0.29152584 0 0 0 -0.26954,0.29101 0.29152584,0.29152584 0 0 0 0.29102,0.29102 0.29152584,0.29152584 0 0 0 0.29102,-0.29102 0.29152584,0.29152584 0 0 0 -0.29102,-0.29101 0.29152584,0.29152584 0 0 0 -0.0215,0 z m -7.57032,0.2168 a 0.50493759,0.50493759 0 0 0 -0.46875,0.5039 0.50493759,0.50493759 0 0 0 0.50586,0.50586 0.50493759,0.50493759 0 0 0 0.50391,-0.50586 0.50493759,0.50493759 0 0 0 -0.50391,-0.5039 0.50493759,0.50493759 0 0 0 -0.0371,0 z m 9.82813,0.26562 a 0.62976784,0.62976784 0 0 0 -0.63086,0.63086 0.62976784,0.62976784 0 0 0 0.63086,0.62891 0.62976784,0.62976784 0 0 0 0.6289,-0.62891 0.62976784,0.62976784 0 0 0 -0.6289,-0.63086 z m 12.01367,0.51172 a 0.6980406,0.6980406 0 0 0 -0.69727,0.69726 0.6980406,0.6980406 0 0 0 0.69727,0.69922 0.6980406,0.6980406 0 0 0 0.69922,-0.69922 0.6980406,0.6980406 0 0 0 -0.69922,-0.69726 z m 6.26953,0.39844 a 1.0402749,1.0402749 0 0 0 -1.03906,1.04101 1.0402749,1.0402749 0 0 0 1.03906,1.03906 1.0402749,1.0402749 0 0 0 1.04102,-1.03906 1.0402749,1.0402749 0 0 0 -1.04102,-1.04101 z m -23.5957,0.0898 a 6.9706588,6.9706588 0 0 0 -6.97071,6.9707 6.9706588,6.9706588 0 0 0 6.97071,6.97071 6.9706588,6.9706588 0 0 0 6.9707,-6.97071 6.9706588,6.9706588 0 0 0 -6.9707,-6.9707 z m 19.55273,0.23242 a 0.07527165,0.07527165 0 0 0 -0.0684,0.0762 0.07527165,0.07527165 0 0 0 0.0742,0.0742 0.07527165,0.07527165 0 0 0 0.0762,-0.0742 0.07527165,0.07527165 0 0 0 -0.0762,-0.0762 0.07527165,0.07527165 0 0 0 -0.006,0 z m -25.96289,0.0352 a 0.49358922,0.49358922 0 0 0 -0.49414,0.49414 0.49358922,0.49358922 0 0 0 0.49414,0.49414 0.49358922,0.49358922 0 0 0 0.49219,-0.49414 0.49358922,0.49358922 0 0 0 -0.49219,-0.49414 z m 21.47656,0.31445 a 0.1505433,0.1505433 0 0 0 -0.13867,0.15039 0.1505433,0.1505433 0 0 0 0.15039,0.15039 0.1505433,0.1505433 0 0 0 0.15039,-0.15039 0.1505433,0.1505433 0 0 0 -0.15039,-0.15039 0.1505433,0.1505433 0 0 0 -0.0117,0 z m -24.93359,0.22656 0,1.48633 a 0.91880757,0.91880757 0 0 0 0.38086,-0.74414 0.91880757,0.91880757 0 0 0 -0.38086,-0.74219 z m 30.63281,0.63868 a 0.49929559,0.49929559 0 0 0 -0.49804,0.5 0.49929559,0.49929559 0 0 0 0.49804,0.49804 0.49929559,0.49929559 0 0 0 0.5,-0.49804 0.49929559,0.49929559 0 0 0 -0.5,-0.5 z m 30.90625,0.20703 a 0.51051718,0.51051718 0 0 0 -0.47265,0.50976 0.51051718,0.51051718 0 0 0 0.50976,0.50977 0.51051718,0.51051718 0 0 0 0.50977,-0.50977 0.51051718,0.51051718 0 0 0 -0.50977,-0.50976 0.51051718,0.51051718 0 0 0 -0.0371,0 z m -19.72656,0.0898 a 0.81070054,0.81070054 0 0 0 -0.81055,0.81055 0.81070054,0.81070054 0 0 0 0.81055,0.81054 0.81070054,0.81070054 0 0 0 0.81055,-0.81054 0.81070054,0.81070054 0 0 0 -0.81055,-0.81055 z m 14.67774,0.13086 a 4.8775797,4.8775797 0 0 0 -4.87696,4.87695 4.8775797,4.8775797 0 0 0 4.87696,4.87696 4.8775797,4.8775797 0 0 0 4.8789,-4.87696 4.8775797,4.8775797 0 0 0 -4.8789,-4.87695 z m -30.50391,0.25781 a 1.0538031,1.0538031 0 0 0 -1.05469,1.05274 1.0538031,1.0538031 0 0 0 1.05469,1.05468 1.0538031,1.0538031 0 0 0 1.05273,-1.05468 1.0538031,1.0538031 0 0 0 -1.05273,-1.05274 z m -23.70899,0.24805 a 0.29152584,0.29152584 0 0 0 -0.29101,0.29297 0.29152584,0.29152584 0 0 0 0.29101,0.29101 0.29152584,0.29152584 0 0 0 0.29102,-0.29101 0.29152584,0.29152584 0 0 0 -0.29102,-0.29297 z m 26.38868,0.28906 a 0.19915007,0.19915007 0 0 0 -0.1836,0.19922 0.19915007,0.19915007 0 0 0 0.19922,0.19922 0.19915007,0.19915007 0 0 0 0.19922,-0.19922 0.19915007,0.19915007 0 0 0 -0.19922,-0.19922 0.19915007,0.19915007 0 0 0 -0.0156,0 z m 15.77734,0.61328 a 0.7413398,0.7413398 0 0 0 -0.74219,0.74219 0.7413398,0.7413398 0 0 0 0.74219,0.74023 0.7413398,0.7413398 0 0 0 0.74023,-0.74023 0.7413398,0.7413398 0 0 0 -0.74023,-0.74219 z m -9.625,0.11719 a 15.598131,15.598131 0 0 0 -15.59766,15.59766 15.598131,15.598131 0 0 0 15.59766,15.59961 15.598131,15.598131 0 0 0 15.59961,-15.59961 15.598131,15.598131 0 0 0 -15.59961,-15.59766 z m -34.36719,0.39063 a 1.1925272,1.1925272 0 0 0 -0.45117,0.0879 l 0,2.20898 a 1.1925272,1.1925272 0 0 0 0.45117,0.0879 1.1925272,1.1925272 0 0 0 1.19141,-1.19336 1.1925272,1.1925272 0 0 0 -1.19141,-1.1914 z m 23.18164,0.85546 a 0.63870114,0.63870114 0 0 0 -0.63867,0.63868 0.63870114,0.63870114 0 0 0 0.63867,0.63867 0.63870114,0.63870114 0 0 0 0.63867,-0.63867 0.63870114,0.63870114 0 0 0 -0.63867,-0.63868 z m 23.33789,0.26563 a 0.8842417,0.8842417 0 0 0 -0.88476,0.88477 0.8842417,0.8842417 0 0 0 0.88476,0.88281 0.8842417,0.8842417 0 0 0 0.88282,-0.88281 0.8842417,0.8842417 0 0 0 -0.88282,-0.88477 z m -26.83398,0.34961 a 1.8391562,1.8391562 0 0 0 -1.83789,1.83789 1.8391562,1.8391562 0 0 0 1.83789,1.83984 1.8391562,1.8391562 0 0 0 1.83984,-1.83984 1.8391562,1.8391562 0 0 0 -1.83984,-1.83789 z m -19.55664,2.37305 a 1.0042491,1.0042491 0 0 0 -0.58008,0.18554 l 0,1.63672 a 1.0042491,1.0042491 0 0 0 0.58008,0.18555 1.0042491,1.0042491 0 0 0 1.0039,-1.00391 1.0042491,1.0042491 0 0 0 -1.0039,-1.0039 z m 47.82226,0.0957 a 0.36099017,0.36099017 0 0 0 -0.36132,0.36133 0.36099017,0.36099017 0 0 0 0.36132,0.36132 0.36099017,0.36099017 0 0 0 0.36133,-0.36132 0.36099017,0.36099017 0 0 0 -0.36133,-0.36133 z m 1.76758,1.48047 a 0.75271648,0.75271648 0 0 0 -0.7539,0.7539 0.75271648,0.75271648 0 0 0 0.7539,0.75196 0.75271648,0.75271648 0 0 0 0.75196,-0.75196 0.75271648,0.75271648 0 0 0 -0.75196,-0.7539 z m -30.5664,1.15234 a 0.28164074,0.28164074 0 0 0 -0.26172,0.28125 0.28164074,0.28164074 0 0 0 0.28125,0.28125 0.28164074,0.28164074 0 0 0 0.28125,-0.28125 0.28164074,0.28164074 0 0 0 -0.28125,-0.28125 0.28164074,0.28164074 0 0 0 -0.0195,0 z m -17.65625,0.42578 a 0.67325014,0.67325014 0 0 0 -0.67383,0.67383 0.67325014,0.67325014 0 0 0 0.67383,0.67383 0.67325014,0.67325014 0 0 0 0.67382,-0.67383 0.67325014,0.67325014 0 0 0 -0.67382,-0.67383 z m 48.83398,1.31055 a 0.23802985,0.23802985 0 0 0 -0.23633,0.23828 0.23802985,0.23802985 0 0 0 0.23633,0.23828 0.23802985,0.23802985 0 0 0 0.23828,-0.23828 0.23802985,0.23802985 0 0 0 -0.23828,-0.23828 z m -31.76367,0.18555 a 0.07527165,0.07527165 0 0 0 -0.0703,0.0762 0.07527165,0.07527165 0 0 0 0.0762,0.0742 0.07527165,0.07527165 0 0 0 0.0742,-0.0742 0.07527165,0.07527165 0 0 0 -0.0742,-0.0762 0.07527165,0.07527165 0 0 0 -0.006,0 z m -19.01758,0.22851 0,0.11524 a 1.1011293,1.1011293 0 0 0 0.002,-0.0781 1.1011293,1.1011293 0 0 0 -0.002,-0.0371 z m 56.23047,0.57227 a 1.7907695,1.7907695 0 0 0 -1.79102,1.79101 1.7907695,1.7907695 0 0 0 1.79102,1.79102 1.7907695,1.7907695 0 0 0 1.79101,-1.79102 1.7907695,1.7907695 0 0 0 -1.79101,-1.79101 z m -52.28906,0.0937 a 0.57817245,0.57817245 0 0 0 -0.57813,0.57812 0.57817245,0.57817245 0 0 0 0.57813,0.57813 0.57817245,0.57817245 0 0 0 0.57812,-0.57813 0.57817245,0.57817245 0 0 0 -0.57812,-0.57812 z m 14.12109,0.46289 a 0.41227981,0.41227981 0 0 0 -0.41211,0.41211 0.41227981,0.41227981 0 0 0 0.41211,0.41211 0.41227981,0.41227981 0 0 0 0.41211,-0.41211 0.41227981,0.41227981 0 0 0 -0.41211,-0.41211 z m 33.86328,0.0976 a 0.65620297,0.65620297 0 0 0 -0.65625,0.65625 0.65620297,0.65620297 0 0 0 0.65625,0.65625 0.65620297,0.65620297 0 0 0 0.65625,-0.65625 0.65620297,0.65620297 0 0 0 -0.65625,-0.65625 z m -50.07226,0.79297 a 0.31935057,0.31935057 0 0 0 -0.32032,0.32032 0.31935057,0.31935057 0 0 0 0.32032,0.31836 0.31935057,0.31935057 0 0 0 0.31836,-0.31836 0.31935057,0.31935057 0 0 0 -0.31836,-0.32032 z m -1.85352,0.70899 0,1.13476 a 0.75271648,0.75271648 0 0 0 0.25977,-0.56836 0.75271648,0.75271648 0 0 0 -0.25977,-0.5664 z m 7.61914,0.0312 a 11.130792,11.130792 0 0 0 -7.61914,3.03711 l 0,7.79883 c 0,3.17419 0.30315,6.22255 0.89258,9.15234 a 11.130792,11.130792 0 0 0 6.72656,2.27344 11.130792,11.130792 0 0 0 11.13086,-11.13086 11.130792,11.130792 0 0 0 -11.13086,-11.13086 z m 54.04688,0.45508 a 1.6301135,1.6301135 0 0 0 -1.62891,1.6289 1.6301135,1.6301135 0 0 0 1.62891,1.63086 1.6301135,1.6301135 0 0 0 1.63086,-1.63086 1.6301135,1.6301135 0 0 0 -1.63086,-1.6289 z m -8.86524,0.66015 a 0.99575037,0.99575037 0 0 0 -0.99609,0.99414 0.99575037,0.99575037 0 0 0 0.99609,0.9961 0.99575037,0.99575037 0 0 0 0.9961,-0.9961 0.99575037,0.99575037 0 0 0 -0.9961,-0.99414 z m 5.02539,1.42969 a 1.0265684,1.0265684 0 0 0 -1.02539,1.02734 1.0265684,1.0265684 0 0 0 1.02539,1.02735 1.0265684,1.0265684 0 0 0 1.02735,-1.02735 1.0265684,1.0265684 0 0 0 -1.02735,-1.02734 z m -3.71679,1.8457 a 2.4873836,2.4873836 0 0 0 -2.48829,2.48828 2.4873836,2.4873836 0 0 0 2.48829,2.48633 2.4873836,2.4873836 0 0 0 2.48828,-2.48633 2.4873836,2.4873836 0 0 0 -2.48828,-2.48828 z m 7.8164,0.77735 a 0.83480299,0.83480299 0 0 0 -0.83594,0.83398 0.83480299,0.83480299 0 0 0 0.83594,0.83399 0.83480299,0.83480299 0 0 0 0.83399,-0.83399 0.83480299,0.83480299 0 0 0 -0.83399,-0.83398 z m -3.6914,0.85937 a 0.23802985,0.23802985 0 0 0 -0.22266,0.23633 0.23802985,0.23802985 0 0 0 0.23828,0.23828 0.23802985,0.23802985 0 0 0 0.23828,-0.23828 0.23802985,0.23802985 0 0 0 -0.23828,-0.23633 0.23802985,0.23802985 0 0 0 -0.0156,0 z m 1.41796,1.69336 a 2.4748237,2.4748237 0 0 0 -2.4746,2.47461 2.4748237,2.4748237 0 0 0 2.4746,2.47461 2.4748237,2.4748237 0 0 0 2.47461,-2.47461 2.4748237,2.4748237 0 0 0 -2.47461,-2.47461 z m 3.94922,0.0137 a 0.48197374,0.48197374 0 0 0 -0.48242,0.48242 0.48197374,0.48197374 0 0 0 0.48242,0.48243 0.48197374,0.48197374 0 0 0 0.48242,-0.48243 0.48197374,0.48197374 0 0 0 -0.48242,-0.48242 z m 0.5,2.37305 a 0.53754711,0.53754711 0 0 0 -0.53711,0.53906 0.53754711,0.53754711 0 0 0 0.53711,0.53711 0.53754711,0.53754711 0 0 0 0.53907,-0.53711 0.53754711,0.53754711 0 0 0 -0.53907,-0.53906 z m -11.13672,0.64062 a 4.3625102,4.3625102 0 0 0 -4.36132,4.36133 4.3625102,4.3625102 0 0 0 4.36132,4.36328 4.3625102,4.3625102 0 0 0 4.36329,-4.36328 4.3625102,4.3625102 0 0 0 -4.36329,-4.36133 z m 10.24024,1.74414 a 0.7336573,0.7336573 0 0 0 -0.73438,0.73438 0.7336573,0.7336573 0 0 0 0.73438,0.73242 0.7336573,0.7336573 0 0 0 0.73242,-0.73242 0.7336573,0.7336573 0 0 0 -0.73242,-0.73438 z m -3.74219,1.63477 a 0.6816138,0.6816138 0 0 0 -0.68164,0.68164 0.6816138,0.6816138 0 0 0 0.68164,0.68164 0.6816138,0.6816138 0 0 0 0.68164,-0.68164 0.6816138,0.6816138 0 0 0 -0.68164,-0.68164 z m 2.78711,1.14844 a 1.0126765,1.0126765 0 0 0 -1.01172,1.01172 1.0126765,1.0126765 0 0 0 1.01172,1.01367 1.0126765,1.0126765 0 0 0 1.01367,-1.01367 1.0126765,1.0126765 0 0 0 -1.01367,-1.01172 z m -40.69531,0.32422 a 1.9027506,1.9027506 0 0 0 -1.90235,1.90234 1.9027506,1.9027506 0 0 0 1.90235,1.9043 1.9027506,1.9027506 0 0 0 1.90234,-1.9043 1.9027506,1.9027506 0 0 0 -1.90234,-1.90234 z m 37.08203,1.20312 a 0.1505433,0.1505433 0 0 0 -0.14063,0.15039 0.1505433,0.1505433 0 0 0 0.15235,0.15039 0.1505433,0.1505433 0 0 0 0.15039,-0.15039 0.1505433,0.1505433 0 0 0 -0.15039,-0.15039 0.1505433,0.1505433 0 0 0 -0.0117,0 z m -0.32422,1.73438 a 0.57325178,0.57325178 0 0 0 -0.57422,0.57422 0.57325178,0.57325178 0 0 0 0.57422,0.57226 0.57325178,0.57325178 0 0 0 0.57227,-0.57226 0.57325178,0.57325178 0 0 0 -0.57227,-0.57422 z m 5.01758,0.0137 a 0.62525326,0.62525326 0 0 0 -0.58008,0.625 0.62525326,0.62525326 0 0 0 0.625,0.625 0.62525326,0.62525326 0 0 0 0.625,-0.625 0.62525326,0.62525326 0 0 0 -0.625,-0.625 0.62525326,0.62525326 0 0 0 -0.0449,0 z m -36.57031,0.22851 a 0.10645019,0.10645019 0 0 0 -0.0996,0.10547 0.10645019,0.10645019 0 0 0 0.10742,0.10742 0.10645019,0.10645019 0 0 0 0.10547,-0.10742 0.10645019,0.10645019 0 0 0 -0.10547,-0.10547 0.10645019,0.10645019 0 0 0 -0.008,0 z m 40.27539,0.16602 a 1.9642872,1.9642872 0 0 0 -1.96485,1.96484 1.9642872,1.9642872 0 0 0 1.96485,1.96485 1.9642872,1.9642872 0 0 0 1.96289,-1.96485 1.9642872,1.9642872 0 0 0 -1.96289,-1.96484 z m -42.2461,0.27539 a 0.63870114,0.63870114 0 0 0 -0.63867,0.63867 0.63870114,0.63870114 0 0 0 0.63867,0.63867 0.63870114,0.63870114 0 0 0 0.63868,-0.63867 0.63870114,0.63870114 0 0 0 -0.63868,-0.63867 z m 36.01368,0.29297 a 0.6816138,0.6816138 0 0 0 -0.68165,0.68164 0.6816138,0.6816138 0 0 0 0.68165,0.68164 0.6816138,0.6816138 0 0 0 0.68164,-0.68164 0.6816138,0.6816138 0 0 0 -0.68164,-0.68164 z m -42.48047,0.75977 a 5.7364702,5.7364702 0 0 0 -5.73633,5.73632 5.7364702,5.7364702 0 0 0 5.73633,5.73633 5.7364702,5.7364702 0 0 0 5.73632,-5.73633 5.7364702,5.7364702 0 0 0 -5.73632,-5.73632 z m 18.76562,0.36718 a 0.99859118,0.99859118 0 0 0 -0.99805,1 0.99859118,0.99859118 0 0 0 0.99805,0.99805 0.99859118,0.99859118 0 0 0 0.99805,-0.99805 0.99859118,0.99859118 0 0 0 -0.99805,-1 z m 18.35352,0.0586 a 7.44771,7.44771 0 0 0 -7.44727,7.44922 7.44771,7.44771 0 0 0 7.44727,7.44726 7.44771,7.44771 0 0 0 7.44726,-7.44726 7.44771,7.44771 0 0 0 -7.44726,-7.44922 z m -23.5,0.0937 a 0.31935057,0.31935057 0 0 0 -0.29688,0.31836 0.31935057,0.31935057 0 0 0 0.31836,0.32031 0.31935057,0.31935057 0 0 0 0.32031,-0.32031 0.31935057,0.31935057 0 0 0 -0.32031,-0.31836 0.31935057,0.31935057 0 0 0 -0.0215,0 z m 31.0664,0.53711 a 0.77496904,0.77496904 0 0 0 -0.77539,0.77539 0.77496904,0.77496904 0 0 0 0.77539,0.77539 0.77496904,0.77496904 0 0 0 0.77539,-0.77539 0.77496904,0.77496904 0 0 0 -0.77539,-0.77539 z m -33.98828,0.0215 a 1.8002361,1.8002361 0 0 0 -1.79883,1.79883 1.8002361,1.8002361 0 0 0 1.79883,1.80078 1.8002361,1.8002361 0 0 0 1.80078,-1.80078 1.8002361,1.8002361 0 0 0 -1.80078,-1.79883 z m 5.08789,0.0957 a 0.532251,0.532251 0 0 0 -0.5332,0.53125 0.532251,0.532251 0 0 0 0.5332,0.53321 0.532251,0.532251 0 0 0 0.53125,-0.53321 0.532251,0.532251 0 0 0 -0.53125,-0.53125 z m 45.63477,1.91992 a 10.226147,10.226147 0 0 0 -10.22656,10.22657 10.226147,10.226147 0 0 0 4.71484,8.61133 c 0.15148,-0.14607 0.30656,-0.28299 0.45703,-0.43164 5.0051,-4.94405 8.53122,-10.53793 10.60352,-16.76954 a 10.226147,10.226147 0 0 0 -5.54883,-1.63672 z m -47.0586,0.20118 a 0.57325178,0.57325178 0 0 0 -0.5332,0.57226 0.57325178,0.57325178 0 0 0 0.57422,0.57422 0.57325178,0.57325178 0 0 0 0.57227,-0.57422 0.57325178,0.57325178 0 0 0 -0.57227,-0.57226 0.57325178,0.57325178 0 0 0 -0.041,0 z m 2.74415,0.0547 a 0.67325014,0.67325014 0 0 0 -0.67383,0.67188 0.67325014,0.67325014 0 0 0 0.67383,0.67383 0.67325014,0.67325014 0 0 0 0.67187,-0.67383 0.67325014,0.67325014 0 0 0 -0.67187,-0.67188 z m -26.2168,0.0117 a 1.9249538,1.9249538 0 0 0 -1.92578,1.92578 1.9249538,1.9249538 0 0 0 1.92578,1.92383 1.9249538,1.9249538 0 0 0 1.92383,-1.92383 1.9249538,1.9249538 0 0 0 -1.92383,-1.92578 z m 59.92773,0.24219 a 1.6405076,1.6405076 0 0 0 -1.63867,1.64063 1.6405076,1.6405076 0 0 0 1.63867,1.64062 1.6405076,1.6405076 0 0 0 1.64063,-1.64062 1.6405076,1.6405076 0 0 0 -1.64063,-1.64063 z m -31.01562,0.0391 a 0.56828851,0.56828851 0 0 0 -0.56836,0.56836 0.56828851,0.56828851 0 0 0 0.56836,0.56836 0.56828851,0.56828851 0 0 0 0.56836,-0.56836 0.56828851,0.56828851 0 0 0 -0.56836,-0.56836 z m -12.5293,0.002 a 0.31035295,0.31035295 0 0 0 -0.28906,0.31054 0.31035295,0.31035295 0 0 0 0.31055,0.31055 0.31035295,0.31035295 0 0 0 0.31054,-0.31055 0.31035295,0.31035295 0 0 0 -0.31054,-0.31054 0.31035295,0.31035295 0 0 0 -0.0215,0 z m 38.19531,0.29492 a 0.22581495,0.22581495 0 0 0 -0.22656,0.22656 0.22581495,0.22581495 0 0 0 0.22656,0.22656 0.22581495,0.22581495 0 0 0 0.22461,-0.22656 0.22581495,0.22581495 0 0 0 -0.22461,-0.22656 z m -37.0039,1.45508 a 0.47007132,0.47007132 0 0 0 -0.46875,0.4707 0.47007132,0.47007132 0 0 0 0.46875,0.4707 0.47007132,0.47007132 0 0 0 0.4707,-0.4707 0.47007132,0.47007132 0 0 0 -0.4707,-0.4707 z m 38.4414,0.0391 a 0.98430461,0.98430461 0 0 0 -0.98437,0.98437 0.98430461,0.98430461 0 0 0 0.98437,0.98438 0.98430461,0.98430461 0 0 0 0.98438,-0.98438 0.98430461,0.98430461 0 0 0 -0.98438,-0.98437 z m -33.99218,0.004 a 0.58789039,0.58789039 0 0 0 -0.5879,0.58789 0.58789039,0.58789039 0 0 0 0.5879,0.58789 0.58789039,0.58789039 0 0 0 0.58789,-0.58789 0.58789039,0.58789039 0 0 0 -0.58789,-0.58789 z m 8.61914,0.25781 a 0.99290127,0.99290127 0 0 0 -0.99219,0.99414 0.99290127,0.99290127 0 0 0 0.99219,0.99219 0.99290127,0.99290127 0 0 0 0.99414,-0.99219 0.99290127,0.99290127 0 0 0 -0.99414,-0.99414 z m -6.3086,0.0488 a 0.28164074,0.28164074 0 0 0 -0.26172,0.28125 0.28164074,0.28164074 0 0 0 0.28125,0.28125 0.28164074,0.28164074 0 0 0 0.28321,-0.28125 0.28164074,0.28164074 0 0 0 -0.28321,-0.28125 0.28164074,0.28164074 0 0 0 -0.0195,0 z m 2.69532,0.3125 a 1.2043464,1.2043464 0 0 0 -1.20313,1.20312 1.2043464,1.2043464 0 0 0 1.20313,1.20508 1.2043464,1.2043464 0 0 0 1.20507,-1.20508 1.2043464,1.2043464 0 0 0 -1.20507,-1.20312 z m 7.17578,0.0234 a 1.1489719,1.1489719 0 0 0 -1.14844,1.14844 1.1489719,1.1489719 0 0 0 1.14844,1.14844 1.1489719,1.1489719 0 0 0 1.14843,-1.14844 1.1489719,1.1489719 0 0 0 -1.14843,-1.14844 z m -14.4336,0.0586 a 0.21290037,0.21290037 0 0 0 -0.19922,0.21289 0.21290037,0.21290037 0 0 0 0.21289,0.21289 0.21290037,0.21290037 0 0 0 0.21289,-0.21289 0.21290037,0.21290037 0 0 0 -0.21289,-0.21289 0.21290037,0.21290037 0 0 0 -0.0137,0 z m 0.89063,1.84961 a 8.767128,8.767128 0 0 0 -8.76758,8.76757 8.767128,8.767128 0 0 0 8.76758,8.76563 8.767128,8.767128 0 0 0 8.76758,-8.76563 8.767128,8.767128 0 0 0 -8.76758,-8.76757 z m -20.06836,0.6582 a 3.4072378,3.4072378 0 0 0 -3.40821,3.40625 3.4072378,3.4072378 0 0 0 3.40821,3.4082 3.4072378,3.4072378 0 0 0 3.40625,-3.4082 3.4072378,3.4072378 0 0 0 -3.40625,-3.40625 z m 28.72656,0.16992 a 0.3010866,0.3010866 0 0 0 -0.2793,0.30078 0.3010866,0.3010866 0 0 0 0.30079,0.30078 0.3010866,0.3010866 0 0 0 0.30273,-0.30078 0.3010866,0.3010866 0 0 0 -0.30273,-0.30078 0.3010866,0.3010866 0 0 0 -0.0215,0 z m 26.49414,0.0391 a 0.84826839,0.84826839 0 0 0 -0.84961,0.84961 0.84826839,0.84826839 0 0 0 0.84961,0.84766 0.84826839,0.84826839 0 0 0 0.84766,-0.84766 0.84826839,0.84826839 0 0 0 -0.84766,-0.84961 z m 2.92188,0.34766 a 0.61612499,0.61612499 0 0 0 -0.61524,0.61719 0.61612499,0.61612499 0 0 0 0.61524,0.61523 0.61612499,0.61612499 0 0 0 0.61718,-0.61523 0.61612499,0.61612499 0 0 0 -0.61718,-0.61719 z m -23.92383,0.58203 a 0.87457758,0.87457758 0 0 0 -0.875,0.875 0.87457758,0.87457758 0 0 0 0.875,0.875 0.87457758,0.87457758 0 0 0 0.875,-0.875 0.87457758,0.87457758 0 0 0 -0.875,-0.875 z m 2.66406,0.91406 a 0.39112297,0.39112297 0 0 0 -0.36328,0.39063 0.39112297,0.39112297 0 0 0 0.39062,0.39062 0.39112297,0.39112297 0 0 0 0.39063,-0.39062 0.39112297,0.39112297 0 0 0 -0.39063,-0.39063 0.39112297,0.39112297 0 0 0 -0.0273,0 z m -7.55469,0.10547 a 0.51051718,0.51051718 0 0 0 -0.51172,0.50977 0.51051718,0.51051718 0 0 0 0.51172,0.51172 0.51051718,0.51051718 0 0 0 0.50977,-0.51172 0.51051718,0.51051718 0 0 0 -0.50977,-0.50977 z m 25.9043,1.20899 a 3.1307938,3.1307938 0 0 0 -3.13086,3.13086 3.1307938,3.1307938 0 0 0 3.13086,3.13086 3.1307938,3.1307938 0 0 0 3.13086,-3.13086 3.1307938,3.1307938 0 0 0 -3.13086,-3.13086 z m -44.9082,0.69336 a 0.22581495,0.22581495 0 0 0 -0.21094,0.22461 0.22581495,0.22581495 0 0 0 0.22656,0.22656 0.22581495,0.22581495 0 0 0 0.22461,-0.22656 0.22581495,0.22581495 0 0 0 -0.22461,-0.22461 0.22581495,0.22581495 0 0 0 -0.0156,0 z m 25.41015,0.14062 a 5.5195217,5.5195217 0 0 0 -5.51953,5.51953 5.5195217,5.5195217 0 0 0 5.51953,5.51953 5.5195217,5.5195217 0 0 0 5.51953,-5.51953 5.5195217,5.5195217 0 0 0 -5.51953,-5.51953 z m -5.58008,0.2793 a 0.39112297,0.39112297 0 0 0 -0.36328,0.39062 0.39112297,0.39112297 0 0 0 0.39063,0.39063 0.39112297,0.39112297 0 0 0 0.39258,-0.39063 0.39112297,0.39112297 0 0 0 -0.39258,-0.39062 0.39112297,0.39112297 0 0 0 -0.0274,0 z m -21.36328,1.02929 a 1.14403,1.14403 0 0 0 -1.14453,1.14454 1.14403,1.14403 0 0 0 1.14453,1.14453 1.14403,1.14403 0 0 0 1.14258,-1.14453 1.14403,1.14403 0 0 0 -1.14258,-1.14454 z m -3.89257,0.36329 a 1.3252943,1.3252943 0 0 0 -1.32618,1.32421 1.3252943,1.3252943 0 0 0 1.32618,1.32618 1.3252943,1.3252943 0 0 0 1.32421,-1.32618 1.3252943,1.3252943 0 0 0 -1.32421,-1.32421 z m 37.86132,1.80859 a 0.28164074,0.28164074 0 0 0 -0.26171,0.28125 0.28164074,0.28164074 0 0 0 0.28124,0.28125 0.28164074,0.28164074 0 0 0 0.28126,-0.28125 0.28164074,0.28164074 0 0 0 -0.28126,-0.28125 0.28164074,0.28164074 0 0 0 -0.0195,0 z m 7.40625,0.55664 a 0.56828851,0.56828851 0 0 0 -0.52929,0.56836 0.56828851,0.56828851 0 0 0 0.56836,0.56836 0.56828851,0.56828851 0 0 0 0.56836,-0.56836 0.56828851,0.56828851 0 0 0 -0.56836,-0.56836 0.56828851,0.56828851 0 0 0 -0.0391,0 z m -4.30273,0.44531 a 3.4287868,3.4287868 0 0 0 -3.42773,3.42969 3.4287868,3.4287868 0 0 0 3.42773,3.42774 3.4287868,3.4287868 0 0 0 3.42969,-3.42774 3.4287868,3.4287868 0 0 0 -3.42969,-3.42969 z m -38.86523,0.46485 a 0.32810149,0.32810149 0 0 0 -0.30469,0.32812 0.32810149,0.32810149 0 0 0 0.32812,0.32813 0.32810149,0.32810149 0 0 0 0.32813,-0.32813 0.32810149,0.32810149 0 0 0 -0.32813,-0.32812 0.32810149,0.32810149 0 0 0 -0.0234,0 z m 2.33984,0.0566 a 0.59268957,0.59268957 0 0 0 -0.55078,0.59179 0.59268957,0.59268957 0 0 0 0.59375,0.59375 0.59268957,0.59268957 0 0 0 0.59179,-0.59375 0.59268957,0.59268957 0 0 0 -0.59179,-0.59179 0.59268957,0.59268957 0 0 0 -0.043,0 z m -5.96484,0.39062 a 0.40535027,0.40535027 0 0 0 -0.4043,0.40625 0.40535027,0.40535027 0 0 0 0.4043,0.4043 0.40535027,0.40535027 0 0 0 0.40624,-0.4043 0.40535027,0.40535027 0 0 0 -0.40624,-0.40625 z M 393.44922,267 a 0.71804577,0.71804577 0 0 0 -0.7168,0.7168 0.71804577,0.71804577 0 0 0 0.7168,0.71875 0.71804577,0.71804577 0 0 0 0.71875,-0.71875 A 0.71804577,0.71804577 0 0 0 393.44922,267 Z m -58.00195,0.55469 a 0.78945571,0.78945571 0 0 0 -0.3086,0.0645 c 0.32527,0.37626 0.64968,0.75312 0.99024,1.12305 a 0.78945571,0.78945571 0 0 0 0.10742,-0.39649 0.78945571,0.78945571 0 0 0 -0.78906,-0.79101 z m 51.24804,0.0605 a 1.4102139,1.4102139 0 0 0 -1.41015,1.41016 1.4102139,1.4102139 0 0 0 1.41015,1.41016 1.4102139,1.4102139 0 0 0 1.41016,-1.41016 1.4102139,1.4102139 0 0 0 -1.41016,-1.41016 z m 4.46094,0.65039 a 0.22581495,0.22581495 0 0 0 -0.20898,0.22461 0.22581495,0.22581495 0 0 0 0.22656,0.22657 0.22581495,0.22581495 0 0 0 0.22461,-0.22657 0.22581495,0.22581495 0 0 0 -0.22461,-0.22461 0.22581495,0.22581495 0 0 0 -0.0176,0 z m -50.22461,0.43165 a 6.6221938,6.6221938 0 0 0 -3.73828,1.1582 c 0.12294,0.12551 0.23852,0.25414 0.36328,0.37891 2.97871,2.9787 6.17653,5.42528 9.58594,7.36523 a 6.6221938,6.6221938 0 0 0 0.41211,-2.2793 6.6221938,6.6221938 0 0 0 -6.62305,-6.62304 z m 49.04297,1.17187 a 0.79303604,0.79303604 0 0 0 -0.79297,0.79297 0.79303604,0.79303604 0 0 0 0.79297,0.79297 0.79303604,0.79303604 0 0 0 0.79297,-0.79297 0.79303604,0.79303604 0 0 0 -0.79297,-0.79297 z m -26.125,0.20898 a 0.16831253,0.16831253 0 0 0 -0.15625,0.16797 0.16831253,0.16831253 0 0 0 0.16797,0.16797 0.16831253,0.16831253 0 0 0 0.16992,-0.16797 0.16831253,0.16831253 0 0 0 -0.16992,-0.16797 0.16831253,0.16831253 0 0 0 -0.0117,0 z m 21.66016,1.64844 a 1.3295624,1.3295624 0 0 0 -1.32813,1.33008 1.3295624,1.3295624 0 0 0 1.32813,1.32813 1.3295624,1.3295624 0 0 0 1.33007,-1.32813 1.3295624,1.3295624 0 0 0 -1.33007,-1.33008 z m -22.45899,0.002 a 0.6816138,0.6816138 0 0 0 -0.68164,0.68164 0.6816138,0.6816138 0 0 0 0.68164,0.68164 0.6816138,0.6816138 0 0 0 0.68164,-0.68164 0.6816138,0.6816138 0 0 0 -0.68164,-0.68164 z m 25.25781,0.50781 a 0.10645019,0.10645019 0 0 0 -0.0957,0.10742 0.10645019,0.10645019 0 0 0 0.10547,0.10547 0.10645019,0.10645019 0 0 0 0.10742,-0.10547 0.10645019,0.10645019 0 0 0 -0.10742,-0.10742 0.10645019,0.10645019 0 0 0 -0.01,0 z m -22.95312,0.44922 a 0.21290037,0.21290037 0 0 0 -0.21289,0.21289 0.21290037,0.21290037 0 0 0 0.21289,0.21289 0.21290037,0.21290037 0 0 0 0.21289,-0.21289 0.21290037,0.21290037 0 0 0 -0.21289,-0.21289 z m 9.9707,0.27148 a 4.8926578,4.8926578 0 0 0 -4.89258,4.89258 4.8926578,4.8926578 0 0 0 4.0293,4.81445 c 1.09058,-0.13896 2.16642,-0.31428 3.22656,-0.53125 a 4.8926578,4.8926578 0 0 0 2.5293,-4.2832 4.8926578,4.8926578 0 0 0 -4.89258,-4.89258 z m 20.72852,0.32422 a 6.9270372,6.9270372 0 0 0 -5.24024,3.72266 c 1.80466,-1.09238 3.55119,-2.33403 5.24024,-3.72266 z m -35.08985,0.45703 a 0.94014263,0.94014263 0 0 0 -0.93945,0.93945 0.94014263,0.94014263 0 0 0 0.93945,0.94141 0.94014263,0.94014263 0 0 0 0.93946,-0.94141 0.94014263,0.94014263 0 0 0 -0.93946,-0.93945 z m 28.18164,0.0391 a 1.0724559,1.0724559 0 0 0 -1.07226,1.07227 1.0724559,1.0724559 0 0 0 1.07226,1.07227 1.0724559,1.0724559 0 0 0 1.07227,-1.07227 1.0724559,1.0724559 0 0 0 -1.07227,-1.07227 z m -24.89062,0.44922 a 0.2496478,0.2496478 0 0 0 -0.25,0.25 0.2496478,0.2496478 0 0 0 0.25,0.25 0.2496478,0.2496478 0 0 0 0.24805,-0.25 0.2496478,0.2496478 0 0 0 -0.24805,-0.25 z m -14.55664,0.32032 a 0.68575734,0.68575734 0 0 0 -0.68555,0.68554 0.68575734,0.68575734 0 0 0 0.68555,0.68555 0.68575734,0.68575734 0 0 0 0.6875,-0.68555 0.68575734,0.68575734 0 0 0 -0.6875,-0.68554 z m 8.69336,0.45898 a 0.21290037,0.21290037 0 0 0 -0.19727,0.21289 0.21290037,0.21290037 0 0 0 0.21289,0.21289 0.21290037,0.21290037 0 0 0 0.21289,-0.21289 0.21290037,0.21290037 0 0 0 -0.21289,-0.21289 0.21290037,0.21290037 0 0 0 -0.0156,0 z m -6.34961,0.39453 a 0.2496478,0.2496478 0 0 0 -0.23242,0.25 0.2496478,0.2496478 0 0 0 0.25,0.25 0.2496478,0.2496478 0 0 0 0.24804,-0.25 0.2496478,0.2496478 0 0 0 -0.24804,-0.25 0.2496478,0.2496478 0 0 0 -0.0176,0 z m 4.43164,0.14844 a 0.35305536,0.35305536 0 0 0 -0.32813,0.35351 0.35305536,0.35305536 0 0 0 0.35352,0.35352 0.35305536,0.35305536 0 0 0 0.35352,-0.35352 0.35305536,0.35305536 0 0 0 -0.35352,-0.35351 0.35305536,0.35305536 0 0 0 -0.0254,0 z m -2.27344,0.16015 a 0.50493759,0.50493759 0 0 0 -0.5039,0.50586 0.50493759,0.50493759 0 0 0 0.5039,0.50391 0.50493759,0.50493759 0 0 0 0.50586,-0.50391 0.50493759,0.50493759 0 0 0 -0.50586,-0.50586 z m 30.89453,0.12305 a 3.5329595,3.5329595 0 0 0 -3.5332,3.5332 3.5329595,3.5329595 0 0 0 0.41016,1.64844 c 2.23804,-0.71247 4.40314,-1.61187 6.49414,-2.70117 a 3.5329595,3.5329595 0 0 0 -3.3711,-2.48047 z m -20.60547,0.35156 a 4.9776134,4.9776134 0 0 0 -4.97851,4.97657 4.9776134,4.9776134 0 0 0 0.11719,1.05664 c 2.84118,0.55129 5.79547,0.83008 8.86523,0.83008 0.20294,0 0.40154,-0.0112 0.60352,-0.0137 a 4.9776134,4.9776134 0 0 0 0.36914,-1.87304 4.9776134,4.9776134 0 0 0 -4.97657,-4.97657 z m -6.42968,1.00196 a 0.75271648,0.75271648 0 0 0 -0.75196,0.7539 0.75271648,0.75271648 0 0 0 0.75196,0.75196 0.75271648,0.75271648 0 0 0 0.75195,-0.75196 0.75271648,0.75271648 0 0 0 -0.75195,-0.7539 z m -8.36328,0.19336 a 0.23802985,0.23802985 0 0 0 -0.22071,0.23828 0.23802985,0.23802985 0 0 0 0.23828,0.23828 0.23802985,0.23802985 0 0 0 0.23828,-0.23828 0.23802985,0.23802985 0 0 0 -0.23828,-0.23828 0.23802985,0.23802985 0 0 0 -0.0176,0 z m 4.04492,0.78125 a 3.4633138,3.4633138 0 0 0 -2.75391,1.36718 c 2.00445,0.87555 4.07444,1.59103 6.21484,2.13868 a 3.4633138,3.4633138 0 0 0 0.002,-0.043 3.4633138,3.4633138 0 0 0 -3.46289,-3.46289 z"
       id="path16496"
       inkscape:connector-curvature="0" />
    <path
       inkscape:connector-curvature="0"
       id="path16498"
       style="font-style:normal;font-variant:normal;font-weight:bold;font-stretch:normal;font-size:160px;line-height:125%;font-family:Comfortaa;-inkscape-font-specification:'Comfortaa, Bold';text-align:start;letter-spacing:0px;word-spacing:0px;writing-mode:lr-tb;text-anchor:start;fill:#31a354;fill-opacity:1;stroke:none;stroke-width:1px;stroke-linecap:butt;stroke-linejoin:miter;stroke-opacity:1"
       d="m 446.85293,179.99946 q 0,3.98437 -2.8125,6.79687 -2.8125,2.8125 -6.7968,2.8125 -3.9844,0 -6.7969,-2.8125 -2.8125,-2.8125 -2.8125,-6.79687 0,-3.98438 2.8125,-6.79688 2.8125,-2.8125 6.7969,-2.8125 3.9843,0 6.7968,2.8125 2.8125,2.8125 2.8125,6.79688 z m -17.7343,94.84374 0,-71.09374 q 0,-3.4375 2.3437,-5.78125 2.4219,-2.42188 5.7813,-2.42188 3.3593,0 5.7031,2.42188 2.4219,2.34375 2.5,5.78125 l 0,71.09374 q -0.078,3.4375 -2.5,5.85938 -2.3438,2.34375 -5.7031,2.34375 -3.3594,0 -5.7813,-2.34375 -2.3437,-2.42188 -2.3437,-5.85938 z" />
    <path
       style="font-style:normal;font-variant:normal;font-weight:bold;font-stretch:normal;font-size:160px;line-height:125%;font-family:Comfortaa;-inkscape-font-specification:'Comfortaa, Bold';text-align:start;letter-spacing:0px;word-spacing:0px;writing-mode:lr-tb;text-anchor:start;fill:#31a354;fill-opacity:1;stroke:none;stroke-width:1px;stroke-linecap:butt;stroke-linejoin:miter;stroke-opacity:1"
       d="m 507.14062,195.57227 a 19.854956,19.854956 0 0 0 19.75586,17.91211 19.854956,19.854956 0 0 0 11.44727,-3.64649 c -0.45839,-0.49832 -0.92529,-0.9917 -1.41211,-1.47851 -8.36766,-8.26679 -18.30125,-12.52107 -29.79102,-12.78711 z m -3.46484,0.0273 c -1.63852,0.0762 -3.23968,0.24304 -4.81055,0.48242 a 5.1538138,5.1538138 0 0 0 -2.29492,4.2832 5.1538138,5.1538138 0 0 0 5.1543,5.1543 5.1538138,5.1538138 0 0 0 5.1543,-5.1543 5.1538138,5.1538138 0 0 0 -3.20313,-4.76562 z m -9.9668,1.5957 c -0.62324,0.17607 -1.24007,0.36784 -1.85156,0.57227 a 0.97483659,0.97483659 0 0 0 0.95508,0.78711 0.97483659,0.97483659 0 0 0 0.97461,-0.97657 0.97483659,0.97483659 0 0 0 -0.0781,-0.38281 z m -3.25,1.06836 c -3.51073,1.31824 -6.82216,3.11715 -9.93359,5.39844 a 8.9104385,8.9104385 0 0 0 1.68164,0.16601 8.9104385,8.9104385 0 0 0 8.25195,-5.56445 z m 0.90821,0.82031 a 0.20232716,0.20232716 0 0 0 -0.1875,0.20118 0.20232716,0.20232716 0 0 0 0.20312,0.20312 0.20232716,0.20232716 0 0 0 0.20117,-0.20312 0.20232716,0.20232716 0 0 0 -0.20117,-0.20118 0.20232716,0.20232716 0 0 0 -0.0156,0 z m -0.68555,1.30079 a 0.32444522,0.32444522 0 0 0 -0.30078,0.32421 0.32444522,0.32444522 0 0 0 0.32422,0.32422 0.32444522,0.32444522 0 0 0 0.32422,-0.32422 0.32444522,0.32444522 0 0 0 -0.32422,-0.32421 0.32444522,0.32444522 0 0 0 -0.0234,0 z m -1.01953,1.38867 a 0.54343903,0.54343903 0 0 0 -0.54492,0.54297 0.54343903,0.54343903 0 0 0 0.54492,0.54492 0.54343903,0.54343903 0 0 0 0.54297,-0.54492 0.54343903,0.54343903 0 0 0 -0.54297,-0.54297 z m 0.45703,2.07617 a 0.33333579,0.33333579 0 0 0 -0.30859,0.33203 0.33333579,0.33333579 0 0 0 0.33203,0.33398 0.33333579,0.33333579 0 0 0 0.33398,-0.33398 0.33333579,0.33333579 0 0 0 -0.33398,-0.33203 0.33333579,0.33333579 0 0 0 -0.0234,0 z m -3.19531,0.24805 a 2.8832254,2.8832254 0 0 0 -2.88281,2.88281 2.8832254,2.8832254 0 0 0 2.88281,2.88281 2.8832254,2.8832254 0 0 0 2.88281,-2.88281 2.8832254,2.8832254 0 0 0 -2.88281,-2.88281 z m -7.49219,0.39257 c -1.50553,1.17668 -2.96585,2.46 -4.375,3.86915 -0.68348,0.68347 -1.33019,1.38173 -1.95898,2.08789 a 5.1708059,5.1708059 0 0 0 5.07812,4.22656 5.1708059,5.1708059 0 0 0 5.17188,-5.17188 5.1708059,5.1708059 0 0 0 -3.91602,-5.01172 z m 11.99805,0.48438 a 0.3153041,0.3153041 0 0 0 -0.31446,0.31641 0.3153041,0.3153041 0 0 0 0.31446,0.31445 0.3153041,0.3153041 0 0 0 0.3164,-0.31445 0.3153041,0.3153041 0 0 0 -0.3164,-0.31641 z m 1.98242,0.0586 a 0.65784103,0.65784103 0 0 0 -0.6582,0.65821 0.65784103,0.65784103 0 0 0 0.6582,0.6582 0.65784103,0.65784103 0 0 0 0.6582,-0.6582 0.65784103,0.65784103 0 0 0 -0.6582,-0.65821 z m 3.16992,1.04297 a 0.5748167,0.5748167 0 0 0 -0.57422,0.57422 0.5748167,0.5748167 0 0 0 0.57422,0.57617 0.5748167,0.5748167 0 0 0 0.57617,-0.57617 0.5748167,0.5748167 0 0 0 -0.57617,-0.57422 z m 2.88477,0.084 a 0.17099765,0.17099765 0 0 0 -0.15821,0.17187 0.17099765,0.17099765 0 0 0 0.16993,0.16992 0.17099765,0.17099765 0 0 0 0.17187,-0.16992 0.17099765,0.17099765 0 0 0 -0.17187,-0.17187 0.17099765,0.17099765 0 0 0 -0.0117,0 z m 6.4707,0.0137 a 0.5697071,0.5697071 0 0 0 -0.57031,0.57031 0.5697071,0.5697071 0 0 0 0.57031,0.56836 0.5697071,0.5697071 0 0 0 0.57031,-0.56836 0.5697071,0.5697071 0 0 0 -0.57031,-0.57031 z m -3.70508,0.38086 a 3.0817552,3.0817552 0 0 0 -3.08203,3.08203 3.0817552,3.0817552 0 0 0 3.08203,3.08203 3.0817552,3.0817552 0 0 0 3.08203,-3.08203 3.0817552,3.0817552 0 0 0 -3.08203,-3.08203 z m -10.60742,0.0918 a 0.79103738,0.79103738 0 0 0 -0.79102,0.79102 0.79103738,0.79103738 0 0 0 0.79102,0.79102 0.79103738,0.79103738 0 0 0 0.79102,-0.79102 0.79103738,0.79103738 0 0 0 -0.79102,-0.79102 z m 3.22266,0.0371 a 0.10814841,0.10814841 0 0 0 -0.0996,0.10743 0.10814841,0.10814841 0 0 0 0.10742,0.10937 0.10814841,0.10814841 0 0 0 0.10937,-0.10937 0.10814841,0.10814841 0 0 0 -0.10937,-0.10743 0.10814841,0.10814841 0 0 0 -0.008,0 z m 3.45117,0.20508 a 0.1430669,0.1430669 0 0 0 -0.13281,0.14258 0.1430669,0.1430669 0 0 0 0.14257,0.14258 0.1430669,0.1430669 0 0 0 0.14258,-0.14258 0.1430669,0.1430669 0 0 0 -0.14258,-0.14258 0.1430669,0.1430669 0 0 0 -0.01,0 z m -3.75586,1.02735 a 0.17934383,0.17934383 0 0 0 -0.16602,0.17773 0.17934383,0.17934383 0 0 0 0.17774,0.17969 0.17934383,0.17934383 0 0 0 0.17969,-0.17969 0.17934383,0.17934383 0 0 0 -0.17969,-0.17773 0.17934383,0.17934383 0 0 0 -0.0117,0 z m 3.00586,0.14257 a 0.64436847,0.64436847 0 0 0 -0.64453,0.64453 0.64436847,0.64436847 0 0 0 0.64453,0.64454 0.64436847,0.64436847 0 0 0 0.64453,-0.64454 0.64436847,0.64436847 0 0 0 -0.64453,-0.64453 z m 9.07422,0.17383 a 0.40102503,0.40102503 0 0 0 -0.3711,0.40039 0.40102503,0.40102503 0 0 0 0.40039,0.40039 0.40102503,0.40102503 0 0 0 0.40039,-0.40039 0.40102503,0.40102503 0 0 0 -0.40039,-0.40039 0.40102503,0.40102503 0 0 0 -0.0293,0 z m -10.84766,0.21485 a 0.07647248,0.07647248 0 0 0 -0.0645,0.0781 0.07647248,0.07647248 0 0 0 0.0762,0.0762 0.07647248,0.07647248 0 0 0 0.0781,-0.0762 0.07647248,0.07647248 0 0 0 -0.0781,-0.0781 0.07647248,0.07647248 0 0 0 -0.004,0 0.07647248,0.07647248 0 0 0 -0.008,0 z m 16.43555,0.21093 a 0.38993466,0.38993466 0 0 0 -0.39063,0.39063 0.38993466,0.38993466 0 0 0 0.39063,0.38867 0.38993466,0.38993466 0 0 0 0.39062,-0.38867 0.38993466,0.38993466 0 0 0 -0.39062,-0.39063 z m -1.64453,0.38477 a 0.20232716,0.20232716 0 0 0 -0.1875,0.20312 0.20232716,0.20232716 0 0 0 0.20312,0.20118 0.20232716,0.20232716 0 0 0 0.20117,-0.20118 0.20232716,0.20232716 0 0 0 -0.20117,-0.20312 0.20232716,0.20232716 0 0 0 -0.0156,0 z m -1.52539,0.0684 a 0.27572542,0.27572542 0 0 0 -0.25586,0.27539 0.27572542,0.27572542 0 0 0 0.27539,0.27539 0.27572542,0.27572542 0 0 0 0.27539,-0.27539 0.27572542,0.27572542 0 0 0 -0.27539,-0.27539 0.27572542,0.27572542 0 0 0 -0.0195,0 z m -16.06446,0.0684 a 7.4976182,7.4976182 0 0 0 -7.49804,7.49804 7.4976182,7.4976182 0 0 0 7.49804,7.4961 7.4976182,7.4976182 0 0 0 7.49805,-7.4961 7.4976182,7.4976182 0 0 0 -7.49805,-7.49804 z m 14.67383,0.54883 a 0.16222261,0.16222261 0 0 0 -0.15234,0.1621 0.16222261,0.16222261 0 0 0 0.16211,0.16211 0.16222261,0.16222261 0 0 0 0.16211,-0.16211 0.16222261,0.16222261 0 0 0 -0.16211,-0.1621 0.16222261,0.16222261 0 0 0 -0.01,0 z m 3.81055,0.73437 a 10.407424,10.407424 0 0 0 -10.40821,10.4082 10.407424,10.407424 0 0 0 10.40821,10.40821 10.407424,10.407424 0 0 0 10.4082,-10.40821 10.407424,10.407424 0 0 0 -10.4082,-10.4082 z m 27.61718,0.20313 a 0.58239704,0.58239704 0 0 0 -0.4414,0.5664 0.58239704,0.58239704 0 0 0 0.58203,0.58203 0.58239704,0.58239704 0 0 0 0.54102,-0.36523 c -0.22092,-0.26345 -0.45317,-0.52282 -0.68165,-0.7832 z m -53.16015,0.1289 a 0.39366612,0.39366612 0 0 0 -0.39258,0.39453 0.39366612,0.39366612 0 0 0 0.39258,0.39258 0.39366612,0.39366612 0 0 0 0.39453,-0.39258 0.39366612,0.39366612 0 0 0 -0.39453,-0.39453 z m -0.63281,1.70899 a 0.1324542,0.1324542 0 0 0 -0.12305,0.13086 0.1324542,0.1324542 0 0 0 0.13281,0.13281 0.1324542,0.1324542 0 0 0 0.13281,-0.13281 0.1324542,0.1324542 0 0 0 -0.13281,-0.13086 0.1324542,0.1324542 0 0 0 -0.01,0 z m 53.81836,0.35937 a 4.2971134,4.2971134 0 0 0 -4.29688,4.29688 4.2971134,4.2971134 0 0 0 4.29688,4.29687 4.2971134,4.2971134 0 0 0 4.29687,-4.29687 4.2971134,4.2971134 0 0 0 -0.0781,-0.79883 c -0.59794,-0.96026 -1.23414,-1.90538 -1.91993,-2.83008 a 4.2971134,4.2971134 0 0 0 -2.29882,-0.66797 z m -54.69727,0.6875 a 0.43596017,0.43596017 0 0 0 -0.43555,0.43555 0.43596017,0.43596017 0 0 0 0.43555,0.4375 0.43596017,0.43596017 0 0 0 0.43555,-0.4375 0.43596017,0.43596017 0 0 0 -0.43555,-0.43555 z m -14.73242,1.23633 c -1.27212,1.83694 -2.38697,3.7384 -3.33203,5.71094 a 3.7739766,3.7739766 0 0 0 0.0996,0.004 3.7739766,3.7739766 0 0 0 3.77343,-3.77343 3.7739766,3.7739766 0 0 0 -0.54101,-1.94141 z m 14.70898,0.68555 a 0.10814841,0.10814841 0 0 0 -0.0996,0.10742 0.10814841,0.10814841 0 0 0 0.10742,0.10937 0.10814841,0.10814841 0 0 0 0.10938,-0.10937 0.10814841,0.10814841 0 0 0 -0.10938,-0.10742 0.10814841,0.10814841 0 0 0 -0.008,0 z M 477.5,215.69531 a 2.3804936,2.3804936 0 0 0 -2.38086,2.38086 2.3804936,2.3804936 0 0 0 2.38086,2.38086 2.3804936,2.3804936 0 0 0 2.37891,-2.38086 2.3804936,2.3804936 0 0 0 -2.37891,-2.38086 z m 5.26172,1.18946 a 1.8778625,1.8778625 0 0 0 -1.87695,1.8789 1.8778625,1.8778625 0 0 0 1.87695,1.87695 1.8778625,1.8778625 0 0 0 1.8789,-1.87695 1.8778625,1.8778625 0 0 0 -1.8789,-1.8789 z m -10.04297,3.32031 a 0.68825227,0.68825227 0 0 0 -0.68945,0.6875 0.68825227,0.68825227 0 0 0 0.68945,0.68945 0.68825227,0.68825227 0 0 0 0.6875,-0.68945 0.68825227,0.68825227 0 0 0 -0.6875,-0.6875 z m 2.04102,0.11133 a 0.31990728,0.31990728 0 0 0 -0.32032,0.32031 0.31990728,0.31990728 0 0 0 0.32032,0.32031 0.31990728,0.31990728 0 0 0 0.32031,-0.32031 0.31990728,0.31990728 0 0 0 -0.32031,-0.32031 z m -4.86719,0.14453 a 1.1871721,1.1871721 0 0 0 -1.1875,1.1875 1.1871721,1.1871721 0 0 0 1.1875,1.1875 1.1871721,1.1871721 0 0 0 1.1875,-1.1875 1.1871721,1.1871721 0 0 0 -1.1875,-1.1875 z m 65.00195,0.22851 a 0.37463704,0.37463704 0 0 0 -0.34765,0.37305 0.37463704,0.37463704 0 0 0 0.375,0.375 0.37463704,0.37463704 0 0 0 0.37304,-0.375 0.37463704,0.37463704 0 0 0 -0.37304,-0.37305 0.37463704,0.37463704 0 0 0 -0.0273,0 z m -1.92187,0.041 a 0.53530735,0.53530735 0 0 0 -0.53516,0.53515 0.53530735,0.53530735 0 0 0 0.53516,0.53516 0.53530735,0.53530735 0 0 0 0.53515,-0.53516 0.53530735,0.53530735 0 0 0 -0.53515,-0.53515 z m 10.18554,0.25586 a 0.82540691,0.82540691 0 0 0 -0.82422,0.82617 0.82540691,0.82540691 0 0 0 0.82422,0.82422 0.82540691,0.82540691 0 0 0 0.82618,-0.82422 0.82540691,0.82540691 0 0 0 -0.82618,-0.82617 z m -14.81445,0.10937 a 1.2910039,1.2910039 0 0 0 -1.29102,1.29102 1.2910039,1.2910039 0 0 0 1.29102,1.29101 1.2910039,1.2910039 0 0 0 1.29102,-1.29101 1.2910039,1.2910039 0 0 0 -1.29102,-1.29102 z m -48.9082,0.32032 a 17.438406,17.438406 0 0 0 -17.00977,13.69336 c -0.11808,1.37174 -0.18164,2.76679 -0.18164,4.1875 0,1.02704 0.0418,2.03565 0.10352,3.0371 a 17.438406,17.438406 0 0 0 17.08789,13.95899 17.438406,17.438406 0 0 0 17.4375,-17.4375 17.438406,17.438406 0 0 0 -17.4375,-17.43945 z m 51.62109,0.13476 a 0.43259364,0.43259364 0 0 0 -0.40234,0.43164 0.43259364,0.43259364 0 0 0 0.43164,0.4336 0.43259364,0.43259364 0 0 0 0.43359,-0.4336 0.43259364,0.43259364 0 0 0 -0.43359,-0.43164 0.43259364,0.43259364 0 0 0 -0.0293,0 z m 14.67188,0.51758 a 0.97333568,0.97333568 0 0 0 -0.97266,0.97266 0.97333568,0.97333568 0 0 0 0.97266,0.97265 0.97333568,0.97333568 0 0 0 0.9707,-0.90039 c -0.0806,-0.20377 -0.15251,-0.41087 -0.23633,-0.61328 -0.0234,-0.0578 -0.0506,-0.11419 -0.0742,-0.17188 a 0.97333568,0.97333568 0 0 0 -0.66015,-0.25976 z m -8.91211,0.30273 a 14.068647,14.068647 0 0 0 -14.06836,14.06836 14.068647,14.068647 0 0 0 14.06836,14.06836 14.068647,14.068647 0 0 0 12.83593,-8.35547 c 0.0536,-0.94186 0.0918,-1.89007 0.0918,-2.85546 -0.0325,-3.77252 -0.47159,-7.3735 -1.31641,-10.80079 a 14.068647,14.068647 0 0 0 -11.61132,-6.125 z m -69.37305,0.33789 a 0.90483457,0.90483457 0 0 0 -0.90625,0.90625 0.90483457,0.90483457 0 0 0 0.90625,0.9043 0.90483457,0.90483457 0 0 0 0.9043,-0.9043 0.90483457,0.90483457 0 0 0 -0.9043,-0.90625 z m 58.52734,0.99414 a 0.92085046,0.92085046 0 0 0 -0.92187,0.92188 0.92085046,0.92085046 0 0 0 0.92187,0.91992 0.92085046,0.92085046 0 0 0 0.91992,-0.91992 0.92085046,0.92085046 0 0 0 -0.91992,-0.92188 z m 21.23633,0.72852 a 0.65338111,0.65338111 0 0 0 -0.24805,0.50977 0.65338111,0.65338111 0 0 0 0.63086,0.65429 c -0.12586,-0.38871 -0.24587,-0.78006 -0.38281,-1.16406 z m -52.54492,0.64648 a 1.237815,1.237815 0 0 0 -1.23828,1.23829 1.237815,1.237815 0 0 0 1.23828,1.23632 1.237815,1.237815 0 0 0 1.23828,-1.23632 1.237815,1.237815 0 0 0 -1.23828,-1.23829 z m -28.39063,0.16602 a 0.25363052,0.25363052 0 0 0 -0.23632,0.25195 0.25363052,0.25363052 0 0 0 0.2539,0.25391 0.25363052,0.25363052 0 0 0 0.25391,-0.25391 0.25363052,0.25363052 0 0 0 -0.25391,-0.25195 0.25363052,0.25363052 0 0 0 -0.0176,0 z m 58.32813,0.9375 a 0.51013499,0.51013499 0 0 0 -0.50977,0.50977 0.51013499,0.51013499 0 0 0 0.50977,0.51171 0.51013499,0.51013499 0 0 0 0.51172,-0.51171 0.51013499,0.51013499 0 0 0 -0.51172,-0.50977 z m -2.28906,0.98047 a 1.3923451,1.3923451 0 0 0 -1.39258,1.39258 1.3923451,1.3923451 0 0 0 1.39258,1.39258 1.3923451,1.3923451 0 0 0 1.39257,-1.39258 1.3923451,1.3923451 0 0 0 -1.39257,-1.39258 z m -26.33594,1.14258 a 0.74142814,0.74142814 0 0 0 -0.74219,0.74023 0.74142814,0.74142814 0 0 0 0.74219,0.74219 0.74142814,0.74142814 0 0 0 0.74023,-0.74219 0.74142814,0.74142814 0 0 0 -0.74023,-0.74023 z m 0.73242,2.40625 a 0.42920074,0.42920074 0 0 0 -0.42969,0.42968 0.42920074,0.42920074 0 0 0 0.42969,0.42969 0.42920074,0.42920074 0 0 0 0.42969,-0.42969 0.42920074,0.42920074 0 0 0 -0.42969,-0.42968 z m 24.94531,0.21679 a 0.77043879,0.77043879 0 0 0 -0.77148,0.77149 0.77043879,0.77043879 0 0 0 0.77148,0.76953 0.77043879,0.77043879 0 0 0 0.76954,-0.76953 0.77043879,0.77043879 0 0 0 -0.76954,-0.77149 z m -19.43554,0.58399 a 4.4747834,4.4747834 0 0 0 -4.47461,4.47461 4.4747834,4.4747834 0 0 0 4.47461,4.47461 4.4747834,4.4747834 0 0 0 4.47461,-4.47461 4.4747834,4.4747834 0 0 0 -4.47461,-4.47461 z m 12.38867,0.51953 a 5.3843899,5.3843899 0 0 0 -5.38281,5.38477 5.3843899,5.3843899 0 0 0 5.38281,5.38476 5.3843899,5.3843899 0 0 0 5.38476,-5.38476 5.3843899,5.3843899 0 0 0 -5.38476,-5.38477 z m -17.35938,0.49805 a 0.32892051,0.32892051 0 0 0 -0.30468,0.32812 0.32892051,0.32892051 0 0 0 0.32812,0.33008 0.32892051,0.32892051 0 0 0 0.33008,-0.33008 0.32892051,0.32892051 0 0 0 -0.33008,-0.32812 0.32892051,0.32892051 0 0 0 -0.0234,0 z m 24.43946,0.98828 a 0.24779914,0.24779914 0 0 0 -0.24805,0.24804 0.24779914,0.24779914 0 0 0 0.24805,0.24805 0.24779914,0.24779914 0 0 0 0.24804,-0.24805 0.24779914,0.24779914 0 0 0 -0.24804,-0.24804 z m -0.43946,1.49023 a 0.48062202,0.48062202 0 0 0 -0.48047,0.48242 0.48062202,0.48062202 0 0 0 0.48047,0.48047 0.48062202,0.48062202 0 0 0 0.48243,-0.48047 0.48062202,0.48062202 0 0 0 -0.48243,-0.48242 z m -20.15234,6.43164 a 3.3091469,3.3091469 0 0 0 -3.30859,3.3086 3.3091469,3.3091469 0 0 0 3.30859,3.30859 3.3091469,3.3091469 0 0 0 3.30859,-3.30859 3.3091469,3.3091469 0 0 0 -3.30859,-3.3086 z m 16.28906,2.04102 a 4.208766,4.208766 0 0 0 -4.20703,4.20898 4.208766,4.208766 0 0 0 4.20703,4.20899 4.208766,4.208766 0 0 0 4.20899,-4.20899 4.208766,4.208766 0 0 0 -4.20899,-4.20898 z m 6.95117,2.52734 a 1.6927904,1.6927904 0 0 0 -1.6914,1.69336 1.6927904,1.6927904 0 0 0 1.6914,1.69141 1.6927904,1.6927904 0 0 0 1.69336,-1.69141 1.6927904,1.6927904 0 0 0 -1.69336,-1.69336 z m -19.25,1.30664 a 0.97932553,0.97932553 0 0 0 -0.98046,0.98047 0.97932553,0.97932553 0 0 0 0.98046,0.97852 0.97932553,0.97932553 0 0 0 0.97852,-0.97852 0.97932553,0.97932553 0 0 0 -0.97852,-0.98047 z m -5.92968,1.39258 a 0.55672801,0.55672801 0 0 0 -0.55664,0.55664 0.55672801,0.55672801 0 0 0 0.55664,0.55664 0.55672801,0.55672801 0 0 0 0.55664,-0.55664 0.55672801,0.55672801 0 0 0 -0.55664,-0.55664 z m 3.03906,0.30078 a 1.8048153,1.8048153 0 0 0 -1.80469,1.80469 1.8048153,1.8048153 0 0 0 1.80469,1.80469 1.8048153,1.8048153 0 0 0 1.80469,-1.80469 1.8048153,1.8048153 0 0 0 -1.80469,-1.80469 z m 4.92383,0.0527 a 0.27037102,0.27037102 0 0 0 -0.25196,0.26953 0.27037102,0.27037102 0 0 0 0.27149,0.27148 0.27037102,0.27037102 0 0 0 0.26953,-0.27148 0.27037102,0.27037102 0 0 0 -0.26953,-0.26953 0.27037102,0.27037102 0 0 0 -0.0195,0 z m 1.6582,0.55078 a 0.49263942,0.49263942 0 0 0 -0.49219,0.49219 0.49263942,0.49263942 0 0 0 0.49219,0.49218 0.49263942,0.49263942 0 0 0 0.49219,-0.49218 0.49263942,0.49263942 0 0 0 -0.49219,-0.49219 z m 18.88477,0.51367 a 14.862834,14.862834 0 0 0 -14.86133,14.86328 14.862834,14.862834 0 0 0 11.03711,14.35547 c 4.72139,-2.12393 9.08984,-5.15181 13.0957,-9.10937 2.1012,-2.07557 3.94108,-4.26588 5.52539,-6.56836 A 14.862834,14.862834 0 0 0 527.66016,250.125 Z m -15.42969,0.006 a 0.86349583,0.86349583 0 0 0 -0.86328,0.86328 0.86349583,0.86349583 0 0 0 0.86328,0.86328 0.86349583,0.86349583 0 0 0 0.86328,-0.86328 0.86349583,0.86349583 0 0 0 -0.86328,-0.86328 z m -5.81641,0.42773 a 1.5653526,1.5653526 0 0 0 -1.56445,1.56641 1.5653526,1.5653526 0 0 0 1.56445,1.56445 1.5653526,1.5653526 0 0 0 1.56446,-1.56445 1.5653526,1.5653526 0 0 0 -1.56446,-1.56641 z m -7.29492,0.3125 a 0.21629682,0.21629682 0 0 0 -0.20117,0.21485 0.21629682,0.21629682 0 0 0 0.2168,0.21679 0.21629682,0.21629682 0 0 0 0.21679,-0.21679 0.21629682,0.21629682 0 0 0 -0.21679,-0.21485 0.21629682,0.21629682 0 0 0 -0.0156,0 z m 10.93945,0.25391 a 0.30107245,0.30107245 0 0 0 -0.30078,0.30078 0.30107245,0.30107245 0 0 0 0.30078,0.30274 0.30107245,0.30107245 0 0 0 0.30079,-0.30274 0.30107245,0.30107245 0 0 0 -0.30079,-0.30078 z m 27.19141,0.42578 a 0.32892051,0.32892051 0 0 0 -0.32812,0.33008 0.32892051,0.32892051 0 0 0 0.32812,0.32812 0.32892051,0.32892051 0 0 0 0.33008,-0.32812 0.32892051,0.32892051 0 0 0 -0.33008,-0.33008 z m -37.58984,0.9668 a 0.51583505,0.51583505 0 0 0 -0.51563,0.51562 0.51583505,0.51583505 0 0 0 0.51563,0.51758 0.51583505,0.51583505 0 0 0 0.51562,-0.51758 0.51583505,0.51583505 0 0 0 -0.51562,-0.51562 z m 15.875,0.14258 a 0.81111312,0.81111312 0 0 0 -0.81055,0.81054 0.81111312,0.81111312 0 0 0 0.81055,0.81055 0.81111312,0.81111312 0 0 0 0.8125,-0.81055 0.81111312,0.81111312 0 0 0 -0.8125,-0.81054 z m 22.92382,0.0469 a 0.25933078,0.25933078 0 0 0 -0.24218,0.25977 0.25933078,0.25933078 0 0 0 0.25976,0.25781 0.25933078,0.25933078 0 0 0 0.25977,-0.25781 0.25933078,0.25933078 0 0 0 -0.25977,-0.25977 0.25933078,0.25933078 0 0 0 -0.0176,0 z m -27.6289,0.004 a 3.2072887,3.2072887 0 0 0 -3.20703,3.20703 3.2072887,3.2072887 0 0 0 3.20703,3.20898 3.2072887,3.2072887 0 0 0 3.20703,-3.20898 3.2072887,3.2072887 0 0 0 -3.20703,-3.20703 z m -19.5957,0.74218 a 1.3540163,1.3540163 0 0 0 -1.35352,1.35352 1.3540163,1.3540163 0 0 0 1.35352,1.35352 1.3540163,1.3540163 0 0 0 1.35351,-1.35352 1.3540163,1.3540163 0 0 0 -1.35351,-1.35352 z m 11.53906,0.18946 a 3.9773037,3.9773037 0 0 0 -3.97852,3.97656 3.9773037,3.9773037 0 0 0 3.97852,3.97852 3.9773037,3.9773037 0 0 0 3.97656,-3.97852 3.9773037,3.9773037 0 0 0 -3.97656,-3.97656 z m -8.5625,0.16406 a 0.59971195,0.59971195 0 0 0 -0.59961,0.60156 0.59971195,0.59971195 0 0 0 0.59961,0.59961 0.59971195,0.59971195 0 0 0 0.59961,-0.59961 0.59971195,0.59971195 0 0 0 -0.59961,-0.60156 z m 45.32031,0.0449 a 0.21629682,0.21629682 0 0 0 -0.2168,0.2168 0.21629682,0.21629682 0 0 0 0.2168,0.2168 0.21629682,0.21629682 0 0 0 0.21484,-0.2168 0.21629682,0.21629682 0 0 0 -0.21484,-0.2168 z m -42.99805,0.0586 a 0.68184978,0.68184978 0 0 0 -0.68164,0.68164 0.68184978,0.68184978 0 0 0 0.68164,0.68164 0.68184978,0.68184978 0 0 0 0.6836,-0.68164 0.68184978,0.68184978 0 0 0 -0.6836,-0.68164 z m -28.09961,0.28906 a 2.333977,2.333977 0 0 0 -2.33398,2.33398 2.333977,2.333977 0 0 0 2.33398,2.33399 2.333977,2.333977 0 0 0 2.33399,-2.33399 2.333977,2.333977 0 0 0 -2.33399,-2.33398 z m 30.27149,0.11914 a 0.1209136,0.1209136 0 0 0 -0.0996,0.11914 0.1209136,0.1209136 0 0 0 0.12109,0.12109 0.1209136,0.1209136 0 0 0 0.1211,-0.12109 0.1209136,0.1209136 0 0 0 -0.1211,-0.11914 0.1209136,0.1209136 0 0 0 -0.0215,0 z m 41.6914,0.71484 a 0.16222261,0.16222261 0 0 0 -0.15039,0.16211 0.16222261,0.16222261 0 0 0 0.16211,0.16211 0.16222261,0.16222261 0 0 0 0.16211,-0.16211 0.16222261,0.16222261 0 0 0 -0.16211,-0.16211 0.16222261,0.16222261 0 0 0 -0.0117,0 z m -42.3164,0.40821 a 0.09365926,0.09365926 0 0 0 -0.0781,0.0937 0.09365926,0.09365926 0 0 0 0.0937,0.0937 0.09365926,0.09365926 0 0 0 0.0937,-0.0937 0.09365926,0.09365926 0 0 0 -0.0937,-0.0937 0.09365926,0.09365926 0 0 0 -0.0156,0 z m 43.51758,0.4707 a 0.46829635,0.46829635 0 0 0 -0.46875,0.46875 0.46829635,0.46829635 0 0 0 0.46875,0.46875 0.46829635,0.46829635 0 0 0 0.46875,-0.46875 0.46829635,0.46829635 0 0 0 -0.46875,-0.46875 z m -46.91211,0.0859 a 0.32444522,0.32444522 0 0 0 -0.32422,0.32422 0.32444522,0.32444522 0 0 0 0.32422,0.32421 0.32444522,0.32444522 0 0 0 0.32422,-0.32421 0.32444522,0.32444522 0 0 0 -0.32422,-0.32422 z m 1.65039,0.31445 a 0.30107245,0.30107245 0 0 0 -0.30274,0.30078 0.30107245,0.30107245 0 0 0 0.30274,0.30078 0.30107245,0.30107245 0 0 0 0.30078,-0.30078 0.30107245,0.30107245 0 0 0 -0.30078,-0.30078 z m -3.31055,0.25391 a 0.41181687,0.41181687 0 0 0 -0.41211,0.41211 0.41181687,0.41181687 0 0 0 0.41211,0.4121 0.41181687,0.41181687 0 0 0 0.41211,-0.4121 0.41181687,0.41181687 0 0 0 -0.41211,-0.41211 z m -17.79492,0.31054 a 0.69459569,0.69459569 0 0 0 -0.69336,0.69336 0.69459569,0.69459569 0 0 0 0.69336,0.69531 0.69459569,0.69459569 0 0 0 0.69531,-0.69531 0.69459569,0.69459569 0 0 0 -0.69531,-0.69336 z m 15.08984,0.16407 a 0.07647248,0.07647248 0 0 0 -0.0645,0.0762 0.07647248,0.07647248 0 0 0 0.0762,0.0762 0.07647248,0.07647248 0 0 0 0.0762,-0.0762 0.07647248,0.07647248 0 0 0 -0.0762,-0.0762 0.07647248,0.07647248 0 0 0 -0.004,0 0.07647248,0.07647248 0 0 0 -0.008,0 z m -1.19336,0.20507 a 0.09365926,0.09365926 0 0 0 -0.0879,0.0937 0.09365926,0.09365926 0 0 0 0.0937,0.0937 0.09365926,0.09365926 0 0 0 0.0937,-0.0937 0.09365926,0.09365926 0 0 0 -0.0937,-0.0937 0.09365926,0.09365926 0 0 0 -0.006,0 z m 8.35547,0.21485 a 0.24779914,0.24779914 0 0 0 -0.23047,0.24804 0.24779914,0.24779914 0 0 0 0.24805,0.24805 0.24779914,0.24779914 0 0 0 0.24805,-0.24805 0.24779914,0.24779914 0 0 0 -0.24805,-0.24804 0.24779914,0.24779914 0 0 0 -0.0176,0 z m -15.25781,0.13086 a 2.2190199,2.2190199 0 0 0 -2.21875,2.21875 2.2190199,2.2190199 0 0 0 2.21875,2.21875 2.2190199,2.2190199 0 0 0 2.21875,-2.21875 2.2190199,2.2190199 0 0 0 -2.21875,-2.21875 z m 9.33789,0.0684 a 0.2649084,0.2649084 0 0 0 -0.24609,0.26367 0.2649084,0.2649084 0 0 0 0.26367,0.26562 0.2649084,0.2649084 0 0 0 0.26562,-0.26562 0.2649084,0.2649084 0 0 0 -0.26562,-0.26367 0.2649084,0.2649084 0 0 0 -0.0176,0 z m 3.49219,0.0137 a 1.6104673,1.6104673 0 0 0 -1.60938,1.60937 1.6104673,1.6104673 0 0 0 1.60938,1.61133 1.6104673,1.6104673 0 0 0 1.61133,-1.61133 1.6104673,1.6104673 0 0 0 -1.61133,-1.60937 z m -21.86133,0.0547 a 0.35868767,0.35868767 0 0 0 -0.35938,0.35937 0.35868767,0.35868767 0 0 0 0.35938,0.35938 0.35868767,0.35868767 0 0 0 0.35742,-0.35938 0.35868767,0.35868767 0 0 0 -0.35742,-0.35937 z m 69.1582,0 a 0.34624386,0.34624386 0 0 0 -0.32226,0.3457 0.34624386,0.34624386 0 0 0 0.34765,0.3457 0.34624386,0.34624386 0 0 0 0.34571,-0.3457 0.34624386,0.34624386 0 0 0 -0.34571,-0.3457 0.34624386,0.34624386 0 0 0 -0.0254,0 z m -54.30468,0.15429 a 0.1209136,0.1209136 0 0 0 -0.10938,0.1211 0.1209136,0.1209136 0 0 0 0.12109,0.12109 0.1209136,0.1209136 0 0 0 0.1211,-0.12109 0.1209136,0.1209136 0 0 0 -0.1211,-0.1211 0.1209136,0.1209136 0 0 0 -0.0117,0 z m 1.93554,0.32617 a 0.39736262,0.39736262 0 0 0 -0.36914,0.39649 0.39736262,0.39736262 0 0 0 0.39649,0.39844 0.39736262,0.39736262 0 0 0 0.39843,-0.39844 0.39736262,0.39736262 0 0 0 -0.39843,-0.39649 0.39736262,0.39736262 0 0 0 -0.0274,0 z m -13.01758,0.0254 a 0.20942849,0.20942849 0 0 0 -0.19531,0.20898 0.20942849,0.20942849 0 0 0 0.20899,0.20898 0.20942849,0.20942849 0 0 0 0.20898,-0.20898 0.20942849,0.20942849 0 0 0 -0.20898,-0.20898 0.20942849,0.20942849 0 0 0 -0.0137,0 z m -5.41406,0.15429 a 0.36274078,0.36274078 0 0 0 -0.36328,0.36328 0.36274078,0.36274078 0 0 0 0.36328,0.36328 0.36274078,0.36274078 0 0 0 0.36328,-0.36328 0.36274078,0.36274078 0 0 0 -0.36328,-0.36328 z m 7.03516,0.19141 a 0.45241728,0.45241728 0 0 0 -0.45313,0.45312 0.45241728,0.45241728 0 0 0 0.45313,0.45313 0.45241728,0.45241728 0 0 0 0.45117,-0.45313 0.45241728,0.45241728 0 0 0 -0.45117,-0.45312 z m 8.63086,0.36719 a 0.50146359,0.50146359 0 0 0 -0.50196,0.50195 0.50146359,0.50146359 0 0 0 0.50196,0.50195 0.50146359,0.50146359 0 0 0 0.50195,-0.50195 0.50146359,0.50146359 0 0 0 -0.50195,-0.50195 z m 56.57226,0.0566 a 0.97633529,0.97633529 0 0 0 -0.97656,0.97461 0.97633529,0.97633529 0 0 0 0.97656,0.97656 0.97633529,0.97633529 0 0 0 0.42774,-0.0996 c 0.18226,-0.3164 0.3717,-0.62886 0.54492,-0.94922 a 0.97633529,0.97633529 0 0 0 -0.97266,-0.90234 z m -52.06836,0.23047 a 0.74732035,0.74732035 0 0 0 -0.74804,0.74609 0.74732035,0.74732035 0 0 0 0.74804,0.74805 0.74732035,0.74732035 0 0 0 0.7461,-0.74805 0.74732035,0.74732035 0 0 0 -0.7461,-0.74609 z m -16.95117,0.0645 a 5.0076332,5.0076332 0 0 0 -4.99609,4.64844 c 1.28692,1.84264 2.74211,3.61464 4.35937,5.32031 a 5.0076332,5.0076332 0 0 0 0.63672,0.0469 5.0076332,5.0076332 0 0 0 5.00781,-5.00781 5.0076332,5.0076332 0 0 0 -5.00781,-5.00781 z m 14.03906,0.16601 a 0.05407421,0.05407421 0 0 0 -0.043,0.0547 0.05407421,0.05407421 0 0 0 0.0547,0.0547 0.05407421,0.05407421 0 0 0 0.0527,-0.0547 0.05407421,0.05407421 0 0 0 -0.0527,-0.0547 0.05407421,0.05407421 0 0 0 -0.0117,0 z m -18.64453,0.0254 a 0.35458827,0.35458827 0 0 0 -0.35547,0.35547 0.35458827,0.35458827 0 0 0 0.35547,0.35547 0.35458827,0.35458827 0 0 0 0.35352,-0.35547 0.35458827,0.35458827 0 0 0 -0.35352,-0.35547 z m 15.42969,0.22657 a 0.10814841,0.10814841 0 0 0 -0.10156,0.10742 0.10814841,0.10814841 0 0 0 0.10742,0.10937 0.10814841,0.10814841 0 0 0 0.10937,-0.10937 0.10814841,0.10814841 0 0 0 -0.10937,-0.10742 0.10814841,0.10814841 0 0 0 -0.006,0 z m -18.29883,0.0352 a 0.66005975,0.66005975 0 0 0 -0.10547,0.01 c 0.19447,0.36225 0.40344,0.71867 0.60938,1.07617 a 0.66005975,0.66005975 0 0 0 0.15625,-0.42578 0.66005975,0.66005975 0 0 0 -0.66016,-0.66016 z m 22.39258,0.58594 a 0.35868767,0.35868767 0 0 0 -0.35938,0.35938 0.35868767,0.35868767 0 0 0 0.35938,0.35937 0.35868767,0.35868767 0 0 0 0.35742,-0.35937 0.35868767,0.35868767 0 0 0 -0.35742,-0.35938 z m 22.20312,0.14844 a 0.36674911,0.36674911 0 0 0 -0.34179,0.36719 0.36674911,0.36674911 0 0 0 0.36719,0.36523 0.36674911,0.36674911 0 0 0 0.36718,-0.36523 0.36674911,0.36674911 0 0 0 -0.36718,-0.36719 0.36674911,0.36674911 0 0 0 -0.0254,0 z m -14.17187,0.0644 a 0.58239704,0.58239704 0 0 0 -0.58203,0.58203 0.58239704,0.58239704 0 0 0 0.58203,0.58399 0.58239704,0.58239704 0 0 0 0.58203,-0.58399 0.58239704,0.58239704 0 0 0 -0.58203,-0.58203 z m 10.54492,0.0937 a 3.5039918,3.5039918 0 0 0 -3.5039,3.50391 3.5039918,3.5039918 0 0 0 3.5039,3.5039 3.5039918,3.5039918 0 0 0 3.50391,-3.5039 3.5039918,3.5039918 0 0 0 -3.50391,-3.50391 z m -21.91601,0.18555 a 0.75703883,0.75703883 0 0 0 -0.75586,0.75781 0.75703883,0.75703883 0 0 0 0.75586,0.75586 0.75703883,0.75703883 0 0 0 0.75781,-0.75586 0.75703883,0.75703883 0 0 0 -0.75781,-0.75781 z m -17.04688,0.17969 a 0.20942849,0.20942849 0 0 0 -0.19336,0.20898 0.20942849,0.20942849 0 0 0 0.20899,0.20898 0.20942849,0.20942849 0 0 0 0.20898,-0.20898 0.20942849,0.20942849 0 0 0 -0.20898,-0.20898 0.20942849,0.20942849 0 0 0 -0.0156,0 z m 18.97461,0.20703 a 0.1430669,0.1430669 0 0 0 -0.13477,0.14258 0.1430669,0.1430669 0 0 0 0.14454,0.14257 0.1430669,0.1430669 0 0 0 0.14257,-0.14257 0.1430669,0.1430669 0 0 0 -0.14257,-0.14258 0.1430669,0.1430669 0 0 0 -0.01,0 z m 11.33203,0.43945 a 0.53256917,0.53256917 0 0 0 -0.5332,0.5332 0.53256917,0.53256917 0 0 0 0.5332,0.53321 0.53256917,0.53256917 0 0 0 0.5332,-0.53321 0.53256917,0.53256917 0 0 0 -0.5332,-0.5332 z m -6.91406,0.0859 a 11.205501,11.205501 0 0 0 -11.20508,11.20508 11.205501,11.205501 0 0 0 0.41016,2.95898 c 5.05344,3.41291 10.61716,5.59352 16.68554,6.55859 a 11.205501,11.205501 0 0 0 5.31641,-9.51757 11.205501,11.205501 0 0 0 -11.20703,-11.20508 z m -8.06836,0.89453 a 0.45883486,0.45883486 0 0 0 -0.42578,0.45898 0.45883486,0.45883486 0 0 0 0.45898,0.45899 0.45883486,0.45883486 0 0 0 0.45899,-0.45899 0.45883486,0.45883486 0 0 0 -0.45899,-0.45898 0.45883486,0.45883486 0 0 0 -0.0332,0 z m 16.79883,0.18945 a 0.6352281,0.6352281 0 0 0 -0.63672,0.63672 0.6352281,0.6352281 0 0 0 0.63672,0.63477 0.6352281,0.6352281 0 0 0 0.63476,-0.63477 0.6352281,0.6352281 0 0 0 -0.63476,-0.63672 z m -19.27735,0.25195 a 1.3212266,1.3212266 0 0 0 -1.32031,1.32032 1.3212266,1.3212266 0 0 0 1.32031,1.32226 1.3212266,1.3212266 0 0 0 1.32227,-1.32226 1.3212266,1.3212266 0 0 0 -1.32227,-1.32032 z m 20.30469,1.77344 a 0.25933078,0.25933078 0 0 0 -0.25781,0.25977 0.25933078,0.25933078 0 0 0 0.25781,0.25976 0.25933078,0.25933078 0 0 0 0.25977,-0.25976 0.25933078,0.25933078 0 0 0 -0.25977,-0.25977 z m 1.26953,1.06446 a 0.54074204,0.54074204 0 0 0 -0.53906,0.54101 0.54074204,0.54074204 0 0 0 0.53906,0.54102 0.54074204,0.54074204 0 0 0 0.54102,-0.54102 0.54074204,0.54074204 0 0 0 -0.54102,-0.54101 z m -21.95703,0.82812 a 0.20232716,0.20232716 0 0 0 -0.1875,0.20117 0.20232716,0.20232716 0 0 0 0.20117,0.20313 0.20232716,0.20232716 0 0 0 0.20313,-0.20313 0.20232716,0.20232716 0 0 0 -0.20313,-0.20117 0.20232716,0.20232716 0 0 0 -0.0137,0 z m 22.38086,1.24609 a 0.17099765,0.17099765 0 0 0 -0.1543,0.17188 0.17099765,0.17099765 0 0 0 0.17188,0.16992 0.17099765,0.17099765 0 0 0 0.16992,-0.16992 0.17099765,0.17099765 0 0 0 -0.16992,-0.17188 0.17099765,0.17099765 0 0 0 -0.0176,0 z m -22.80469,0.13282 a 0.05407421,0.05407421 0 0 0 -0.0469,0.0547 0.05407421,0.05407421 0 0 0 0.0527,0.0547 0.05407421,0.05407421 0 0 0 0.0547,-0.0547 0.05407421,0.05407421 0 0 0 -0.0547,-0.0547 0.05407421,0.05407421 0 0 0 -0.006,0 z m 26.73633,0.57617 a 1.2864662,1.2864662 0 0 0 -1.28711,1.28711 1.2864662,1.2864662 0 0 0 1.28711,1.28515 1.2864662,1.2864662 0 0 0 1.28516,-1.28515 1.2864662,1.2864662 0 0 0 -1.28516,-1.28711 z m -27.4414,0.40039 a 0.29617661,0.29617661 0 0 0 -0.27539,0.29687 0.29617661,0.29617661 0 0 0 0.29687,0.29493 0.29617661,0.29617661 0 0 0 0.29687,-0.29493 0.29617661,0.29617661 0 0 0 -0.29687,-0.29687 0.29617661,0.29617661 0 0 0 -0.0215,0 z m 24.31445,0.0703 a 0.47140795,0.47140795 0 0 0 -0.4375,0.4707 0.47140795,0.47140795 0 0 0 0.47266,0.47071 0.47140795,0.47140795 0 0 0 0.4707,-0.47071 0.47140795,0.47140795 0 0 0 -0.4707,-0.4707 0.47140795,0.47140795 0 0 0 -0.0352,0 z m 7.03125,1.42774 a 1.1710529,1.1710529 0 0 0 -1.16992,1.16992 1.1710529,1.1710529 0 0 0 1.16992,1.17187 1.1710529,1.1710529 0 0 0 1.17187,-1.17187 1.1710529,1.1710529 0 0 0 -1.17187,-1.16992 z m -36.52344,0.0195 c 1.57288,1.53875 3.20309,2.93666 4.89453,4.18945 a 7.9962206,7.9962206 0 0 0 -4.89453,-4.18945 z m 30.10547,0.45508 a 0.71533453,0.71533453 0 0 0 -0.66602,0.71484 0.71533453,0.71533453 0 0 0 0.7168,0.71484 0.71533453,0.71533453 0 0 0 0.71484,-0.71484 0.71533453,0.71533453 0 0 0 -0.71484,-0.71484 0.71533453,0.71533453 0 0 0 -0.0508,0 z m 3.66016,1.02734 a 0.73747379,0.73747379 0 0 0 -0.73828,0.73828 0.73747379,0.73747379 0 0 0 0.73828,0.73633 0.73747379,0.73747379 0 0 0 0.73828,-0.73633 0.73747379,0.73747379 0 0 0 -0.73828,-0.73828 z m -2.66993,1.32617 a 1.7869051,1.7869051 0 0 0 -1.78711,1.78516 1.7869051,1.7869051 0 0 0 1.78711,1.78711 1.7869051,1.7869051 0 0 0 1.78711,-1.78711 1.7869051,1.7869051 0 0 0 -1.78711,-1.78516 z m 5.61329,0.55664 a 0.59971195,0.59971195 0 0 0 -0.59961,0.59961 0.59971195,0.59971195 0 0 0 0.59961,0.59961 0.59971195,0.59971195 0 0 0 0.5996,-0.59961 0.59971195,0.59971195 0 0 0 -0.5996,-0.59961 z m -2.6504,0.61719 a 0.17099765,0.17099765 0 0 0 -0.16015,0.17187 0.17099765,0.17099765 0 0 0 0.17187,0.16993 0.17099765,0.17099765 0 0 0 0.16993,-0.16993 0.17099765,0.17099765 0 0 0 -0.16993,-0.17187 0.17099765,0.17099765 0 0 0 -0.0117,0 z m 1.01758,1.2168 a 1.7778821,1.7778821 0 0 0 -1.77734,1.77929 1.7778821,1.7778821 0 0 0 1.77734,1.77735 1.7778821,1.7778821 0 0 0 1.7793,-1.77735 1.7778821,1.7778821 0 0 0 -1.7793,-1.77929 z m 2.83789,0.01 a 0.34624386,0.34624386 0 0 0 -0.3457,0.34766 0.34624386,0.34624386 0 0 0 0.3457,0.3457 0.34624386,0.34624386 0 0 0 0.34571,-0.3457 0.34624386,0.34624386 0 0 0 -0.34571,-0.34766 z m 0.33203,1.70703 a 0.38616708,0.38616708 0 0 0 -0.35742,0.38477 0.38616708,0.38616708 0 0 0 0.38477,0.38672 0.38616708,0.38616708 0 0 0 0.38672,-0.38672 0.38616708,0.38616708 0 0 0 -0.38672,-0.38477 0.38616708,0.38616708 0 0 0 -0.0273,0 z m -7.97265,0.45899 a 3.1339724,3.1339724 0 0 0 -3.13477,3.13281 3.1339724,3.1339724 0 0 0 0.59571,1.83398 c 0.92428,0.0524 1.85673,0.0879 2.80273,0.0879 0.75539,0 1.50396,-0.0188 2.24609,-0.0527 a 3.1339724,3.1339724 0 0 0 0.62305,-1.86914 3.1339724,3.1339724 0 0 0 -3.13281,-3.13281 z m 7.35547,1.25195 a 0.52705014,0.52705014 0 0 0 -0.52735,0.52734 0.52705014,0.52705014 0 0 0 0.52735,0.52735 0.52705014,0.52705014 0 0 0 0.52734,-0.52735 0.52705014,0.52705014 0 0 0 -0.52734,-0.52734 z m -2.6875,1.17578 a 0.48966277,0.48966277 0 0 0 -0.49024,0.49024 0.48966277,0.48966277 0 0 0 0.49024,0.48828 0.48966277,0.48966277 0 0 0 0.49023,-0.48828 0.48966277,0.48966277 0 0 0 -0.49023,-0.49024 z m 2.00195,0.82422 a 0.727494,0.727494 0 0 0 -0.72656,0.72656 0.727494,0.727494 0 0 0 0.45508,0.67383 c 0.23802,-0.0312 0.47632,-0.0607 0.71289,-0.0957 a 0.727494,0.727494 0 0 0 0.28515,-0.57813 0.727494,0.727494 0 0 0 -0.72656,-0.72656 z m -2.60742,1.09766 a 0.10814841,0.10814841 0 0 0 -0.0879,0.10742 0.10814841,0.10814841 0 0 0 0.10742,0.10742 0.10814841,0.10814841 0 0 0 0.10742,-0.10742 0.10814841,0.10814841 0 0 0 -0.10742,-0.10742 0.10814841,0.10814841 0 0 0 -0.0195,0 z"
       id="path16500"
       inkscape:connector-curvature="0" />
    <path
       inkscape:connector-curvature="0"
       id="path16502"
       style="font-style:normal;font-variant:normal;font-weight:bold;font-stretch:normal;font-size:160px;line-height:125%;font-family:Comfortaa;-inkscape-font-specification:'Comfortaa, Bold';text-align:start;letter-spacing:0px;word-spacing:0px;writing-mode:lr-tb;text-anchor:start;fill:#31a354;fill-opacity:1;stroke:none;stroke-width:1px;stroke-linecap:butt;stroke-linejoin:miter;stroke-opacity:1"
       d="m 685.75923,274.8432 q 0,3.4375 -2.4219,5.85938 -2.3437,2.34375 -5.7031,2.34375 -3.4375,0 -5.7813,-2.34375 -2.3437,-2.42188 -2.3437,-5.85938 l 0,-44.45312 q 0,-3.75 -1.4844,-7.10937 -1.4062,-3.35938 -3.9062,-5.85938 -2.5,-2.57812 -5.9375,-4.0625 -3.3594,-1.48437 -7.2657,-1.48437 -3.8281,0 -7.1875,1.48437 -3.3593,1.48438 -5.9375,3.98438 -2.5,2.5 -3.9843,5.85937 -1.4063,3.35937 -1.4063,7.1875 l 0,44.45312 q 0,3.4375 -2.4219,5.85938 -2.3437,2.34375 -5.7031,2.34375 -3.4375,0 -5.8594,-2.34375 -2.3437,-2.42188 -2.3437,-5.85938 l 0,-44.45312 q 0,-3.82813 -1.4844,-7.1875 -1.4844,-3.35937 -3.9844,-5.85937 -2.5,-2.5 -5.8593,-3.98438 -3.3594,-1.48437 -7.1875,-1.48437 -3.8282,0 -7.1875,1.48437 -3.3594,1.40625 -5.9375,3.98438 -2.5,2.5 -3.9844,5.85937 -1.4063,3.35937 -1.4063,7.1875 l 0,44.45312 q 0,3.4375 -2.4218,5.85938 -2.3438,2.34375 -5.7032,2.34375 -3.4375,0 -5.8593,-2.34375 -2.3438,-2.42188 -2.3438,-5.85938 l 0,-71.17187 q 0,-3.35937 2.3438,-5.70312 2.4218,-2.42188 5.7812,-2.42188 2.7344,0 4.8438,1.5625 2.1093,1.48438 2.8906,3.98438 8.3594,-5.54688 18.9844,-5.54688 7.8125,0 14.6875,3.125 6.875,3.04688 12.0312,9.29688 10.8594,-12.42188 26.6406,-12.42188 7.1094,0 13.4375,2.8125 6.4063,2.73438 11.0938,7.5 4.7656,4.6875 7.5,11.09375 2.8125,6.32813 2.8125,13.4375 l 0,44.45312 z" />
    <path
       inkscape:connector-curvature="0"
       id="path16504"
       style="font-style:normal;font-variant:normal;font-weight:bold;font-stretch:normal;font-size:160px;line-height:125%;font-family:Comfortaa;-inkscape-font-specification:'Comfortaa, Bold';text-align:start;letter-spacing:0px;word-spacing:0px;writing-mode:lr-tb;text-anchor:start;fill:#31a354;fill-opacity:1;stroke:none;stroke-width:1px;stroke-linecap:butt;stroke-linejoin:miter;stroke-opacity:1"
       d="m 769.82173,231.17133 q -1.3281,-4.29688 -3.9844,-7.8125 -2.5781,-3.59375 -6.0937,-6.09375 -3.4375,-2.57812 -7.6563,-3.98437 -4.1406,-1.40625 -8.5937,-1.40625 -4.4532,0 -8.6719,1.40625 -4.2188,1.40625 -7.7344,3.98437 -3.5156,2.5 -6.0937,6.09375 -2.5782,3.51562 -3.8282,7.8125 l 52.6563,0 z m -3.5156,27.26562 q 3.5156,0 5.7812,2.34375 2.3438,2.26563 2.3438,5.78125 0,3.4375 -2.3438,5.85938 -12.1094,10.625 -28.5937,10.625 -18.125,0 -30.9375,-12.8125 -12.8125,-12.8125 -12.8125,-30.9375 0,-18.125 12.8125,-30.9375 12.8125,-12.8125 30.9375,-12.8125 17.9687,0 30.9375,12.8125 6.4062,6.32813 9.6093,14.14063 3.2032,7.73437 3.2032,16.79687 0,3.51562 -2.4219,5.85937 -2.3438,2.26563 -5.7813,2.26563 l -61.875,0 q 1.3282,4.29687 3.9063,7.89062 2.5781,3.51563 6.0156,6.09375 3.5156,2.5 7.6563,3.90625 4.2187,1.40625 8.75,1.40625 5.1562,0 9.4531,-1.5625 4.2969,-1.5625 7.9687,-4.6875 2.3438,-1.95312 5.3907,-2.03125 z" />
  </g>
</svg>
