<?xml version="1.0" encoding="UTF-8" standalone="no"?>
<svg
   xmlns:dc="http://purl.org/dc/elements/1.1/"
   xmlns:cc="http://creativecommons.org/ns#"
   xmlns:rdf="http://www.w3.org/1999/02/22-rdf-syntax-ns#"
   xmlns:svg="http://www.w3.org/2000/svg"
   xmlns="http://www.w3.org/2000/svg"
   xmlns:sodipodi="http://sodipodi.sourceforge.net/DTD/sodipodi-0.dtd"
   xmlns:inkscape="http://www.inkscape.org/namespaces/inkscape"
   width="745"
   height="163"
   id="svg2"
   version="1.1"
   inkscape:version="0.91 r13725"
   sodipodi:docname="visibiome2.svg">
  <metadata
     id="metadata4499">
    <rdf:RDF>
      <cc:Work
         rdf:about="">
        <dc:format>image/svg+xml</dc:format>
        <dc:type
           rdf:resource="http://purl.org/dc/dcmitype/StillImage" />
        <dc:title></dc:title>
      </cc:Work>
    </rdf:RDF>
  </metadata>
  <defs
     id="defs4497"> Status
.lua
.1.js-file-packer
.alert
.7bits.mjomatic
.sd.grid
.screen
.pvertenten.cycle
.lx.lockscreen
.lb.spotify
.lb.itunes
.keycodes
.jstevenson.cursor
.hotkey
.grille
.geometry
.fnutils
.cmsj.caffeinate
.cmsj.appfinder
.chdiza.slateops
.bg.grid
._asm.watcher.screen
._asm.watcher.battery
._asm.utf8_53
._asm.undocumented.coredock
._asm.undocumented.cgsdebug
._asm.undocumented.bluetooth
._asm.ui.sound
._asm.ui.notification
._asm.timer
._asm.sys.mouse
._asm.sys.brightness
._asm.sys.battery
._asm.sys.audiodevice
._asm.settings
._asm.pathwatcher
._asm.notify
._asm.modules
._asm.modal_hotkey
._asm.ipc.cli
._asm.ipc
._asm.hydra.undocumented
._asm.hydra.dockicon
._asm.hydra.applescript
._asm.hydra
._asm.eventtap.event
._asm.eventtap
._asm.data.pasteboard
._asm.data.json
._asm.data.base64
._asm.data
._asm.compat_51
._asm.applistener
._asm
.application
.winter
.tiling
.th.hints
.sk.transform
.lua
.conman.uuid
.conman.syslog
.conman.parsers.ip
.conman.parsers.ini
.conman.parsers.email
.conman.iconv
.conman.errno
.conman.env
.conman.cbor
.n
.color
.strict
.prototype
.normalize
</defs>
  <sodipodi:namedview
     pagecolor="#ffffff"
     bordercolor="#666666"
     borderopacity="1"
     objecttolerance="10"
     gridtolerance="10"
     guidetolerance="10"
     inkscape:pageopacity="0"
     inkscape:pageshadow="2"
     inkscape:window-width="1301"
     inkscape:window-height="744"
     id="namedview4495"
     showgrid="false"
     fit-margin-top="0"
     fit-margin-left="0"
     fit-margin-right="0"
     fit-margin-bottom="0"
     inkscape:zoom="0.70710678"
     inkscape:cx="235.95284"
     inkscape:cy="78.818578"
     inkscape:window-x="65"
     inkscape:window-y="24"
     inkscape:window-maximized="1"
     inkscape:current-layer="layer1"
     inkscape:snap-text-baseline="false"
     showguides="true"
     inkscape:guide-bbox="true" />
  <circle
     cy="345.9306"
     cx="563.98553"
     id="circle49"
     style="fill:#31a354"
     r="0" />
  <circle
     cy="345.25781"
     cx="560.98883"
     id="circle53"
     style="fill:#31a354"
     r="0" />
  <circle
     cy="345.96088"
     cx="557.99902"
     id="circle57"
     style="fill:#31a354"
     r="0" />
  <circle
     cy="347.89868"
     cx="555.61615"
     id="circle61"
     style="fill:#31a354"
     r="0" />
  <circle
     cy="350.68231"
     cx="554.31836"
     id="circle65"
     style="fill:#31a354"
     r="0" />
  <circle
     cy="411.9483"
     cx="505.03958"
     id="circle401"
     style="fill:#636363"
     r="0" />
  <circle
     cy="294.83405"
     cx="489.81143"
     id="circle1165"
     style="fill:#9e9ac8"
     r="0" />
  <circle
     cy="398.62653"
     cx="355.76352"
     id="circle1333"
     style="fill:#31a354"
     r="0" />
  <circle
     cy="452.69434"
     cx="389.20746"
     id="circle1377"
     style="fill:#9e9ac8"
     r="0" />
  <circle
     cy="121.593"
     cx="575.06927"
     id="circle2425"
     style="fill:#31a354"
     r="0" />
  <circle
     cy="154.78513"
     cx="873.48792"
     id="circle3665"
     style="fill:#dadaeb"
     r="0" />
  <circle
     cy="339.53656"
     cx="174.50693"
     id="circle4397"
     style="fill:#3182bd"
     r="0" />
  <g
     inkscape:groupmode="layer"
     id="layer1"
     inkscape:label="Layer 1"
     transform="translate(-52.45322,-165.85894)">
    <path
       inkscape:connector-curvature="0"
       id="path4165"
       style="font-style:normal;font-variant:normal;font-weight:bold;font-stretch:normal;font-size:160px;line-height:125%;font-family:Comfortaa;-inkscape-font-specification:'Comfortaa, Bold';text-align:start;letter-spacing:0px;word-spacing:0px;writing-mode:lr-tb;text-anchor:start;fill:#31a354;fill-opacity:1;stroke:none;stroke-width:1px;stroke-linecap:butt;stroke-linejoin:miter;stroke-opacity:1"
       d="m 339.40635,252.84332 q 0,4.45313 1.64062,8.4375 1.71875,3.90625 4.60938,6.875 2.96875,2.89063 6.95312,4.60938 3.98438,1.64062 8.51563,1.64062 4.53125,0 8.51562,-1.71875 3.98438,-1.71875 6.875,-4.6875 2.96875,-2.96875 4.6875,-6.875 1.71875,-3.98437 1.71875,-8.4375 0,-4.45312 -1.71875,-8.35937 -1.71875,-3.98438 -4.6875,-6.95313 -2.89062,-2.96875 -6.875,-4.6875 -3.98437,-1.79687 -8.51562,-1.79687 l -6.01563,0 q -3.51562,0 -5.9375,-2.34375 -2.34375,-2.34375 -2.34375,-5.9375 0,-3.59375 2.34375,-5.85938 2.42188,-2.34375 5.9375,-2.34375 3.20313,0 6.09375,-1.25 2.89063,-1.32812 5,-3.4375 2.10938,-2.10937 3.35938,-4.92187 1.32812,-2.89063 1.32812,-6.17188 0,-3.20312 -1.32812,-6.09375 -1.25,-2.89062 -3.4375,-5 -2.10938,-2.1875 -5,-3.4375 -2.8125,-1.25 -6.01563,-1.25 -3.20312,0 -6.09375,1.25 -2.8125,1.17188 -5,3.35938 -2.10937,2.10937 -3.35937,5 -1.25,2.89062 -1.25,6.17187 l 0,54.21875 z m 48.75,-27.34375 q 11.25,11.32813 11.25,27.1875 0,7.8125 -3.04688,14.76563 -2.96875,6.95312 -8.20312,12.1875 -5.15625,5.23437 -12.1875,8.28125 -6.95313,3.04687 -14.84375,3.04687 -12.34375,0 -21.71875,-6.71875 l 0,36.32813 q 0,1.71875 -0.70313,3.20312 -0.70312,1.48438 -1.79687,2.65625 -1.09375,1.17188 -2.57813,1.79688 -1.48437,0.625 -3.28125,0.625 -3.51562,0 -5.85937,-2.42188 -2.34375,-2.34375 -2.34375,-5.85937 l 0,-121.95313 q 0,-6.5625 2.5,-12.42187 2.57812,-5.9375 6.95312,-10.3125 4.375,-4.45313 10.23438,-7.03125 5.9375,-2.57813 12.57812,-2.57813 6.64063,0 12.5,2.57813 5.85938,2.57812 10.23438,7.03125 4.45312,4.375 6.95312,10.23437 2.57813,5.85938 2.57813,12.5 0,11.79688 -7.34375,20.54688 4.84375,2.73437 8.125,6.32812 z" />
    <path
       inkscape:connector-curvature="0"
       id="path4157"
       style="font-style:normal;font-variant:normal;font-weight:bold;font-stretch:normal;font-size:160px;line-height:125%;font-family:Comfortaa;-inkscape-font-specification:'Comfortaa, Bold';text-align:start;letter-spacing:0px;word-spacing:0px;writing-mode:lr-tb;text-anchor:start;fill:#ffffff;fill-opacity:1;stroke:none;stroke-width:1px;stroke-linecap:butt;stroke-linejoin:miter;stroke-opacity:1"
       d="m 102.92197,291.43707 q -5.46875,0 -7.578125,-5.23437 L 53.39072,178.93707 q -0.9375,-2.42187 -0.9375,-4.21875 0,-1.71875 0.625,-3.20312 0.625,-1.5625 1.71875,-2.65625 1.171875,-1.17188 2.65625,-1.79688 1.484375,-0.625 3.28125,-0.625 5.46875,0 7.65625,4.92188 l 34.53125,88.82812 34.53125,-88.82812 q 1.875,-4.92188 7.65625,-4.92188 1.71875,0 3.20313,0.625 1.5625,0.625 2.65625,1.79688 1.17187,1.09375 1.79687,2.65625 0.625,1.48437 0.625,3.20312 0,2.03125 -0.9375,4.21875 L 110.5001,286.2027 q -2.10938,5.23437 -7.57813,5.23437 z" />
    <path
       inkscape:connector-curvature="0"
       id="path4159"
       style="font-style:normal;font-variant:normal;font-weight:bold;font-stretch:normal;font-size:160px;line-height:125%;font-family:Comfortaa;-inkscape-font-specification:'Comfortaa, Bold';text-align:start;letter-spacing:0px;word-spacing:0px;writing-mode:lr-tb;text-anchor:start;fill:#ffffff;fill-opacity:1;stroke:none;stroke-width:1px;stroke-linecap:butt;stroke-linejoin:miter;stroke-opacity:1"
       d="m 187.29697,188.3902 q 0,3.98437 -2.8125,6.79687 -2.8125,2.8125 -6.79687,2.8125 -3.98438,0 -6.79688,-2.8125 -2.8125,-2.8125 -2.8125,-6.79687 0,-3.98438 2.8125,-6.79688 2.8125,-2.8125 6.79688,-2.8125 3.98437,0 6.79687,2.8125 2.8125,2.8125 2.8125,6.79688 z m -17.73437,94.84375 0,-71.09375 q 0,-3.4375 2.34375,-5.78125 2.42187,-2.42188 5.78125,-2.42188 3.35937,0 5.70312,2.42188 2.42188,2.34375 2.5,5.78125 l 0,71.09375 q -0.0781,3.4375 -2.5,5.85937 -2.34375,2.34375 -5.70312,2.34375 -3.35938,0 -5.78125,-2.34375 -2.34375,-2.42187 -2.34375,-5.85937 z" />
    <path
       inkscape:connector-curvature="0"
       id="path4161"
       style="font-style:normal;font-variant:normal;font-weight:bold;font-stretch:normal;font-size:160px;line-height:125%;font-family:Comfortaa;-inkscape-font-specification:'Comfortaa, Bold';text-align:start;letter-spacing:0px;word-spacing:0px;writing-mode:lr-tb;text-anchor:start;fill:#ffffff;fill-opacity:1;stroke:none;stroke-width:1px;stroke-linecap:butt;stroke-linejoin:miter;stroke-opacity:1"
       d="m 218.6251,249.79645 q -7.34375,-2.8125 -10.3125,-5.78125 l 0.0781,0 q -5.9375,-6.01563 -5.9375,-14.14063 0,-5.9375 3.125,-10.70312 3.20313,-4.84375 8.28125,-8.20313 5.07813,-3.35937 11.40625,-5.15625 6.40625,-1.875 12.8125,-1.875 19.53125,0 33.51563,15.70313 1.64062,2.03125 1.64062,4.92187 0,3.51563 -2.34375,5.85938 -2.26562,2.26562 -5.78125,2.26562 -2.5,0 -4.29687,-1.40625 -1.71875,-1.40625 -3.35938,-3.04687 -7.96875,-7.96875 -19.375,-7.96875 -11.25,0 -17.96875,6.875 -1.25,1.25 -1.25,3.4375 0,2.1875 2.03125,2.96875 l 36.5625,12.03125 q 7.65625,2.96875 10.3125,5.78125 l -0.0781,0 q 5.9375,6.01562 5.9375,14.14062 0,6.01563 -3.20313,10.78125 -3.125,4.76563 -8.20312,8.20313 -5.07813,3.35937 -11.40625,5.15625 -6.32813,1.79687 -12.73438,1.79687 -19.6875,0 -33.51562,-15.54687 -1.71875,-2.26563 -1.71875,-5.07813 0,-3.51562 2.26562,-5.78125 2.34375,-2.34375 5.85938,-2.34375 2.57812,0 4.375,1.5625 1.79687,1.48438 3.28125,2.89063 7.96875,7.96875 19.45312,7.96875 11.17188,0 17.96875,-7.03125 1.17188,-1.32813 1.17188,-3.20313 0,-2.1875 -2.10938,-3.04687 L 218.6251,249.79645 Z" />
    <path
       inkscape:connector-curvature="0"
       id="path4163"
       style="font-style:normal;font-variant:normal;font-weight:bold;font-stretch:normal;font-size:160px;line-height:125%;font-family:Comfortaa;-inkscape-font-specification:'Comfortaa, Bold';text-align:start;letter-spacing:0px;word-spacing:0px;writing-mode:lr-tb;text-anchor:start;fill:#ffffff;fill-opacity:1;stroke:none;stroke-width:1px;stroke-linecap:butt;stroke-linejoin:miter;stroke-opacity:1"
       d="m 307.60947,188.3902 q 0,3.98437 -2.8125,6.79687 -2.8125,2.8125 -6.79687,2.8125 -3.98438,0 -6.79688,-2.8125 -2.8125,-2.8125 -2.8125,-6.79687 0,-3.98438 2.8125,-6.79688 2.8125,-2.8125 6.79688,-2.8125 3.98437,0 6.79687,2.8125 2.8125,2.8125 2.8125,6.79688 z m -17.73437,94.84375 0,-71.09375 q 0,-3.4375 2.34375,-5.78125 2.42187,-2.42188 5.78125,-2.42188 3.35937,0 5.70312,2.42188 2.42188,2.34375 2.5,5.78125 l 0,71.09375 q -0.0781,3.4375 -2.5,5.85937 -2.34375,2.34375 -5.70312,2.34375 -3.35938,0 -5.78125,-2.34375 -2.34375,-2.42187 -2.34375,-5.85937 z" />
    <path
       inkscape:connector-curvature="0"
       id="path4167"
       style="font-style:normal;font-variant:normal;font-weight:bold;font-stretch:normal;font-size:160px;line-height:125%;font-family:Comfortaa;-inkscape-font-specification:'Comfortaa, Bold';text-align:start;letter-spacing:0px;word-spacing:0px;writing-mode:lr-tb;text-anchor:start;fill:#31a354;fill-opacity:1;stroke:none;stroke-width:1px;stroke-linecap:butt;stroke-linejoin:miter;stroke-opacity:1"
       d="m 432.60947,188.3902 q 0,3.98437 -2.8125,6.79687 -2.8125,2.8125 -6.79687,2.8125 -3.98438,0 -6.79688,-2.8125 -2.8125,-2.8125 -2.8125,-6.79687 0,-3.98438 2.8125,-6.79688 2.8125,-2.8125 6.79688,-2.8125 3.98437,0 6.79687,2.8125 2.8125,2.8125 2.8125,6.79688 z m -17.73437,94.84375 0,-71.09375 q 0,-3.4375 2.34375,-5.78125 2.42187,-2.42188 5.78125,-2.42188 3.35937,0 5.70312,2.42188 2.42188,2.34375 2.5,5.78125 l 0,71.09375 q -0.0781,3.4375 -2.5,5.85937 -2.34375,2.34375 -5.70312,2.34375 -3.35938,0 -5.78125,-2.34375 -2.34375,-2.42187 -2.34375,-5.85937 z" />
    <path
       style="font-style:normal;font-variant:normal;font-weight:bold;font-stretch:normal;font-size:160px;line-height:125%;font-family:Comfortaa;-inkscape-font-specification:'Comfortaa, Bold';text-align:start;letter-spacing:0px;word-spacing:0px;writing-mode:lr-tb;text-anchor:start;fill:#31a354;fill-opacity:1;stroke:none;stroke-width:1px;stroke-linecap:butt;stroke-linejoin:miter;stroke-opacity:1"
       d="m 433.26758,26.267578 c -2.34375,0 -4.29688,0.807285 -5.85938,2.421875 -1.51042,1.5625 -2.26562,3.48958 -2.26562,5.78125 0,2.8125 0.67708,5.442705 2.03125,7.890625 0.40228,0.70027 0.84716,1.372355 1.32617,2.021484 -2.87059,1.790331 -5.58669,3.953863 -8.14062,6.507813 -2.61217,2.61216 -4.81949,5.392558 -6.63282,8.335937 -0.66221,-0.49123 -1.34882,-0.946311 -2.06445,-1.357421 -2.44792,-1.35417 -5.07813,-2.03125 -7.89063,-2.03125 -2.29167,0 -4.21875,0.755205 -5.78125,2.265625 -1.61459,1.5625 -2.42187,3.515625 -2.42187,5.859375 0,2.34375 0.78125,4.296875 2.34375,5.859375 1.19792,1.14583 2.60417,1.848965 4.21875,2.109375 1.45833,0.15625 2.68228,1.14585 3.67187,2.96875 1.09375,1.9271 1.64063,4.244795 1.64063,6.953125 0,2.70833 -0.54688,5.026055 -1.64063,6.953125 -0.98959,1.82293 -2.21354,2.786455 -3.67187,2.890625 -1.61458,0.3125 -3.02083,1.04167 -4.21875,2.1875 -1.5625,1.5625 -2.34375,3.515625 -2.34375,5.859375 0,2.343749 0.80728,4.270839 2.42187,5.781249 1.5625,1.5625 3.48958,2.34375 5.78125,2.34375 2.8125,0 5.44271,-0.70312 7.89063,-2.10937 0.71723,-0.39677 1.40478,-0.84055 2.06836,-1.32227 1.81248,2.94065 4.01891,5.71815 6.62891,8.32812 2.56211,2.56214 5.28719,4.7318 8.16796,6.5254 -0.49099,0.66196 -0.94648,1.34716 -1.35742,2.0625 -1.35417,2.44792 -2.03125,5.07812 -2.03125,7.89062 0,2.29167 0.75521,4.21875 2.26563,5.78125 1.5625,1.61459 3.51562,2.42188 5.85937,2.42188 2.34375,0 4.29688,-0.78125 5.85938,-2.34375 1.14583,-1.19792 1.84896,-2.60417 2.10937,-4.21875 0.15625,-1.45833 1.14584,-2.68229 2.96875,-3.67188 1.91389,-1.08626 4.21398,-1.63123 6.89844,-1.63867 0.0663,2.6e-4 0.13087,0.004 0.19727,0.004 0.0158,0 0.0311,-0.002 0.0469,-0.002 2.62598,0.0253 4.88231,0.56892 6.76367,1.63672 1.82292,0.98959 2.78646,2.21355 2.89063,3.67188 0.3125,1.61458 1.04167,3.02083 2.1875,4.21875 1.5625,1.5625 3.51562,2.34375 5.85937,2.34375 2.34375,0 4.27084,-0.80729 5.78125,-2.42188 1.5625,-1.5625 2.34375,-3.48958 2.34375,-5.78125 0,-2.8125 -0.70312,-5.4427 -2.10937,-7.89062 -0.37318,-0.67459 -0.788,-1.3221 -1.23633,-1.94922 2.95902,-1.81434 5.7635,-4.0239 8.41016,-6.63868 2.58177,-2.55029 4.76498,-5.27507 6.5664,-8.16796 0.59699,0.42143 1.21384,0.81215 1.85352,1.16601 2.44792,1.40625 5.07812,2.10938 7.89062,2.10938 2.29168,0 4.21875,-0.78125 5.78125,-2.34375 1.6146,-1.51041 2.42188,-3.4375 2.42188,-5.781253 0,-2.34375 -0.78125,-4.296875 -2.34375,-5.859375 -1.19792,-1.14583 -2.60417,-1.875 -4.21875,-2.1875 -1.45833,-0.10417 -2.68228,-1.067705 -3.67188,-2.890625 -0.79639,-1.40316 -1.29911,-3.016635 -1.51562,-4.833985 0.0301,-0.70975 0.0488,-1.425487 0.0488,-2.148437 -0.006,-0.67173 -0.029,-1.335304 -0.0605,-1.996094 0.21003,-1.8562 0.71713,-3.500224 1.52734,-4.927734 0.9896,-1.82291 2.21355,-2.8125 3.67188,-2.96875 1.61458,-0.26041 3.02083,-0.963545 4.21875,-2.109375 1.5625,-1.5625 2.34375,-3.515625 2.34375,-5.859375 0,-2.34375 -0.80728,-4.296875 -2.42188,-5.859375 -1.5625,-1.51042 -3.48957,-2.265625 -5.78125,-2.265625 -2.8125,0 -5.4427,0.67708 -7.89062,2.03125 -0.65439,0.37592 -1.28481,0.787549 -1.89453,1.230469 -1.77993,-2.8973 -3.95006,-5.637541 -6.52539,-8.212891 -2.63707,-2.60528 -5.43175,-4.806538 -8.37891,-6.617187 0.43765,-0.615261 0.84344,-1.25132 1.20898,-1.91211 1.40625,-2.44792 2.10938,-5.078125 2.10938,-7.890625 0,-2.29167 -0.78125,-4.21875 -2.34375,-5.78125 -1.51041,-1.61459 -3.4375,-2.421875 -5.78125,-2.421875 -2.34375,0 -4.29688,0.78125 -5.85938,2.34375 -1.14583,1.19792 -1.875,2.60417 -2.1875,4.21875 -0.10417,1.45833 -1.0677,2.682285 -2.89062,3.671875 -1.63909,0.9303 -3.56329,1.460589 -5.76758,1.599609 -0.34914,-0.007 -0.69486,-0.02344 -1.04687,-0.02344 -0.42593,0 -0.84411,0.0187 -1.26563,0.0293 -2.22934,-0.13307 -4.17227,-0.666769 -5.82617,-1.605469 -1.82291,-0.98959 -2.8125,-2.213545 -2.96875,-3.671875 -0.26041,-1.61458 -0.96355,-3.02083 -2.10938,-4.21875 -1.5625,-1.5625 -3.51562,-2.34375 -5.85937,-2.34375 z m 35.24219,28.494141 c 2.65625,0 4.92187,0.9375 6.79687,2.8125 1.875,1.875 2.8125,4.140625 2.8125,6.796875 0,2.65625 -0.9375,4.921875 -2.8125,6.796875 -1.875,1.875 -4.14062,2.8125 -6.79687,2.8125 -2.65625,0 -4.92188,-0.9375 -6.79688,-2.8125 -1.875,-1.875 -2.8125,-4.140625 -2.8125,-6.796875 0,-2.65625 0.9375,-4.921875 2.8125,-6.796875 1.875,-1.875 4.14063,-2.8125 6.79688,-2.8125 z"
       transform="translate(52.45322,165.85894)"
       id="path4169"
       inkscape:connector-curvature="0" />
    <path
       inkscape:connector-curvature="0"
       id="path4171"
       style="font-style:normal;font-variant:normal;font-weight:bold;font-stretch:normal;font-size:160px;line-height:125%;font-family:Comfortaa;-inkscape-font-specification:'Comfortaa, Bold';text-align:start;letter-spacing:0px;word-spacing:0px;writing-mode:lr-tb;text-anchor:start;fill:#31a354;fill-opacity:1;stroke:none;stroke-width:1px;stroke-linecap:butt;stroke-linejoin:miter;stroke-opacity:1"
       d="m 697.51572,283.23395 q 0,3.4375 -2.42187,5.85937 -2.34375,2.34375 -5.70313,2.34375 -3.4375,0 -5.78125,-2.34375 -2.34375,-2.42187 -2.34375,-5.85937 l 0,-44.45313 q 0,-3.75 -1.48437,-7.10937 -1.40625,-3.35938 -3.90625,-5.85938 -2.5,-2.57812 -5.9375,-4.0625 -3.35938,-1.48437 -7.26563,-1.48437 -3.82812,0 -7.1875,1.48437 -3.35937,1.48438 -5.9375,3.98438 -2.5,2.5 -3.98437,5.85937 -1.40625,3.35938 -1.40625,7.1875 l 0,44.45313 q 0,3.4375 -2.42188,5.85937 -2.34375,2.34375 -5.70312,2.34375 -3.4375,0 -5.85938,-2.34375 -2.34375,-2.42187 -2.34375,-5.85937 l 0,-44.45313 q 0,-3.82812 -1.48437,-7.1875 -1.48438,-3.35937 -3.98438,-5.85937 -2.5,-2.5 -5.85937,-3.98438 -3.35938,-1.48437 -7.1875,-1.48437 -3.82813,0 -7.1875,1.48437 -3.35938,1.40625 -5.9375,3.98438 -2.5,2.5 -3.98438,5.85937 -1.40625,3.35938 -1.40625,7.1875 l 0,44.45313 q 0,3.4375 -2.42187,5.85937 -2.34375,2.34375 -5.70313,2.34375 -3.4375,0 -5.85937,-2.34375 -2.34375,-2.42187 -2.34375,-5.85937 l 0,-71.17188 q 0,-3.35937 2.34375,-5.70312 2.42187,-2.42188 5.78125,-2.42188 2.73437,0 4.84375,1.5625 2.10937,1.48438 2.89062,3.98438 8.35938,-5.54688 18.98438,-5.54688 7.8125,0 14.6875,3.125 6.875,3.04688 12.03125,9.29688 10.85937,-12.42188 26.64062,-12.42188 7.10938,0 13.4375,2.8125 6.40625,2.73438 11.09375,7.5 4.76563,4.6875 7.5,11.09375 2.8125,6.32813 2.8125,13.4375 l 0,44.45313 z" />
    <path
       inkscape:connector-curvature="0"
       id="path4173"
       style="font-style:normal;font-variant:normal;font-weight:bold;font-stretch:normal;font-size:160px;line-height:125%;font-family:Comfortaa;-inkscape-font-specification:'Comfortaa, Bold';text-align:start;letter-spacing:0px;word-spacing:0px;writing-mode:lr-tb;text-anchor:start;fill:#31a354;fill-opacity:1;stroke:none;stroke-width:1px;stroke-linecap:butt;stroke-linejoin:miter;stroke-opacity:1"
       d="m 781.57822,239.56207 q -1.32812,-4.29687 -3.98437,-7.8125 -2.57813,-3.59375 -6.09375,-6.09375 -3.4375,-2.57812 -7.65625,-3.98437 -4.14063,-1.40625 -8.59375,-1.40625 -4.45313,0 -8.67188,1.40625 -4.21875,1.40625 -7.73437,3.98437 -3.51563,2.5 -6.09375,6.09375 -2.57813,3.51563 -3.82813,7.8125 l 52.65625,0 z m -3.51562,27.26563 q 3.51562,0 5.78125,2.34375 2.34375,2.26562 2.34375,5.78125 0,3.4375 -2.34375,5.85937 -12.10938,10.625 -28.59375,10.625 -18.125,0 -30.9375,-12.8125 -12.8125,-12.8125 -12.8125,-30.9375 0,-18.125 12.8125,-30.9375 12.8125,-12.8125 30.9375,-12.8125 17.96875,0 30.9375,12.8125 6.40625,6.32813 9.60937,14.14063 3.20313,7.73437 3.20313,16.79687 0,3.51563 -2.42188,5.85938 -2.34375,2.26562 -5.78125,2.26562 l -61.875,0 q 1.32813,4.29688 3.90625,7.89063 2.57813,3.51562 6.01563,6.09375 3.51562,2.5 7.65625,3.90625 4.21875,1.40625 8.75,1.40625 5.15625,0 9.45312,-1.5625 4.29688,-1.5625 7.96875,-4.6875 2.34375,-1.95313 5.39063,-2.03125 z" />
    <text
       xml:space="preserve"
       style="font-style:normal;font-variant:normal;font-weight:bold;font-stretch:normal;font-size:40px;line-height:125%;font-family:Comfortaa;-inkscape-font-specification:'Comfortaa, Bold';text-align:start;letter-spacing:0px;word-spacing:0px;writing-mode:lr-tb;text-anchor:start;fill:#000000;fill-opacity:1;stroke:none;stroke-width:1px;stroke-linecap:butt;stroke-linejoin:miter;stroke-opacity:1"
       x="457.26254"
       y="-100.07114"
       id="text27207"
       sodipodi:linespacing="125%"><tspan
         sodipodi:role="line"
         id="tspan27209"
         x="457.26254"
         y="-100.07114" /></text>
  </g>
</svg>
