<?xml version="1.0" encoding="UTF-8" standalone="no"?>
<svg
   xmlns:dc="http://purl.org/dc/elements/1.1/"
   xmlns:cc="http://creativecommons.org/ns#"
   xmlns:rdf="http://www.w3.org/1999/02/22-rdf-syntax-ns#"
   xmlns:svg="http://www.w3.org/2000/svg"
   xmlns="http://www.w3.org/2000/svg"
   xmlns:sodipodi="http://sodipodi.sourceforge.net/DTD/sodipodi-0.dtd"
   xmlns:inkscape="http://www.inkscape.org/namespaces/inkscape"
   width="288"
   height="126"
   id="svg2"
   version="1.1"
   inkscape:version="0.91 r13725"
   sodipodi:docname="vzb.svg">
  <metadata
     id="metadata4499">
    <rdf:RDF>
      <cc:Work
         rdf:about="">
        <dc:format>image/svg+xml</dc:format>
        <dc:type
           rdf:resource="http://purl.org/dc/dcmitype/StillImage" />
        <dc:title></dc:title>
      </cc:Work>
    </rdf:RDF>
  </metadata>
  <defs
     id="defs4497"> Status
.lua
.1.js-file-packer
.alert
.7bits.mjomatic
.sd.grid
.screen
.pvertenten.cycle
.lx.lockscreen
.lb.spotify
.lb.itunes
.keycodes
.jstevenson.cursor
.hotkey
.grille
.geometry
.fnutils
.cmsj.caffeinate
.cmsj.appfinder
.chdiza.slateops
.bg.grid
._asm.watcher.screen
._asm.watcher.battery
._asm.utf8_53
._asm.undocumented.coredock
._asm.undocumented.cgsdebug
._asm.undocumented.bluetooth
._asm.ui.sound
._asm.ui.notification
._asm.timer
._asm.sys.mouse
._asm.sys.brightness
._asm.sys.battery
._asm.sys.audiodevice
._asm.settings
._asm.pathwatcher
._asm.notify
._asm.modules
._asm.modal_hotkey
._asm.ipc.cli
._asm.ipc
._asm.hydra.undocumented
._asm.hydra.dockicon
._asm.hydra.applescript
._asm.hydra
._asm.eventtap.event
._asm.eventtap
._asm.data.pasteboard
._asm.data.json
._asm.data.base64
._asm.data
._asm.compat_51
._asm.applistener
._asm
.application
.winter
.tiling
.th.hints
.sk.transform
.lua
.conman.uuid
.conman.syslog
.conman.parsers.ip
.conman.parsers.ini
.conman.parsers.email
.conman.iconv
.conman.errno
.conman.env
.conman.cbor
.n
.color
.strict
.prototype
.normalize
</defs>
  <sodipodi:namedview
     pagecolor="#000000"
     bordercolor="#666666"
     borderopacity="1"
     objecttolerance="10000"
     gridtolerance="10"
     guidetolerance="10"
     inkscape:pageopacity="0"
     inkscape:pageshadow="2"
     inkscape:window-width="1855"
     inkscape:window-height="1176"
     id="namedview4495"
     showgrid="false"
     fit-margin-top="0"
     fit-margin-left="0"
     fit-margin-right="0"
     fit-margin-bottom="0"
     inkscape:zoom="5.3940104"
     inkscape:cx="84.760083"
     inkscape:cy="49.241664"
     inkscape:window-x="1431"
     inkscape:window-y="24"
     inkscape:window-maximized="1"
     inkscape:current-layer="layer1"
     borderlayer="false" />
  <circle
     cy="354.29288"
     cx="562.08417"
     id="circle49"
     style="fill:#31a354"
     r="0" />
  <circle
     cy="353.62009"
     cx="559.08746"
     id="circle53"
     style="fill:#31a354"
     r="0" />
  <circle
     cy="354.32315"
     cx="556.09766"
     id="circle57"
     style="fill:#31a354"
     r="0" />
  <circle
     cy="356.26096"
     cx="553.71478"
     id="circle61"
     style="fill:#31a354"
     r="0" />
  <circle
     cy="359.04459"
     cx="552.41699"
     id="circle65"
     style="fill:#31a354"
     r="0" />
  <circle
     cy="420.31058"
     cx="503.13828"
     id="circle401"
     style="fill:#636363"
     r="0" />
  <circle
     cy="303.19632"
     cx="487.91013"
     id="circle1165"
     style="fill:#9e9ac8"
     r="0" />
  <circle
     cy="406.9888"
     cx="353.86221"
     id="circle1333"
     style="fill:#31a354"
     r="0" />
  <circle
     cy="461.05661"
     cx="387.30615"
     id="circle1377"
     style="fill:#9e9ac8"
     r="0" />
  <circle
     cy="129.95535"
     cx="573.16791"
     id="circle2425"
     style="fill:#31a354"
     r="0" />
  <circle
     cy="163.14746"
     cx="871.58655"
     id="circle3665"
     style="fill:#dadaeb"
     r="0" />
  <circle
     cy="347.89883"
     cx="172.60561"
     id="circle4397"
     style="fill:#3182bd"
     r="0" />
  <g
     inkscape:groupmode="layer"
     id="layer1"
     inkscape:label="Layer 1"
     transform="translate(-54.35454,-157.49662)">
    <path
       style="font-style:normal;font-variant:normal;font-weight:bold;font-stretch:normal;font-size:160px;line-height:125%;font-family:Comfortaa;-inkscape-font-specification:'Comfortaa, Bold';text-align:start;letter-spacing:0px;word-spacing:0px;writing-mode:lr-tb;text-anchor:start;fill:#31a354;fill-opacity:1;stroke:none;stroke-width:1px;stroke-linecap:butt;stroke-linejoin:miter;stroke-opacity:1"
       d="m 261.5601,159.17871 a 0.95805168,0.95805168 0 0 0 -0.95898,0.95703 0.95805168,0.95805168 0 0 0 0.95898,0.95899 0.95805168,0.95805168 0 0 0 0.95703,-0.95899 0.95805168,0.95805168 0 0 0 -0.95703,-0.95703 z m 2.8086,0.15625 a 0.44531307,0.44531307 0 0 0 -0.41211,0.44531 0.44531307,0.44531307 0 0 0 0.44531,0.44532 0.44531307,0.44531307 0 0 0 0.44531,-0.44532 0.44531307,0.44531307 0 0 0 -0.44531,-0.44531 0.44531307,0.44531307 0 0 0 -0.0332,0 z m -6.11719,0.32422 c -0.51062,0.31901 -0.99271,0.69388 -1.43945,1.14062 -0.28149,0.2815 -0.52879,0.58215 -0.75782,0.89258 a 1.6525514,1.6525514 0 0 0 1.57227,1.14844 1.6525514,1.6525514 0 0 0 1.65234,-1.65234 1.6525514,1.6525514 0 0 0 -1.02734,-1.5293 z m 10.37305,1.31836 a 24.274378,24.274378 0 0 0 -14.07813,6.26953 l 0,35.78906 a 24.274378,24.274378 0 0 0 16.36133,6.37696 24.274378,24.274378 0 0 0 21.54492,-13.10743 c -8.09876,0.99339 -15.29113,4.10576 -21.57812,9.3379 l 0,-39.0625 c 0,-2.25487 -0.75555,-4.11998 -2.25,-5.60352 z m -13.41211,2.18164 c -0.2599,0.60492 -0.44486,1.25154 -0.55078,1.94141 a 1.2595357,1.2595357 0 0 0 0.8125,-1.17579 1.2595357,1.2595357 0 0 0 -0.26172,-0.76562 z m 43.08398,32.79688 c -0.34125,0 -0.67728,0.0127 -1.01562,0.0195 a 4.6063542,4.6063542 0 0 0 3.77734,1.97265 4.6063542,4.6063542 0 0 0 3.46875,-1.58203 c -2.02494,-0.27014 -4.10011,-0.41015 -6.23047,-0.41015 z m 8.31641,0.95898 a 1.3632276,1.3632276 0 0 0 -1.36328,1.36328 1.3632276,1.3632276 0 0 0 1.36328,1.36328 1.3632276,1.3632276 0 0 0 1.36328,-1.36328 1.3632276,1.3632276 0 0 0 -1.36328,-1.36328 z m -8.25586,1.93945 a 0.77496904,0.77496904 0 0 0 -0.77344,0.77539 0.77496904,0.77496904 0 0 0 0.77344,0.77344 0.77496904,0.77496904 0 0 0 0.77539,-0.77344 0.77496904,0.77496904 0 0 0 -0.77539,-0.77539 z m 4.23242,0.41797 a 2.5123148,2.5123148 0 0 0 -2.51367,2.51172 2.5123148,2.5123148 0 0 0 2.51367,2.51172 2.5123148,2.5123148 0 0 0 2.51172,-2.51172 2.5123148,2.5123148 0 0 0 -2.51172,-2.51172 z m 6.87891,0.0723 a 0.37635824,0.37635824 0 0 0 -0.37696,0.37695 0.37635824,0.37635824 0 0 0 0.37696,0.37695 0.37635824,0.37635824 0 0 0 0.37695,-0.37695 0.37635824,0.37635824 0 0 0 -0.37695,-0.37695 z m 2.28125,0.76757 a 0.68575734,0.68575734 0 0 0 -0.68555,0.68555 0.68575734,0.68575734 0 0 0 0.68555,0.68555 0.68575734,0.68575734 0 0 0 0.6875,-0.68555 0.68575734,0.68575734 0 0 0 -0.6875,-0.68555 z m 4.81054,0.72266 a 1.2019919,1.2019919 0 0 0 -1.20312,1.20117 1.2019919,1.2019919 0 0 0 1.20312,1.20313 1.2019919,1.2019919 0 0 0 1.20117,-1.20313 1.2019919,1.2019919 0 0 0 -1.20117,-1.20117 z m 2.70313,0.38867 a 5.8586302,5.8586302 0 0 0 3.125,1.90821 c -1.02117,-0.68816 -2.06519,-1.31906 -3.125,-1.90821 z m -10.79883,0.20703 a 2.1789811,2.1789811 0 0 0 -2.17969,2.17969 2.1789811,2.1789811 0 0 0 2.17969,2.17774 2.1789811,2.1789811 0 0 0 2.17773,-2.17774 2.1789811,2.1789811 0 0 0 -2.17773,-2.17969 z m -10.13281,0.4336 a 0.3010866,0.3010866 0 0 0 -0.30078,0.30078 0.3010866,0.3010866 0 0 0 0.30078,0.30273 0.3010866,0.3010866 0 0 0 0.30078,-0.30273 0.3010866,0.3010866 0 0 0 -0.30078,-0.30078 z m 15.20508,0.35547 a 0.41909483,0.41909483 0 0 0 -0.41797,0.41992 0.41909483,0.41909483 0 0 0 0.41797,0.41797 0.41909483,0.41909483 0 0 0 0.41992,-0.41797 0.41909483,0.41909483 0 0 0 -0.41992,-0.41992 z m -14.47461,1.93942 a 0.71804577,0.71804577 0 0 0 -0.71875,0.7168 0.71804577,0.71804577 0 0 0 0.71875,0.71875 0.71804577,0.71804577 0 0 0 0.71679,-0.71875 0.71804577,0.71804577 0 0 0 -0.71679,-0.7168 z m 22.09961,0.19727 a 1.1290748,1.1290748 0 0 0 -1.12891,1.1289 1.1290748,1.1290748 0 0 0 1.12891,1.12891 1.1290748,1.1290748 0 0 0 1.1289,-1.12891 1.1290748,1.1290748 0 0 0 -1.1289,-1.1289 z m -6.55079,0.0703 a 4.4645672,4.4645672 0 0 0 -4.46484,4.46484 4.4645672,4.4645672 0 0 0 4.46484,4.46485 4.4645672,4.4645672 0 0 0 4.46289,-4.46485 4.4645672,4.4645672 0 0 0 -4.46289,-4.46484 z m 10.66602,0.83594 a 20.689163,20.689163 0 0 0 -7.92578,16.2539 20.689163,20.689163 0 0 0 20.68945,20.68946 20.689163,20.689163 0 0 0 3.95899,-0.38868 c 0.0291,-0.6983 0.0469,-1.40026 0.0469,-2.11132 0,-6.04167 -1.06762,-11.64063 -3.20312,-16.79688 -2.1354,-5.20833 -5.33858,-9.92188 -9.60938,-14.14062 -1.28111,-1.26567 -2.60273,-2.42774 -3.95703,-3.50586 z m -37.94336,0.19726 a 1.8847996,1.8847996 0 0 0 -1.88477,1.88477 1.8847996,1.8847996 0 0 0 1.88477,1.88476 1.8847996,1.8847996 0 0 0 1.88477,-1.88476 1.8847996,1.8847996 0 0 0 -1.88477,-1.88477 z m 16.0625,0.26367 a 5.5364332,5.5364332 0 0 0 -5.53711,5.53516 5.5364332,5.5364332 0 0 0 5.53711,5.53711 5.5364332,5.5364332 0 0 0 5.53516,-5.53711 5.5364332,5.5364332 0 0 0 -5.53516,-5.53516 z m -11.91992,0.23047 a 0.83480299,0.83480299 0 0 0 -0.83399,0.83399 0.83480299,0.83480299 0 0 0 0.83399,0.83398 0.83480299,0.83480299 0 0 0 0.83398,-0.83398 0.83480299,0.83480299 0 0 0 -0.83398,-0.83399 z m 3.23437,0.14063 a 0.94913942,0.94913942 0 0 0 -0.94922,0.94922 0.94913942,0.94913942 0 0 0 0.94922,0.94921 0.94913942,0.94913942 0 0 0 0.94922,-0.94921 0.94913942,0.94913942 0 0 0 -0.94922,-0.94922 z m -39.11718,0.40234 a 3.2489114,3.2489114 0 0 0 -1.04688,0.17773 l 0,6.14258 a 3.2489114,3.2489114 0 0 0 1.04688,0.17774 3.2489114,3.2489114 0 0 0 3.25,-3.24805 3.2489114,3.2489114 0 0 0 -3.25,-3.25 z m 42.15625,0.16602 a 0.16831253,0.16831253 0 0 0 -0.15625,0.16797 0.16831253,0.16831253 0 0 0 0.16796,0.16796 0.16831253,0.16831253 0 0 0 0.16797,-0.16796 0.16831253,0.16831253 0 0 0 -0.16797,-0.16797 0.16831253,0.16831253 0 0 0 -0.0117,0 z m -0.87305,1.56445 a 0.13037431,0.13037431 0 0 0 -0.1211,0.12891 0.13037431,0.13037431 0 0 0 0.13086,0.13085 0.13037431,0.13037431 0 0 0 0.12891,-0.13085 0.13037431,0.13037431 0 0 0 -0.12891,-0.12891 0.13037431,0.13037431 0 0 0 -0.01,0 z m -4.73828,0.77539 a 0.45162991,0.45162991 0 0 0 -0.45313,0.45117 0.45162991,0.45162991 0 0 0 0.45313,0.45117 0.45162991,0.45162991 0 0 0 0.45117,-0.45117 0.45162991,0.45162991 0 0 0 -0.45117,-0.45117 z m 2.29492,0.4375 a 0.41909483,0.41909483 0 0 0 -0.41797,0.41992 0.41909483,0.41909483 0 0 0 0.41797,0.41797 0.41909483,0.41909483 0 0 0 0.41992,-0.41797 0.41909483,0.41909483 0 0 0 -0.41992,-0.41992 z m -4.64844,0.35547 a 0.57325178,0.57325178 0 0 0 -0.53125,0.57226 0.57325178,0.57325178 0 0 0 0.57227,0.57422 0.57325178,0.57325178 0 0 0 0.57422,-0.57422 0.57325178,0.57325178 0 0 0 -0.57422,-0.57226 0.57325178,0.57325178 0 0 0 -0.041,0 z m -24.72851,0.42969 a 0.96688181,0.96688181 0 0 0 -0.9668,0.96679 0.96688181,0.96688181 0 0 0 0.9668,0.9668 0.96688181,0.96688181 0 0 0 0.96679,-0.9668 0.96688181,0.96688181 0 0 0 -0.96679,-0.96679 z m 21.01367,0.22851 a 0.10645019,0.10645019 0 0 0 -0.0977,0.10742 0.10645019,0.10645019 0 0 0 0.10547,0.10547 0.10645019,0.10645019 0 0 0 0.10742,-0.10547 0.10645019,0.10645019 0 0 0 -0.10742,-0.10742 0.10645019,0.10645019 0 0 0 -0.008,0 z m -1.66992,0.28516 a 0.13037431,0.13037431 0 0 0 -0.1211,0.13086 0.13037431,0.13037431 0 0 0 0.13086,0.13086 0.13037431,0.13037431 0 0 0 0.12891,-0.13086 0.13037431,0.13037431 0 0 0 -0.12891,-0.13086 0.13037431,0.13037431 0 0 0 -0.01,0 z m 11.63086,0.30078 a 0.34493804,0.34493804 0 0 0 -0.32227,0.34375 0.34493804,0.34493804 0 0 0 0.3457,0.3457 0.34493804,0.34493804 0 0 0 0.34571,-0.3457 0.34493804,0.34493804 0 0 0 -0.34571,-0.34375 0.34493804,0.34493804 0 0 0 -0.0234,0 z m -21.24024,0.17969 a 3.0888903,3.0888903 0 0 0 -3.08789,3.08984 3.0888903,3.0888903 0 0 0 3.08789,3.08789 3.0888903,3.0888903 0 0 0 3.08984,-3.08789 3.0888903,3.0888903 0 0 0 -3.08984,-3.08984 z m 12.99805,0.0957 a 0.36875427,0.36875427 0 0 0 -0.3418,0.36914 0.36875427,0.36875427 0 0 0 0.36914,0.36719 0.36875427,0.36875427 0 0 0 0.36719,-0.36719 0.36875427,0.36875427 0 0 0 -0.36719,-0.36914 0.36875427,0.36875427 0 0 0 -0.0273,0 z m 4.86328,0.0195 a 2.2417812,2.2417812 0 0 0 -2.24219,2.24219 2.2417812,2.2417812 0 0 0 2.24219,2.24219 2.2417812,2.2417812 0 0 0 2.24219,-2.24219 2.2417812,2.2417812 0 0 0 -2.24219,-2.24219 z m -30.43164,0.0762 a 0.49929559,0.49929559 0 0 0 -0.5,0.5 0.49929559,0.49929559 0 0 0 0.5,0.5 0.49929559,0.49929559 0 0 0 0.49805,-0.5 0.49929559,0.49929559 0 0 0 -0.49805,-0.5 z m 20.67969,0.2168 a 0.16831253,0.16831253 0 0 0 -0.15625,0.16797 0.16831253,0.16831253 0 0 0 0.16992,0.16797 0.16831253,0.16831253 0 0 0 0.16797,-0.16797 0.16831253,0.16831253 0 0 0 -0.16797,-0.16797 0.16831253,0.16831253 0 0 0 -0.0137,0 z m 2.73046,0.45117 a 0.5531314,0.5531314 0 0 0 -0.55468,0.55469 0.5531314,0.5531314 0 0 0 0.55468,0.55273 0.5531314,0.5531314 0 0 0 0.55274,-0.55273 0.5531314,0.5531314 0 0 0 -0.55274,-0.55469 z m -18.1621,0.0352 a 0.29152584,0.29152584 0 0 0 -0.26954,0.29101 0.29152584,0.29152584 0 0 0 0.29102,0.29102 0.29152584,0.29152584 0 0 0 0.29102,-0.29102 0.29152584,0.29152584 0 0 0 -0.29102,-0.29101 0.29152584,0.29152584 0 0 0 -0.0215,0 z m -7.57032,0.2168 a 0.50493759,0.50493759 0 0 0 -0.46875,0.5039 0.50493759,0.50493759 0 0 0 0.50586,0.50586 0.50493759,0.50493759 0 0 0 0.50391,-0.50586 0.50493759,0.50493759 0 0 0 -0.50391,-0.5039 0.50493759,0.50493759 0 0 0 -0.0371,0 z m 9.82813,0.26562 a 0.62976784,0.62976784 0 0 0 -0.63086,0.63086 0.62976784,0.62976784 0 0 0 0.63086,0.62891 0.62976784,0.62976784 0 0 0 0.6289,-0.62891 0.62976784,0.62976784 0 0 0 -0.6289,-0.63086 z m 12.01367,0.51172 a 0.6980406,0.6980406 0 0 0 -0.69727,0.69726 0.6980406,0.6980406 0 0 0 0.69727,0.69922 0.6980406,0.6980406 0 0 0 0.69922,-0.69922 0.6980406,0.6980406 0 0 0 -0.69922,-0.69726 z m 6.26953,0.39844 a 1.0402749,1.0402749 0 0 0 -1.03906,1.04101 1.0402749,1.0402749 0 0 0 1.03906,1.03906 1.0402749,1.0402749 0 0 0 1.04102,-1.03906 1.0402749,1.0402749 0 0 0 -1.04102,-1.04101 z m -23.5957,0.0898 a 6.9706588,6.9706588 0 0 0 -6.97071,6.9707 6.9706588,6.9706588 0 0 0 6.97071,6.97071 6.9706588,6.9706588 0 0 0 6.9707,-6.97071 6.9706588,6.9706588 0 0 0 -6.9707,-6.9707 z m 19.55273,0.23242 a 0.07527165,0.07527165 0 0 0 -0.0684,0.0762 0.07527165,0.07527165 0 0 0 0.0742,0.0742 0.07527165,0.07527165 0 0 0 0.0762,-0.0742 0.07527165,0.07527165 0 0 0 -0.0762,-0.0762 0.07527165,0.07527165 0 0 0 -0.006,0 z m -25.96289,0.0352 a 0.49358922,0.49358922 0 0 0 -0.49414,0.49414 0.49358922,0.49358922 0 0 0 0.49414,0.49414 0.49358922,0.49358922 0 0 0 0.49219,-0.49414 0.49358922,0.49358922 0 0 0 -0.49219,-0.49414 z m 21.47656,0.31445 a 0.1505433,0.1505433 0 0 0 -0.13867,0.15039 0.1505433,0.1505433 0 0 0 0.15039,0.15039 0.1505433,0.1505433 0 0 0 0.15039,-0.15039 0.1505433,0.1505433 0 0 0 -0.15039,-0.15039 0.1505433,0.1505433 0 0 0 -0.0117,0 z m -24.93359,0.22656 0,1.48633 a 0.91880757,0.91880757 0 0 0 0.38086,-0.74414 0.91880757,0.91880757 0 0 0 -0.38086,-0.74219 z m 30.63281,0.63868 a 0.49929559,0.49929559 0 0 0 -0.49804,0.5 0.49929559,0.49929559 0 0 0 0.49804,0.49804 0.49929559,0.49929559 0 0 0 0.5,-0.49804 0.49929559,0.49929559 0 0 0 -0.5,-0.5 z m 30.90625,0.20703 a 0.51051718,0.51051718 0 0 0 -0.47265,0.50976 0.51051718,0.51051718 0 0 0 0.50976,0.50977 0.51051718,0.51051718 0 0 0 0.50977,-0.50977 0.51051718,0.51051718 0 0 0 -0.50977,-0.50976 0.51051718,0.51051718 0 0 0 -0.0371,0 z m -19.72656,0.0898 a 0.81070054,0.81070054 0 0 0 -0.81055,0.81055 0.81070054,0.81070054 0 0 0 0.81055,0.81054 0.81070054,0.81070054 0 0 0 0.81055,-0.81054 0.81070054,0.81070054 0 0 0 -0.81055,-0.81055 z m 14.67774,0.13086 a 4.8775797,4.8775797 0 0 0 -4.87696,4.87695 4.8775797,4.8775797 0 0 0 4.87696,4.87696 4.8775797,4.8775797 0 0 0 4.8789,-4.87696 4.8775797,4.8775797 0 0 0 -4.8789,-4.87695 z m -30.50391,0.25781 a 1.0538031,1.0538031 0 0 0 -1.05469,1.05274 1.0538031,1.0538031 0 0 0 1.05469,1.05468 1.0538031,1.0538031 0 0 0 1.05273,-1.05468 1.0538031,1.0538031 0 0 0 -1.05273,-1.05274 z m -23.70899,0.24805 a 0.29152584,0.29152584 0 0 0 -0.29101,0.29297 0.29152584,0.29152584 0 0 0 0.29101,0.29101 0.29152584,0.29152584 0 0 0 0.29102,-0.29101 0.29152584,0.29152584 0 0 0 -0.29102,-0.29297 z m 26.38868,0.28906 a 0.19915007,0.19915007 0 0 0 -0.1836,0.19922 0.19915007,0.19915007 0 0 0 0.19922,0.19922 0.19915007,0.19915007 0 0 0 0.19922,-0.19922 0.19915007,0.19915007 0 0 0 -0.19922,-0.19922 0.19915007,0.19915007 0 0 0 -0.0156,0 z m 15.77734,0.61328 a 0.7413398,0.7413398 0 0 0 -0.74219,0.74219 0.7413398,0.7413398 0 0 0 0.74219,0.74023 0.7413398,0.7413398 0 0 0 0.74023,-0.74023 0.7413398,0.7413398 0 0 0 -0.74023,-0.74219 z m -9.625,0.11719 a 15.598131,15.598131 0 0 0 -15.59766,15.59766 15.598131,15.598131 0 0 0 15.59766,15.59961 15.598131,15.598131 0 0 0 15.59961,-15.59961 15.598131,15.598131 0 0 0 -15.59961,-15.59766 z m -34.36719,0.39063 a 1.1925272,1.1925272 0 0 0 -0.45117,0.0879 l 0,2.20898 a 1.1925272,1.1925272 0 0 0 0.45117,0.0879 1.1925272,1.1925272 0 0 0 1.19141,-1.19336 1.1925272,1.1925272 0 0 0 -1.19141,-1.1914 z m 23.18164,0.85546 a 0.63870114,0.63870114 0 0 0 -0.63867,0.63868 0.63870114,0.63870114 0 0 0 0.63867,0.63867 0.63870114,0.63870114 0 0 0 0.63867,-0.63867 0.63870114,0.63870114 0 0 0 -0.63867,-0.63868 z m 23.33789,0.26563 a 0.8842417,0.8842417 0 0 0 -0.88476,0.88477 0.8842417,0.8842417 0 0 0 0.88476,0.88281 0.8842417,0.8842417 0 0 0 0.88282,-0.88281 0.8842417,0.8842417 0 0 0 -0.88282,-0.88477 z m -26.83398,0.34961 a 1.8391562,1.8391562 0 0 0 -1.83789,1.83789 1.8391562,1.8391562 0 0 0 1.83789,1.83984 1.8391562,1.8391562 0 0 0 1.83984,-1.83984 1.8391562,1.8391562 0 0 0 -1.83984,-1.83789 z m -19.55664,2.37305 a 1.0042491,1.0042491 0 0 0 -0.58008,0.18554 l 0,1.63672 a 1.0042491,1.0042491 0 0 0 0.58008,0.18555 1.0042491,1.0042491 0 0 0 1.0039,-1.00391 1.0042491,1.0042491 0 0 0 -1.0039,-1.0039 z m 47.82226,0.0957 a 0.36099017,0.36099017 0 0 0 -0.36132,0.36133 0.36099017,0.36099017 0 0 0 0.36132,0.36132 0.36099017,0.36099017 0 0 0 0.36133,-0.36132 0.36099017,0.36099017 0 0 0 -0.36133,-0.36133 z m 1.76758,1.48047 a 0.75271648,0.75271648 0 0 0 -0.7539,0.7539 0.75271648,0.75271648 0 0 0 0.7539,0.75196 0.75271648,0.75271648 0 0 0 0.75196,-0.75196 0.75271648,0.75271648 0 0 0 -0.75196,-0.7539 z m -30.5664,1.15234 a 0.28164074,0.28164074 0 0 0 -0.26172,0.28125 0.28164074,0.28164074 0 0 0 0.28125,0.28125 0.28164074,0.28164074 0 0 0 0.28125,-0.28125 0.28164074,0.28164074 0 0 0 -0.28125,-0.28125 0.28164074,0.28164074 0 0 0 -0.0195,0 z m -17.65625,0.42578 a 0.67325014,0.67325014 0 0 0 -0.67383,0.67383 0.67325014,0.67325014 0 0 0 0.67383,0.67383 0.67325014,0.67325014 0 0 0 0.67382,-0.67383 0.67325014,0.67325014 0 0 0 -0.67382,-0.67383 z m 48.83398,1.31055 a 0.23802985,0.23802985 0 0 0 -0.23633,0.23828 0.23802985,0.23802985 0 0 0 0.23633,0.23828 0.23802985,0.23802985 0 0 0 0.23828,-0.23828 0.23802985,0.23802985 0 0 0 -0.23828,-0.23828 z m -31.76367,0.18555 a 0.07527165,0.07527165 0 0 0 -0.0703,0.0762 0.07527165,0.07527165 0 0 0 0.0762,0.0742 0.07527165,0.07527165 0 0 0 0.0742,-0.0742 0.07527165,0.07527165 0 0 0 -0.0742,-0.0762 0.07527165,0.07527165 0 0 0 -0.006,0 z m -19.01758,0.22851 0,0.11524 a 1.1011293,1.1011293 0 0 0 0.002,-0.0781 1.1011293,1.1011293 0 0 0 -0.002,-0.0371 z m 56.23047,0.57227 a 1.7907695,1.7907695 0 0 0 -1.79102,1.79101 1.7907695,1.7907695 0 0 0 1.79102,1.79102 1.7907695,1.7907695 0 0 0 1.79101,-1.79102 1.7907695,1.7907695 0 0 0 -1.79101,-1.79101 z m -52.28906,0.0937 a 0.57817245,0.57817245 0 0 0 -0.57813,0.57812 0.57817245,0.57817245 0 0 0 0.57813,0.57813 0.57817245,0.57817245 0 0 0 0.57812,-0.57813 0.57817245,0.57817245 0 0 0 -0.57812,-0.57812 z m 14.12109,0.46289 a 0.41227981,0.41227981 0 0 0 -0.41211,0.41211 0.41227981,0.41227981 0 0 0 0.41211,0.41211 0.41227981,0.41227981 0 0 0 0.41211,-0.41211 0.41227981,0.41227981 0 0 0 -0.41211,-0.41211 z m 33.86328,0.0976 a 0.65620297,0.65620297 0 0 0 -0.65625,0.65625 0.65620297,0.65620297 0 0 0 0.65625,0.65625 0.65620297,0.65620297 0 0 0 0.65625,-0.65625 0.65620297,0.65620297 0 0 0 -0.65625,-0.65625 z m -50.07226,0.79297 a 0.31935057,0.31935057 0 0 0 -0.32032,0.32032 0.31935057,0.31935057 0 0 0 0.32032,0.31836 0.31935057,0.31935057 0 0 0 0.31836,-0.31836 0.31935057,0.31935057 0 0 0 -0.31836,-0.32032 z m -1.85352,0.70899 0,1.13476 a 0.75271648,0.75271648 0 0 0 0.25977,-0.56836 0.75271648,0.75271648 0 0 0 -0.25977,-0.5664 z m 7.61914,0.0312 a 11.130792,11.130792 0 0 0 -7.61914,3.03711 l 0,7.79883 c 0,3.17419 0.30315,6.22255 0.89258,9.15234 a 11.130792,11.130792 0 0 0 6.72656,2.27344 11.130792,11.130792 0 0 0 11.13086,-11.13086 11.130792,11.130792 0 0 0 -11.13086,-11.13086 z m 54.04688,0.45508 a 1.6301135,1.6301135 0 0 0 -1.62891,1.6289 1.6301135,1.6301135 0 0 0 1.62891,1.63086 1.6301135,1.6301135 0 0 0 1.63086,-1.63086 1.6301135,1.6301135 0 0 0 -1.63086,-1.6289 z m -8.86524,0.66015 a 0.99575037,0.99575037 0 0 0 -0.99609,0.99414 0.99575037,0.99575037 0 0 0 0.99609,0.9961 0.99575037,0.99575037 0 0 0 0.9961,-0.9961 0.99575037,0.99575037 0 0 0 -0.9961,-0.99414 z m 5.02539,1.42969 a 1.0265684,1.0265684 0 0 0 -1.02539,1.02734 1.0265684,1.0265684 0 0 0 1.02539,1.02735 1.0265684,1.0265684 0 0 0 1.02735,-1.02735 1.0265684,1.0265684 0 0 0 -1.02735,-1.02734 z m -3.71679,1.8457 a 2.4873836,2.4873836 0 0 0 -2.48829,2.48828 2.4873836,2.4873836 0 0 0 2.48829,2.48633 2.4873836,2.4873836 0 0 0 2.48828,-2.48633 2.4873836,2.4873836 0 0 0 -2.48828,-2.48828 z m 7.8164,0.77735 a 0.83480299,0.83480299 0 0 0 -0.83594,0.83398 0.83480299,0.83480299 0 0 0 0.83594,0.83399 0.83480299,0.83480299 0 0 0 0.83399,-0.83399 0.83480299,0.83480299 0 0 0 -0.83399,-0.83398 z m -3.6914,0.85937 a 0.23802985,0.23802985 0 0 0 -0.22266,0.23633 0.23802985,0.23802985 0 0 0 0.23828,0.23828 0.23802985,0.23802985 0 0 0 0.23828,-0.23828 0.23802985,0.23802985 0 0 0 -0.23828,-0.23633 0.23802985,0.23802985 0 0 0 -0.0156,0 z m 1.41796,1.69336 a 2.4748237,2.4748237 0 0 0 -2.4746,2.47461 2.4748237,2.4748237 0 0 0 2.4746,2.47461 2.4748237,2.4748237 0 0 0 2.47461,-2.47461 2.4748237,2.4748237 0 0 0 -2.47461,-2.47461 z m 3.94922,0.0137 a 0.48197374,0.48197374 0 0 0 -0.48242,0.48242 0.48197374,0.48197374 0 0 0 0.48242,0.48243 0.48197374,0.48197374 0 0 0 0.48242,-0.48243 0.48197374,0.48197374 0 0 0 -0.48242,-0.48242 z m 0.5,2.37305 a 0.53754711,0.53754711 0 0 0 -0.53711,0.53906 0.53754711,0.53754711 0 0 0 0.53711,0.53711 0.53754711,0.53754711 0 0 0 0.53907,-0.53711 0.53754711,0.53754711 0 0 0 -0.53907,-0.53906 z m -11.13672,0.64062 a 4.3625102,4.3625102 0 0 0 -4.36132,4.36133 4.3625102,4.3625102 0 0 0 4.36132,4.36328 4.3625102,4.3625102 0 0 0 4.36329,-4.36328 4.3625102,4.3625102 0 0 0 -4.36329,-4.36133 z m 10.24024,1.74414 a 0.7336573,0.7336573 0 0 0 -0.73438,0.73438 0.7336573,0.7336573 0 0 0 0.73438,0.73242 0.7336573,0.7336573 0 0 0 0.73242,-0.73242 0.7336573,0.7336573 0 0 0 -0.73242,-0.73438 z m -3.74219,1.63477 a 0.6816138,0.6816138 0 0 0 -0.68164,0.68164 0.6816138,0.6816138 0 0 0 0.68164,0.68164 0.6816138,0.6816138 0 0 0 0.68164,-0.68164 0.6816138,0.6816138 0 0 0 -0.68164,-0.68164 z m 2.78711,1.14844 a 1.0126765,1.0126765 0 0 0 -1.01172,1.01172 1.0126765,1.0126765 0 0 0 1.01172,1.01367 1.0126765,1.0126765 0 0 0 1.01367,-1.01367 1.0126765,1.0126765 0 0 0 -1.01367,-1.01172 z m -40.69531,0.32422 a 1.9027506,1.9027506 0 0 0 -1.90235,1.90234 1.9027506,1.9027506 0 0 0 1.90235,1.9043 1.9027506,1.9027506 0 0 0 1.90234,-1.9043 1.9027506,1.9027506 0 0 0 -1.90234,-1.90234 z m 37.08203,1.20312 a 0.1505433,0.1505433 0 0 0 -0.14063,0.15039 0.1505433,0.1505433 0 0 0 0.15235,0.15039 0.1505433,0.1505433 0 0 0 0.15039,-0.15039 0.1505433,0.1505433 0 0 0 -0.15039,-0.15039 0.1505433,0.1505433 0 0 0 -0.0117,0 z m -0.32422,1.73438 a 0.57325178,0.57325178 0 0 0 -0.57422,0.57422 0.57325178,0.57325178 0 0 0 0.57422,0.57226 0.57325178,0.57325178 0 0 0 0.57227,-0.57226 0.57325178,0.57325178 0 0 0 -0.57227,-0.57422 z m 5.01758,0.0137 a 0.62525326,0.62525326 0 0 0 -0.58008,0.625 0.62525326,0.62525326 0 0 0 0.625,0.625 0.62525326,0.62525326 0 0 0 0.625,-0.625 0.62525326,0.62525326 0 0 0 -0.625,-0.625 0.62525326,0.62525326 0 0 0 -0.0449,0 z m -36.57031,0.22851 a 0.10645019,0.10645019 0 0 0 -0.0996,0.10547 0.10645019,0.10645019 0 0 0 0.10742,0.10742 0.10645019,0.10645019 0 0 0 0.10547,-0.10742 0.10645019,0.10645019 0 0 0 -0.10547,-0.10547 0.10645019,0.10645019 0 0 0 -0.008,0 z m 40.27539,0.16602 a 1.9642872,1.9642872 0 0 0 -1.96485,1.96484 1.9642872,1.9642872 0 0 0 1.96485,1.96485 1.9642872,1.9642872 0 0 0 1.96289,-1.96485 1.9642872,1.9642872 0 0 0 -1.96289,-1.96484 z m -42.2461,0.27539 a 0.63870114,0.63870114 0 0 0 -0.63867,0.63867 0.63870114,0.63870114 0 0 0 0.63867,0.63867 0.63870114,0.63870114 0 0 0 0.63868,-0.63867 0.63870114,0.63870114 0 0 0 -0.63868,-0.63867 z m 36.01368,0.29297 a 0.6816138,0.6816138 0 0 0 -0.68165,0.68164 0.6816138,0.6816138 0 0 0 0.68165,0.68164 0.6816138,0.6816138 0 0 0 0.68164,-0.68164 0.6816138,0.6816138 0 0 0 -0.68164,-0.68164 z m -42.48047,0.75977 a 5.7364702,5.7364702 0 0 0 -5.73633,5.73632 5.7364702,5.7364702 0 0 0 5.73633,5.73633 5.7364702,5.7364702 0 0 0 5.73632,-5.73633 5.7364702,5.7364702 0 0 0 -5.73632,-5.73632 z m 18.76562,0.36718 a 0.99859118,0.99859118 0 0 0 -0.99805,1 0.99859118,0.99859118 0 0 0 0.99805,0.99805 0.99859118,0.99859118 0 0 0 0.99805,-0.99805 0.99859118,0.99859118 0 0 0 -0.99805,-1 z m 18.35352,0.0586 a 7.44771,7.44771 0 0 0 -7.44727,7.44922 7.44771,7.44771 0 0 0 7.44727,7.44726 7.44771,7.44771 0 0 0 7.44726,-7.44726 7.44771,7.44771 0 0 0 -7.44726,-7.44922 z m -23.5,0.0937 a 0.31935057,0.31935057 0 0 0 -0.29688,0.31836 0.31935057,0.31935057 0 0 0 0.31836,0.32031 0.31935057,0.31935057 0 0 0 0.32031,-0.32031 0.31935057,0.31935057 0 0 0 -0.32031,-0.31836 0.31935057,0.31935057 0 0 0 -0.0215,0 z m 31.0664,0.53711 a 0.77496904,0.77496904 0 0 0 -0.77539,0.77539 0.77496904,0.77496904 0 0 0 0.77539,0.77539 0.77496904,0.77496904 0 0 0 0.77539,-0.77539 0.77496904,0.77496904 0 0 0 -0.77539,-0.77539 z m -33.98828,0.0215 a 1.8002361,1.8002361 0 0 0 -1.79883,1.79883 1.8002361,1.8002361 0 0 0 1.79883,1.80078 1.8002361,1.8002361 0 0 0 1.80078,-1.80078 1.8002361,1.8002361 0 0 0 -1.80078,-1.79883 z m 5.08789,0.0957 a 0.532251,0.532251 0 0 0 -0.5332,0.53125 0.532251,0.532251 0 0 0 0.5332,0.53321 0.532251,0.532251 0 0 0 0.53125,-0.53321 0.532251,0.532251 0 0 0 -0.53125,-0.53125 z m 45.63477,1.91992 a 10.226147,10.226147 0 0 0 -10.22656,10.22657 10.226147,10.226147 0 0 0 4.71484,8.61133 c 0.15148,-0.14607 0.30656,-0.28299 0.45703,-0.43164 5.0051,-4.94405 8.53122,-10.53793 10.60352,-16.76954 a 10.226147,10.226147 0 0 0 -5.54883,-1.63672 z m -47.0586,0.20118 a 0.57325178,0.57325178 0 0 0 -0.5332,0.57226 0.57325178,0.57325178 0 0 0 0.57422,0.57422 0.57325178,0.57325178 0 0 0 0.57227,-0.57422 0.57325178,0.57325178 0 0 0 -0.57227,-0.57226 0.57325178,0.57325178 0 0 0 -0.041,0 z m 2.74415,0.0547 a 0.67325014,0.67325014 0 0 0 -0.67383,0.67188 0.67325014,0.67325014 0 0 0 0.67383,0.67383 0.67325014,0.67325014 0 0 0 0.67187,-0.67383 0.67325014,0.67325014 0 0 0 -0.67187,-0.67188 z m -26.2168,0.0117 a 1.9249538,1.9249538 0 0 0 -1.92578,1.92578 1.9249538,1.9249538 0 0 0 1.92578,1.92383 1.9249538,1.9249538 0 0 0 1.92383,-1.92383 1.9249538,1.9249538 0 0 0 -1.92383,-1.92578 z m 59.92773,0.24219 a 1.6405076,1.6405076 0 0 0 -1.63867,1.64063 1.6405076,1.6405076 0 0 0 1.63867,1.64062 1.6405076,1.6405076 0 0 0 1.64063,-1.64062 1.6405076,1.6405076 0 0 0 -1.64063,-1.64063 z m -31.01562,0.0391 a 0.56828851,0.56828851 0 0 0 -0.56836,0.56836 0.56828851,0.56828851 0 0 0 0.56836,0.56836 0.56828851,0.56828851 0 0 0 0.56836,-0.56836 0.56828851,0.56828851 0 0 0 -0.56836,-0.56836 z m -12.5293,0.002 a 0.31035295,0.31035295 0 0 0 -0.28906,0.31054 0.31035295,0.31035295 0 0 0 0.31055,0.31055 0.31035295,0.31035295 0 0 0 0.31054,-0.31055 0.31035295,0.31035295 0 0 0 -0.31054,-0.31054 0.31035295,0.31035295 0 0 0 -0.0215,0 z m 38.19531,0.29492 a 0.22581495,0.22581495 0 0 0 -0.22656,0.22656 0.22581495,0.22581495 0 0 0 0.22656,0.22656 0.22581495,0.22581495 0 0 0 0.22461,-0.22656 0.22581495,0.22581495 0 0 0 -0.22461,-0.22656 z m -37.0039,1.45508 a 0.47007132,0.47007132 0 0 0 -0.46875,0.4707 0.47007132,0.47007132 0 0 0 0.46875,0.4707 0.47007132,0.47007132 0 0 0 0.4707,-0.4707 0.47007132,0.47007132 0 0 0 -0.4707,-0.4707 z m 38.4414,0.0391 a 0.98430461,0.98430461 0 0 0 -0.98437,0.98437 0.98430461,0.98430461 0 0 0 0.98437,0.98438 0.98430461,0.98430461 0 0 0 0.98438,-0.98438 0.98430461,0.98430461 0 0 0 -0.98438,-0.98437 z m -33.99218,0.004 a 0.58789039,0.58789039 0 0 0 -0.5879,0.58789 0.58789039,0.58789039 0 0 0 0.5879,0.58789 0.58789039,0.58789039 0 0 0 0.58789,-0.58789 0.58789039,0.58789039 0 0 0 -0.58789,-0.58789 z m 8.61914,0.25781 a 0.99290127,0.99290127 0 0 0 -0.99219,0.99414 0.99290127,0.99290127 0 0 0 0.99219,0.99219 0.99290127,0.99290127 0 0 0 0.99414,-0.99219 0.99290127,0.99290127 0 0 0 -0.99414,-0.99414 z m -6.3086,0.0488 a 0.28164074,0.28164074 0 0 0 -0.26172,0.28125 0.28164074,0.28164074 0 0 0 0.28125,0.28125 0.28164074,0.28164074 0 0 0 0.28321,-0.28125 0.28164074,0.28164074 0 0 0 -0.28321,-0.28125 0.28164074,0.28164074 0 0 0 -0.0195,0 z m 2.69532,0.3125 a 1.2043464,1.2043464 0 0 0 -1.20313,1.20312 1.2043464,1.2043464 0 0 0 1.20313,1.20508 1.2043464,1.2043464 0 0 0 1.20507,-1.20508 1.2043464,1.2043464 0 0 0 -1.20507,-1.20312 z m 7.17578,0.0234 a 1.1489719,1.1489719 0 0 0 -1.14844,1.14844 1.1489719,1.1489719 0 0 0 1.14844,1.14844 1.1489719,1.1489719 0 0 0 1.14843,-1.14844 1.1489719,1.1489719 0 0 0 -1.14843,-1.14844 z m -14.4336,0.0586 a 0.21290037,0.21290037 0 0 0 -0.19922,0.21289 0.21290037,0.21290037 0 0 0 0.21289,0.21289 0.21290037,0.21290037 0 0 0 0.21289,-0.21289 0.21290037,0.21290037 0 0 0 -0.21289,-0.21289 0.21290037,0.21290037 0 0 0 -0.0137,0 z m 0.89063,1.84961 a 8.767128,8.767128 0 0 0 -8.76758,8.76757 8.767128,8.767128 0 0 0 8.76758,8.76563 8.767128,8.767128 0 0 0 8.76758,-8.76563 8.767128,8.767128 0 0 0 -8.76758,-8.76757 z m -20.06836,0.6582 a 3.4072378,3.4072378 0 0 0 -3.40821,3.40625 3.4072378,3.4072378 0 0 0 3.40821,3.4082 3.4072378,3.4072378 0 0 0 3.40625,-3.4082 3.4072378,3.4072378 0 0 0 -3.40625,-3.40625 z m 28.72656,0.16992 a 0.3010866,0.3010866 0 0 0 -0.2793,0.30078 0.3010866,0.3010866 0 0 0 0.30079,0.30078 0.3010866,0.3010866 0 0 0 0.30273,-0.30078 0.3010866,0.3010866 0 0 0 -0.30273,-0.30078 0.3010866,0.3010866 0 0 0 -0.0215,0 z m 26.49414,0.0391 a 0.84826839,0.84826839 0 0 0 -0.84961,0.84961 0.84826839,0.84826839 0 0 0 0.84961,0.84766 0.84826839,0.84826839 0 0 0 0.84766,-0.84766 0.84826839,0.84826839 0 0 0 -0.84766,-0.84961 z m 2.92188,0.34766 a 0.61612499,0.61612499 0 0 0 -0.61524,0.61719 0.61612499,0.61612499 0 0 0 0.61524,0.61523 0.61612499,0.61612499 0 0 0 0.61718,-0.61523 0.61612499,0.61612499 0 0 0 -0.61718,-0.61719 z m -23.92383,0.58203 a 0.87457758,0.87457758 0 0 0 -0.875,0.875 0.87457758,0.87457758 0 0 0 0.875,0.875 0.87457758,0.87457758 0 0 0 0.875,-0.875 0.87457758,0.87457758 0 0 0 -0.875,-0.875 z m 2.66406,0.91406 a 0.39112297,0.39112297 0 0 0 -0.36328,0.39063 0.39112297,0.39112297 0 0 0 0.39062,0.39062 0.39112297,0.39112297 0 0 0 0.39063,-0.39062 0.39112297,0.39112297 0 0 0 -0.39063,-0.39063 0.39112297,0.39112297 0 0 0 -0.0273,0 z m -7.55469,0.10547 a 0.51051718,0.51051718 0 0 0 -0.51172,0.50977 0.51051718,0.51051718 0 0 0 0.51172,0.51172 0.51051718,0.51051718 0 0 0 0.50977,-0.51172 0.51051718,0.51051718 0 0 0 -0.50977,-0.50977 z m 25.9043,1.20899 a 3.1307938,3.1307938 0 0 0 -3.13086,3.13086 3.1307938,3.1307938 0 0 0 3.13086,3.13086 3.1307938,3.1307938 0 0 0 3.13086,-3.13086 3.1307938,3.1307938 0 0 0 -3.13086,-3.13086 z m -44.9082,0.69336 a 0.22581495,0.22581495 0 0 0 -0.21094,0.22461 0.22581495,0.22581495 0 0 0 0.22656,0.22656 0.22581495,0.22581495 0 0 0 0.22461,-0.22656 0.22581495,0.22581495 0 0 0 -0.22461,-0.22461 0.22581495,0.22581495 0 0 0 -0.0156,0 z m 25.41015,0.14062 a 5.5195217,5.5195217 0 0 0 -5.51953,5.51953 5.5195217,5.5195217 0 0 0 5.51953,5.51953 5.5195217,5.5195217 0 0 0 5.51953,-5.51953 5.5195217,5.5195217 0 0 0 -5.51953,-5.51953 z m -5.58008,0.2793 a 0.39112297,0.39112297 0 0 0 -0.36328,0.39062 0.39112297,0.39112297 0 0 0 0.39063,0.39063 0.39112297,0.39112297 0 0 0 0.39258,-0.39063 0.39112297,0.39112297 0 0 0 -0.39258,-0.39062 0.39112297,0.39112297 0 0 0 -0.0274,0 z m -21.36328,1.02929 a 1.14403,1.14403 0 0 0 -1.14453,1.14454 1.14403,1.14403 0 0 0 1.14453,1.14453 1.14403,1.14403 0 0 0 1.14258,-1.14453 1.14403,1.14403 0 0 0 -1.14258,-1.14454 z m -3.89257,0.36329 a 1.3252943,1.3252943 0 0 0 -1.32618,1.32421 1.3252943,1.3252943 0 0 0 1.32618,1.32618 1.3252943,1.3252943 0 0 0 1.32421,-1.32618 1.3252943,1.3252943 0 0 0 -1.32421,-1.32421 z m 37.86132,1.80859 a 0.28164074,0.28164074 0 0 0 -0.26171,0.28125 0.28164074,0.28164074 0 0 0 0.28124,0.28125 0.28164074,0.28164074 0 0 0 0.28126,-0.28125 0.28164074,0.28164074 0 0 0 -0.28126,-0.28125 0.28164074,0.28164074 0 0 0 -0.0195,0 z m 7.40625,0.55664 a 0.56828851,0.56828851 0 0 0 -0.52929,0.56836 0.56828851,0.56828851 0 0 0 0.56836,0.56836 0.56828851,0.56828851 0 0 0 0.56836,-0.56836 0.56828851,0.56828851 0 0 0 -0.56836,-0.56836 0.56828851,0.56828851 0 0 0 -0.0391,0 z m -4.30273,0.44531 a 3.4287868,3.4287868 0 0 0 -3.42773,3.42969 3.4287868,3.4287868 0 0 0 3.42773,3.42774 3.4287868,3.4287868 0 0 0 3.42969,-3.42774 3.4287868,3.4287868 0 0 0 -3.42969,-3.42969 z m -38.86523,0.46485 a 0.32810149,0.32810149 0 0 0 -0.30469,0.32812 0.32810149,0.32810149 0 0 0 0.32812,0.32813 0.32810149,0.32810149 0 0 0 0.32813,-0.32813 0.32810149,0.32810149 0 0 0 -0.32813,-0.32812 0.32810149,0.32810149 0 0 0 -0.0234,0 z m 2.33984,0.0566 a 0.59268957,0.59268957 0 0 0 -0.55078,0.59179 0.59268957,0.59268957 0 0 0 0.59375,0.59375 0.59268957,0.59268957 0 0 0 0.59179,-0.59375 0.59268957,0.59268957 0 0 0 -0.59179,-0.59179 0.59268957,0.59268957 0 0 0 -0.043,0 z m -5.96484,0.39062 a 0.40535027,0.40535027 0 0 0 -0.4043,0.40625 0.40535027,0.40535027 0 0 0 0.4043,0.4043 0.40535027,0.40535027 0 0 0 0.40624,-0.4043 0.40535027,0.40535027 0 0 0 -0.40624,-0.40625 z m 55.52734,0.0234 a 0.71804577,0.71804577 0 0 0 -0.7168,0.7168 0.71804577,0.71804577 0 0 0 0.7168,0.71875 0.71804577,0.71804577 0 0 0 0.71875,-0.71875 0.71804577,0.71804577 0 0 0 -0.71875,-0.7168 z m -58.00195,0.55469 a 0.78945571,0.78945571 0 0 0 -0.3086,0.0645 c 0.32527,0.37626 0.64968,0.75312 0.99024,1.12305 a 0.78945571,0.78945571 0 0 0 0.10742,-0.39649 0.78945571,0.78945571 0 0 0 -0.78906,-0.79101 z m 51.24804,0.0605 a 1.4102139,1.4102139 0 0 0 -1.41015,1.41016 1.4102139,1.4102139 0 0 0 1.41015,1.41016 1.4102139,1.4102139 0 0 0 1.41016,-1.41016 1.4102139,1.4102139 0 0 0 -1.41016,-1.41016 z m 4.46094,0.65039 a 0.22581495,0.22581495 0 0 0 -0.20898,0.22461 0.22581495,0.22581495 0 0 0 0.22656,0.22657 0.22581495,0.22581495 0 0 0 0.22461,-0.22657 0.22581495,0.22581495 0 0 0 -0.22461,-0.22461 0.22581495,0.22581495 0 0 0 -0.0176,0 z m -50.22461,0.43165 a 6.6221938,6.6221938 0 0 0 -3.73828,1.1582 c 0.12294,0.12551 0.23852,0.25414 0.36328,0.37891 2.97871,2.9787 6.17653,5.42528 9.58594,7.36523 a 6.6221938,6.6221938 0 0 0 0.41211,-2.2793 6.6221938,6.6221938 0 0 0 -6.62305,-6.62304 z m 49.04297,1.17187 a 0.79303604,0.79303604 0 0 0 -0.79297,0.79297 0.79303604,0.79303604 0 0 0 0.79297,0.79297 0.79303604,0.79303604 0 0 0 0.79297,-0.79297 0.79303604,0.79303604 0 0 0 -0.79297,-0.79297 z m -26.125,0.20898 a 0.16831253,0.16831253 0 0 0 -0.15625,0.16797 0.16831253,0.16831253 0 0 0 0.16797,0.16797 0.16831253,0.16831253 0 0 0 0.16992,-0.16797 0.16831253,0.16831253 0 0 0 -0.16992,-0.16797 0.16831253,0.16831253 0 0 0 -0.0117,0 z m 21.66016,1.64844 a 1.3295624,1.3295624 0 0 0 -1.32813,1.33008 1.3295624,1.3295624 0 0 0 1.32813,1.32813 1.3295624,1.3295624 0 0 0 1.33007,-1.32813 1.3295624,1.3295624 0 0 0 -1.33007,-1.33008 z m -22.45899,0.002 a 0.6816138,0.6816138 0 0 0 -0.68164,0.68164 0.6816138,0.6816138 0 0 0 0.68164,0.68164 0.6816138,0.6816138 0 0 0 0.68164,-0.68164 0.6816138,0.6816138 0 0 0 -0.68164,-0.68164 z m 25.25781,0.50781 a 0.10645019,0.10645019 0 0 0 -0.0957,0.10742 0.10645019,0.10645019 0 0 0 0.10547,0.10547 0.10645019,0.10645019 0 0 0 0.10742,-0.10547 0.10645019,0.10645019 0 0 0 -0.10742,-0.10742 0.10645019,0.10645019 0 0 0 -0.01,0 z m -22.95312,0.44922 a 0.21290037,0.21290037 0 0 0 -0.21289,0.21289 0.21290037,0.21290037 0 0 0 0.21289,0.21289 0.21290037,0.21290037 0 0 0 0.21289,-0.21289 0.21290037,0.21290037 0 0 0 -0.21289,-0.21289 z m 9.9707,0.27148 a 4.8926578,4.8926578 0 0 0 -4.89258,4.89258 4.8926578,4.8926578 0 0 0 4.0293,4.81445 c 1.09058,-0.13896 2.16642,-0.31428 3.22656,-0.53125 a 4.8926578,4.8926578 0 0 0 2.5293,-4.2832 4.8926578,4.8926578 0 0 0 -4.89258,-4.89258 z m 20.72852,0.32422 a 6.9270372,6.9270372 0 0 0 -5.24024,3.72266 c 1.80466,-1.09238 3.55119,-2.33403 5.24024,-3.72266 z m -35.08985,0.45703 a 0.94014263,0.94014263 0 0 0 -0.93945,0.93945 0.94014263,0.94014263 0 0 0 0.93945,0.94141 0.94014263,0.94014263 0 0 0 0.93946,-0.94141 0.94014263,0.94014263 0 0 0 -0.93946,-0.93945 z m 28.18164,0.0391 a 1.0724559,1.0724559 0 0 0 -1.07226,1.07227 1.0724559,1.0724559 0 0 0 1.07226,1.07227 1.0724559,1.0724559 0 0 0 1.07227,-1.07227 1.0724559,1.0724559 0 0 0 -1.07227,-1.07227 z m -24.89062,0.44922 a 0.2496478,0.2496478 0 0 0 -0.25,0.25 0.2496478,0.2496478 0 0 0 0.25,0.25 0.2496478,0.2496478 0 0 0 0.24805,-0.25 0.2496478,0.2496478 0 0 0 -0.24805,-0.25 z m -14.55664,0.32032 a 0.68575734,0.68575734 0 0 0 -0.68555,0.68554 0.68575734,0.68575734 0 0 0 0.68555,0.68555 0.68575734,0.68575734 0 0 0 0.6875,-0.68555 0.68575734,0.68575734 0 0 0 -0.6875,-0.68554 z m 8.69336,0.45898 a 0.21290037,0.21290037 0 0 0 -0.19727,0.21289 0.21290037,0.21290037 0 0 0 0.21289,0.21289 0.21290037,0.21290037 0 0 0 0.21289,-0.21289 0.21290037,0.21290037 0 0 0 -0.21289,-0.21289 0.21290037,0.21290037 0 0 0 -0.0156,0 z m -6.34961,0.39453 a 0.2496478,0.2496478 0 0 0 -0.23242,0.25 0.2496478,0.2496478 0 0 0 0.25,0.25 0.2496478,0.2496478 0 0 0 0.24804,-0.25 0.2496478,0.2496478 0 0 0 -0.24804,-0.25 0.2496478,0.2496478 0 0 0 -0.0176,0 z m 4.43164,0.14844 a 0.35305536,0.35305536 0 0 0 -0.32813,0.35351 0.35305536,0.35305536 0 0 0 0.35352,0.35352 0.35305536,0.35305536 0 0 0 0.35352,-0.35352 0.35305536,0.35305536 0 0 0 -0.35352,-0.35351 0.35305536,0.35305536 0 0 0 -0.0254,0 z m -2.27344,0.16015 a 0.50493759,0.50493759 0 0 0 -0.5039,0.50586 0.50493759,0.50493759 0 0 0 0.5039,0.50391 0.50493759,0.50493759 0 0 0 0.50586,-0.50391 0.50493759,0.50493759 0 0 0 -0.50586,-0.50586 z m 30.89453,0.12305 a 3.5329595,3.5329595 0 0 0 -3.5332,3.5332 3.5329595,3.5329595 0 0 0 0.41016,1.64844 c 2.23804,-0.71247 4.40314,-1.61187 6.49414,-2.70117 a 3.5329595,3.5329595 0 0 0 -3.3711,-2.48047 z m -20.60547,0.35156 a 4.9776134,4.9776134 0 0 0 -4.97851,4.97657 4.9776134,4.9776134 0 0 0 0.11719,1.05664 c 2.84118,0.55129 5.79547,0.83008 8.86523,0.83008 0.20294,0 0.40154,-0.0112 0.60352,-0.0137 a 4.9776134,4.9776134 0 0 0 0.36914,-1.87304 4.9776134,4.9776134 0 0 0 -4.97657,-4.97657 z m -6.42968,1.00196 a 0.75271648,0.75271648 0 0 0 -0.75196,0.7539 0.75271648,0.75271648 0 0 0 0.75196,0.75196 0.75271648,0.75271648 0 0 0 0.75195,-0.75196 0.75271648,0.75271648 0 0 0 -0.75195,-0.7539 z m -8.36328,0.19336 a 0.23802985,0.23802985 0 0 0 -0.22071,0.23828 0.23802985,0.23802985 0 0 0 0.23828,0.23828 0.23802985,0.23802985 0 0 0 0.23828,-0.23828 0.23802985,0.23802985 0 0 0 -0.23828,-0.23828 0.23802985,0.23802985 0 0 0 -0.0176,0 z m 4.04492,0.78125 a 3.4633138,3.4633138 0 0 0 -2.75391,1.36718 c 2.00445,0.87555 4.07444,1.59103 6.21484,2.13868 a 3.4633138,3.4633138 0 0 0 0.002,-0.043 3.4633138,3.4633138 0 0 0 -3.46289,-3.46289 z"
       id="path16496"
       inkscape:connector-curvature="0" />
    <path
       inkscape:connector-curvature="0"
       id="path4161"
       style="font-style:normal;font-variant:normal;font-weight:bold;font-stretch:normal;font-size:160px;line-height:125%;font-family:Comfortaa;-inkscape-font-specification:'Comfortaa, Bold';text-align:start;letter-spacing:0px;word-spacing:0px;writing-mode:lr-tb;text-anchor:start;fill:#ffffff;fill-opacity:1;stroke:none;stroke-width:1px;stroke-linecap:butt;stroke-linejoin:miter;stroke-opacity:1"
       d="m 234.46314,283.49661 -59.29687,0 q -1.71875,0 -3.20313,-0.625 -1.48437,-0.625 -2.57812,-1.71875 -1.09375,-1.17187 -1.71875,-2.65625 -0.625,-1.48437 -0.625,-3.125 0,-2.89062 1.64062,-5.07812 l 48.35938,-57.96875 -41.875,0 q -3.28125,0 -5.70313,-2.34375 -2.34375,-2.42188 -2.34375,-5.85938 0,-3.35937 2.34375,-5.70312 2.42188,-2.42188 5.70313,-2.42188 l 59.29687,0 q 1.71875,0 3.20313,0.625 1.48437,0.625 2.57812,1.79688 1.09375,1.09375 1.71875,2.57812 0.70313,1.48438 0.70313,3.125 0,3.20313 -1.95313,5.39063 l -48.28125,57.65625 42.03125,0 q 3.35938,0 5.70313,2.42187 2.34375,2.34375 2.34375,5.70313 0,3.4375 -2.34375,5.85937 -2.34375,2.34375 -5.70313,2.34375 z" />
    <path
       inkscape:connector-curvature="0"
       id="path4159"
       style="font-style:normal;font-variant:normal;font-weight:bold;font-stretch:normal;font-size:160px;line-height:125%;font-family:Comfortaa;-inkscape-font-specification:'Comfortaa, Bold';text-align:start;letter-spacing:0px;word-spacing:0px;writing-mode:lr-tb;text-anchor:start;fill:#ffffff;fill-opacity:1;stroke:none;stroke-width:1px;stroke-linecap:butt;stroke-linejoin:miter;stroke-opacity:1"
       d="m 50.626569,125.92979 q -5.468749,0 -7.578124,-5.23437 L 1.0953205,13.429796 q -0.93750004,-2.42187 -0.93750004,-4.2187497 0,-1.71875 0.625,-3.20312 0.62500004,-1.5625 1.71875004,-2.65625 1.171875,-1.17188 2.65625,-1.79688 1.484375,-0.62500004 3.28125,-0.62500004 5.4687495,0 7.6562495,4.92188004 L 50.626569,94.679796 85.157819,5.8516763 q 1.875,-4.92188004 7.65625,-4.92188004 1.71875,0 3.20313,0.62500004 1.5625,0.625 2.65625,1.79688 1.17187,1.09375 1.796871,2.65625 0.625,1.48437 0.625,3.20312 0,2.0312497 -0.9375,4.2187497 L 58.204699,120.69542 q -2.10938,5.23437 -7.57813,5.23437 z"
       transform="translate(54.19672,157.49661)" />
  </g>
</svg>
